<?xml version="1.0" standalone="no"?>
<!DOCTYPE svg PUBLIC "-//W3C//DTD SVG 1.1//EN" "http://www.w3.org/Graphics/SVG/1.1/DTD/svg11.dtd" >
<svg xmlns="http://www.w3.org/2000/svg">
<metadata></metadata>
<defs>
<font id="american_typewriter_bqregular" horiz-adv-x="1366" >
<font-face units-per-em="2048" ascent="1638" descent="-410" />
<missing-glyph horiz-adv-x="724" />
<glyph horiz-adv-x="2048" />
<glyph horiz-adv-x="2048" />
<glyph unicode="&#xd;" horiz-adv-x="2048" />
<glyph unicode=" "  horiz-adv-x="724" />
<glyph unicode="&#x09;" horiz-adv-x="724" />
<glyph unicode="&#xa0;" horiz-adv-x="724" />
<glyph unicode="!" horiz-adv-x="598" d="M227 104q0 51 35 90t86 42q57 2 101 -33q43 -38 43 -101q0 -34 -15 -63q-9 -16 -22 -29q-39 -39 -97 -39q-46 0 -76.5 24.5t-43.5 55.5q-11 25 -11 53zM272 1370q0 24 7 43q19 48 71 53q37 6 68 -14q17 -13 26 -31q7 -21 7 -51q0 -97 -5 -276t-6 -252v-369 q0 -10 -0.5 -28.5t-1 -26t-1.5 -19t-3.5 -19.5t-5.5 -15q-21 -37 -66 -37q-53 0 -69 41q-8 18 -8 118q0 48 -1 144t-1 143q0 45 -1 135t-1 135q-1 40 -3.5 123.5t-3.5 126.5q0 12 -1 38t-1 38z" />
<glyph unicode="&#x22;" horiz-adv-x="811" d="M123 1437q0 10 2 19q5 32 24.5 51t36 23t33.5 4q26 0 47 -14q9 -6 15.5 -12.5t10.5 -14t6.5 -14t3.5 -14.5t1 -12v-11v-8l-72 -523h-38l-68 498q0 1 -1 9.5t-1 18.5zM508 1456q5 32 25.5 51t37 23t31.5 4q26 0 49 -14q9 -6 15.5 -12.5t10.5 -14t6.5 -14t3.5 -14.5t1 -12 v-11v-8l-74 -523h-39l-65 498q-5 15 -2 47z" />
<glyph unicode="#" d="M86 530v111h358l27 199h-342v116h356l66 494h129l-70 -494h205l64 494h122l-67 -494h344v-116h-358l-27 -199h344v-111h-358l-72 -530h-127l78 530h-207l-78 -530h-119l74 530h-342zM565 641h207l27 199h-205z" />
<glyph unicode="$" horiz-adv-x="1323" d="M70 379v11.5t3.5 29t9.5 40.5t20 41.5t34 37.5q34 30 86 30q49 0 84 -26q43 -33 43 -92q0 -15 -2 -25q-5 -15 -21 -36t-40 -30q-8 -3 -20 -4t-19.5 -1t-13 -3.5t-5.5 -11.5q2 -11 13 -39q24 -60 77 -100q24 -21 70 -39q25 -11 51.5 -19t51.5 -12.5t41 -7t38 -4.5t25 -2 v565q-68 15 -135 33q-38 8 -109 35q-217 93 -217 311q0 22 3.5 47.5t16 71.5t45.5 95.5t83 90.5q124 102 309 113v131q0 7 -0.5 19.5t-1 20t1.5 18.5t6 20q17 41 59 41q22 0 41 -17q10 -9 16 -18t8 -20t2.5 -18.5t-0.5 -21.5t-1 -20v-133q97 -11 160 -33q46 -16 88 -39 q28 -17 76 -53q106 -91 106 -207q0 -57 -29 -92q-35 -45 -94 -45q-23 0 -51 12q-55 28 -55 88q0 39 24 57q5 5 25 15q-7 35 -33 65q-33 39 -81.5 57t-139.5 29v-504q76 -15 113 -23.5t104.5 -33t114.5 -55.5q104 -70 141 -180q20 -62 20 -121q0 -156 -108 -275 q-96 -104 -252 -149q-38 -11 -131 -23q0 -88 2 -131q0 -66 -4 -76q-4 -14 -22 -29.5t-40 -15.5q-27 0 -43 14.5t-20 30.5q-4 14 -4 39q0 27 1 83t1 83q-194 10 -322 84q-34 18 -63 41q-26 20 -57 55.5t-50 79.5q-20 43 -26 93q-4 18 -4 57zM309 1090q0 -41 21 -84 q15 -29 35 -50.5t48 -36t47.5 -21.5t53.5 -17q14 -4 41.5 -11.5t42.5 -11.5v477q-55 -3 -117 -22l-7 -3q-7 -2 -11.5 -4l-13.5 -6t-16.5 -8t-17.5 -10.5t-19 -14t-18.5 -17t-18.5 -21.5t-17 -25q-33 -63 -33 -114zM719 117q52 4 80 10q110 25 172.5 95t62.5 175 q0 99 -67 166q-5 9 -33 27q-16 10 -35.5 18.5t-35 14t-39.5 11t-36 8t-37 7.5t-32 6v-538z" />
<glyph unicode="%" horiz-adv-x="1961" d="M59 977q0 118 31 217q5 21 31 76q21 42 51 76q9 10 19 19.5t18 16.5t17.5 13.5t17 11.5t16.5 9.5l14 7t13.5 6t11.5 4.5t10 3.5t8 2.5q38 11 86 16q6 4 38.5 1t69 -8.5t84 -30.5t83.5 -66q108 -129 108 -353q0 -167 -57 -280q-37 -69 -92 -119q-87 -74 -215 -74 q-95 0 -172 43q-42 21 -84 70q-12 15 -39 51q-1 2 -8.5 17.5t-14 31t-10.5 31.5q-35 98 -35 207zM186 975q0 -147 58 -246q3 -4 13 -18t17 -21q59 -59 154 -59q56 0 104 31q40 27 67.5 71t40 94t17.5 91.5t5 82.5q0 178 -66 267q-28 44 -90 69q-27 11 -45 11q-16 4 -53 4 q-86 -12 -142 -74q-13 -16 -26 -40t-20 -40.5t-7 -19.5q-27 -79 -27 -203zM473 4q0 4 6 16q6 10 19.5 32t19.5 32q28 46 70 109q92 147 237 374q28 44 81.5 132t80.5 132q74 117 107 170q27 49 65 111q57 93 70 111q6 9 92 151q6 9 17.5 28t17.5 28q17 27 33 30h71 q21 -4 21 -18q0 -6 -3.5 -14t-13 -22t-14.5 -24q-17 -28 -37 -59.5t-44.5 -68.5t-37.5 -58l-203 -326l-208 -331q-21 -34 -112 -183.5t-140 -228.5l-62 -98q-15 -29 -24 -37q-8 -6 -39 -6h-56q-14 8 -14 18zM1167 444q0 150 47 261q18 41 52 86q6 9 10.5 13.5t12 10.5 t14.5 12q20 20 28 25q32 24 85 44.5t116 21.5q77 0 143 -29q27 -9 62 -35q29 -22 51 -49q28 -33 31 -39q31 -48 53 -128t22 -177q0 -153 -53 -268q-25 -56 -63 -97.5t-72 -61t-74.5 -31t-61.5 -13.5t-42 -2q-136 0 -221 75q-140 123 -140 381zM1292 449q0 -53 11 -132 q18 -102 75 -161q62 -66 154 -66q68 3 115 39q19 13 39 35q24 29 41.5 70.5t25 74.5t12 73t4.5 51v24q0 94 -20 168l-3 10q-3 10 -5.5 18.5t-9 23t-13.5 27t-17.5 27.5t-23.5 27q-65 60 -164 53q-51 -4 -90 -30.5t-63 -59.5q-68 -94 -68 -272z" />
<glyph unicode="&#x26;" horiz-adv-x="1705" d="M35 489q0 89 39 183q10 23 29 51t24 33q4 8 16 20q3 3 12.5 13.5t16.5 17.5q86 79 205 111q0 1 -13 10.5t-31.5 24.5t-29.5 28q-57 73 -57 176q0 18 3 39.5t13.5 57t37 73t65.5 68.5q95 75 231 75q112 0 184 -59q82 -65 82 -174q0 -67 -39 -115.5t-108 -48.5q-25 0 -37 4 q-23 6 -43.5 27.5t-20.5 56.5q0 15 4 25q8 19 26.5 34t35.5 15q5 0 14 -3t13 -3l3 1q2 2 4 3t3.5 4t1.5 6q0 7 -8 23q-27 65 -117 65q-47 0 -88 -20q-25 -17 -39 -29q-59 -55 -59 -137q0 -71 38 -123t111 -55l15 -2q15 -2 26 -7q37 -16 37 -55q0 -48 -37 -63 q-7 -3 -19.5 -4.5t-34 -4t-36.5 -4.5q-97 -17 -158 -61q-33 -23 -57 -53q-68 -84 -68 -207q0 -52 13 -103q5 -21 14.5 -44.5t28.5 -56.5t53.5 -67t79.5 -61q111 -68 266 -68q233 0 369 115q39 33 57 55q35 41 56 94.5t25.5 83.5t4.5 52q0 61 -28 122t-85 95q-50 31 -121 31 q-83 0 -133 -45q-53 -45 -53 -119q0 -23 6 -41q9 -26 34 -46t50 -20q9 0 18 3.5t9 9.5q0 3 -6 12t-6 18q0 43 27 60.5t52 17.5q33 0 62 -23t29 -75q0 -43 -29 -84q-18 -22 -43 -39q-50 -33 -119 -33q-37 0 -83 14t-75 39q-35 30 -49 56q-39 66 -39 133q2 111 66 190l41 41 q13 10 49 30t65 28q59 18 164 18q37 0 112 -5t112 -5q55 0 110 6q70 0 129 37q115 74 115 209q0 114 -82 166q-43 26 -98 26q-28 0 -52 -6q-35 -12 -63.5 -43.5t-28.5 -83.5q0 -21 4 -29q9 -14 23 -14q6 0 6 8q2 5 3.5 12t4 11.5t8.5 9.5q21 21 52 21q26 0 50.5 -20.5 t24.5 -65.5q0 -44 -36 -80.5t-107 -36.5q-39 0 -84 20q-33 17 -54 43.5t-28.5 55.5t-9.5 43t-2 28q0 57 20 97q32 68 104 115.5t179 47.5q168 0 266 -127q24 -30 44 -81t20 -111q0 -19 -3.5 -45.5t-18 -73.5t-38.5 -86q-60 -91 -170 -139q-56 -24 -114 -31.5t-162 -1.5 q36 -30 53 -48.5t37 -49.5q45 -83 45 -172q0 -145 -86 -267q-35 -50 -76 -86q-139 -131 -360 -172q-77 -14 -164 -14q-191 0 -326 64q-8 4 -23 10.5t-22 9.5q-8 5 -25.5 16.5t-25.5 16.5l-43 31q-29 25 -47 45q-3 3 -33 39q-42 54 -67 124.5t-29 107t-4 64.5z" />
<glyph unicode="'" horiz-adv-x="425" d="M123 1437q0 10 2 19q5 32 24.5 51t36 23t33.5 4q26 0 47 -14q9 -6 15.5 -12.5t10.5 -14t6.5 -14t3.5 -14.5t1 -12v-11v-8l-72 -523h-38l-68 498q0 1 -1 9.5t-1 18.5z" />
<glyph unicode="(" horiz-adv-x="980" d="M211 563q0 273 145 520q47 78 105 146q102 114 225 192q4 4 52.5 32.5t123.5 61t121 35.5q43 0 43 -34q-1 -9 -5 -16.5t-12.5 -14t-14.5 -10t-16.5 -9t-12.5 -6.5q-7 -4 -16 -9t-20.5 -11.5t-17.5 -9.5q-62 -32 -145 -97q-143 -111 -234 -248q-151 -230 -151 -518 q0 -238 96 -426q42 -89 109 -174q24 -30 53 -59q6 -6 17.5 -18.5t17.5 -18.5q25 -25 71 -61q49 -39 87 -65t61 -39t88 -48q2 -1 7 -4l7.5 -4.5t7 -4.5t6.5 -5t5 -5.5t4.5 -7t2.5 -8.5t1 -10q0 -31 -43 -31q-28 0 -117 33q-70 30 -155 82q-215 134 -340 334 q-156 256 -156 536z" />
<glyph unicode=")" horiz-adv-x="980" d="M-6 -385q0 8 4.5 15.5t15 15t19.5 12.5t26 14t27 15q72 39 127 80q10 7 29.5 22.5t29.5 22.5q6 5 19.5 15t19.5 15t20 18t21 19q4 5 8.5 9.5t8 7.5t4.5 4q17 17 35 41q40 43 61 75q63 87 104 191q27 68 43 152.5t19.5 130.5t3.5 77q0 43 -4.5 88.5t-19.5 126.5t-55 172.5 t-101 175.5q-56 78 -154 164q-111 95 -264 176q-1 1 -8.5 5.5t-14.5 9.5t-13.5 14.5t-6.5 20.5q0 10 8.5 19.5t20.5 12.5h16q24 0 96 -26q163 -61 312 -189q14 -12 41 -39q28 -24 38 -36q18 -18 33 -39q39 -42 60 -74q40 -62 47 -76l30 -55q11 -22 27 -62q13 -26 27 -61 q19 -52 37 -142.5t18 -185.5q0 -79 -12 -155q-12 -71 -30 -132.5t-32 -93t-37 -77.5q-49 -88 -84 -136q-27 -40 -69 -88q-92 -103 -228 -188q-92 -57 -169 -88t-115 -29q-27 0 -35 17q-4 8 -4 18z" />
<glyph unicode="*" horiz-adv-x="724" d="M31 920q0 37 37 63q9 7 25.5 14.5t45 17.5t46.5 15.5t60.5 18.5t57.5 18l-2 25q-15 5 -42.5 14t-41.5 14q-4 1 -13 4q-30 9 -47 15t-44.5 18t-42.5 23.5t-27 29t-12 37.5q0 13 4 23q18 41 63 41q21 0 43 -11q25 -11 55 -36t88 -79q10 -9 15 -14q27 -23 35 -32l18 10 q-7 30 -26 121l-5 22q-5 22 -8.5 45.5t-3.5 42.5q0 43 13 66q20 33 57 33q72 0 72 -93q0 -14 -2 -30.5t-7 -42.5t-9 -44t-13 -58t-14 -62l20 -10q22 20 53.5 52.5t50.5 49.5q6 5 18.5 16.5t18.5 16.5q57 47 101 47q28 0 46.5 -18.5t18.5 -45.5q0 -31 -28 -59q-10 -9 -21 -16 t-19.5 -12t-25.5 -11.5t-26 -10t-34.5 -12l-37.5 -12.5q-49 -17 -88 -32l2 -25q185 -54 219 -72q11 -5 23 -12.5t26 -26t14 -38.5q0 -21 -13 -37.5t-26 -22.5q-12 -6 -28 -6q-34 0 -68 22t-98 80q-60 51 -76 66l-18 -10q41 -189 41 -226q0 -60 -25 -82q-18 -18 -45 -18 q-35 0 -53 29q-17 27 -17 65q0 39 17 123l12 54t12 53l-18 10q-124 -110 -156 -133q-48 -33 -82 -33q-26 0 -45.5 20t-19.5 48z" />
<glyph unicode="+" d="M86 535v122h537v533h122v-533h535v-122h-535v-535h-122v535h-537z" />
<glyph unicode="," horiz-adv-x="512" d="M135 82q0 56 31 94q42 51 100 51q63 7 109 -28q21 -16 29 -27t18 -31q29 -56 29 -133q0 -75 -35 -165.5t-92 -164.5q-42 -53 -62 -65q-14 -8 -26 -8q-17 0 -31.5 14t-14.5 29q0 5 1.5 10t2.5 8.5t5.5 10.5t7.5 10.5t11 14.5t13 17q3 3 15 21q78 117 78 186q0 19 -13.5 26 t-25.5 7q-3 0 -16 -1t-22.5 -1t-25.5 4.5t-31 13.5q-55 35 -55 107z" />
<glyph unicode="-" horiz-adv-x="641" d="M59 563q0 20 11 35q27 35 77 35q24 2 50 2t57.5 -1t48.5 -1q126 0 189 2q50 4 77 -8q17 -6 32 -24t15 -46q0 -49 -47 -68q-10 -4 -34 -6t-47.5 -1.5t-66 1t-67.5 0.5q-28 0 -83 -1t-83 -1q-66 0 -84 8q-45 21 -45 74z" />
<glyph unicode="." horiz-adv-x="512" d="M139 104q0 27 13 56q14 35 46 55.5t68 22.5q30 0 51 -9q35 -14 62 -45t27 -82q0 -27 -11 -49q-13 -31 -45 -56.5t-78 -25.5q-22 0 -55 13q-28 12 -53 43t-25 77z" />
<glyph unicode="/" horiz-adv-x="811" d="M4 -182q0 7 16 47q5 13 54 137q4 8 69 176q64 159 70 174q42 106 178 455q113 287 227 598q23 58 58 154q20 64 37 79q12 12 41 17q49 9 77 0q17 -6 17 -27q-1 -5 -4 -12t-8 -18.5t-9 -22.5q-15 -41 -30 -78q-12 -31 -45 -110.5t-50 -124.5q-36 -90 -260 -670 q-27 -71 -81 -211.5t-80 -210.5q-3 -11 -64 -172t-65 -170q-22 -39 -78 -39q-33 0 -37 2q-8 0 -20.5 7t-12.5 20z" />
<glyph unicode="0" horiz-adv-x="1323" d="M76 702q0 120 19 225.5t42 166.5q13 50 62 125q20 40 57 77q12 16 31 35q45 43 94 72q114 65 256 70q27 2 67 0t115.5 -20.5t132.5 -53.5q36 -22 75 -58.5t65 -68.5q65 -84 107 -220.5t42 -318.5q0 -246 -78 -418q-42 -100 -125 -186q-33 -33 -57 -51 q-55 -42 -139.5 -73.5t-188.5 -31.5q-21 0 -40.5 1t-65.5 9t-86 21.5t-90.5 43t-91.5 69.5q-25 24 -56 65q-1 2 -20 27q-12 15 -17 29q-22 40 -28 53q-82 183 -82 411zM264 721q0 -217 55 -348q16 -41 39 -76q29 -44 41 -57q93 -109 258 -109q112 0 199 62q41 34 53 47 q19 22 31 39q115 170 115 456q0 353 -156 496q-94 87 -252 82q-125 0 -217 -80q-31 -31 -47 -51q-21 -30 -41 -70q-78 -156 -78 -391z" />
<glyph unicode="1" horiz-adv-x="1323" d="M279 72q0 75 96 75q36 0 106 -8q6 0 17.5 -1t17.5 -1q47 0 70 33q10 12 16.5 31.5t9 53t3 55.5t1 73t0.5 72q5 245 5 295q0 46 -5 286q0 76 -6 152q0 3 -0.5 11.5t-1 11t-1 10t-1.5 11t-3 10t-4 11t-5.5 10t-7.5 11.5q-9 16 -21 20q-26 13 -51 13q-13 0 -41 -4 q-7 -1 -23.5 -2.5t-23.5 -2.5q-6 0 -19.5 -1t-19.5 -1q-45 0 -65.5 22.5t-20.5 49.5q0 32 23 55q23 21 59 21q3 0 90 -6q31 -2 90 -2q61 0 90 4q9 0 19 1t22 2.5t19 2.5h26q21 0 39 -10q31 -16 31 -64q0 -7 -1 -20.5t-1 -20.5q-2 -18 -2 -55q0 -39 -2 -116t-2 -116 q-4 -168 -4 -505q0 -143 2 -217q2 -95 11 -120q5 -18 15 -32q24 -33 76 -33q25 0 74 5t74 5q37 0 57 -10l8 -6q7 -6 12 -12q18 -24 15 -49q0 -33 -24 -52.5t-58 -19.5q-22 0 -58 4q-18 2 -55 5t-55 5q-81 11 -180 11q-117 0 -234 -15q-30 -3 -57 -6q-36 -4 -51 -4 q-53 0 -76 31q-14 20 -14 43z" />
<glyph unicode="2" horiz-adv-x="1323" d="M98 199q0 77 27 153q7 26 14 39q21 36 27 45l18 31q50 73 142 133q54 35 115 63.5t103 43.5t115 38q137 48 172 64q52 24 77 42.5t50 47.5q14 19 19 27q31 55 31 125q0 126 -86 204q-37 31 -102 53.5t-148 22.5q-125 0 -211 -41q-1 0 -7 -3t-11.5 -5.5t-14.5 -8 t-17.5 -11.5t-18.5 -14.5t-19 -18.5q-45 -45 -45 -92q-2 -13 6 -17q7 -5 20 -6t25 -6q59 -26 59 -92q0 -13 -8 -45q-15 -34 -48 -59t-83 -25q-68 0 -115 51q-47 47 -47 121q0 66 29 139q0 8 27 53q8 14 28 39q33 41 92 84q147 103 369 103q22 0 49 -2.5t78 -10.5 t107.5 -29.5t103.5 -54.5q16 -8 47 -39q125 -115 125 -294q0 -108 -51 -193q-24 -40 -56 -72q-54 -54 -117.5 -85t-191.5 -72q-24 -8 -69.5 -25t-69.5 -25q-94 -32 -139 -55q-5 -2 -32 -14.5t-36 -17.5t-29.5 -17t-36.5 -25t-32 -30q-10 -10 -18 -20.5t-14.5 -19 t-11.5 -18.5t-8.5 -16.5t-6.5 -16t-4.5 -14.5t-3.5 -13.5t-2.5 -11.5t-1.5 -11t-1 -9q29 44 90 74.5t139 30.5q101 0 205 -70q35 -21 97 -72q1 -1 12.5 -9.5t18 -13.5t20.5 -14.5t25 -15.5t27.5 -13.5t30.5 -12.5t31 -8t33 -3q31 0 58 13q33 19 53 57.5t20 69.5q0 23 -10 45 q-24 -20 -39 -26.5t-37 -6.5q-19 0 -33 6q-59 22 -59 90q0 22 12 45q18 32 51.5 48t69.5 16q86 0 129 -64t43 -147q0 -82 -30 -150q-37 -83 -108 -124.5t-148 -41.5q-73 0 -138 33q-45 22 -116.5 78t-110.5 78q-95 49 -170 49q-86 0 -125 -37q-16 -16 -25 -47q40 5 62 -10 q24 -16 24 -56q0 -42 -36 -66t-74 -24q-23 0 -53 13q-31 15 -52 42.5t-28 47.5q-21 52 -21 129z" />
<glyph unicode="3" horiz-adv-x="1323" d="M100 393q2 92 54 161t147 69q25 0 47 -9q78 -24 78 -108q0 -25 -6 -41q-10 -25 -37.5 -47.5t-65.5 -18.5q-12 4 -18 4t-13 -9.5t-7 -22.5q0 -4 1 -12t1 -11q15 -68 75 -121q11 -10 25 -20.5t24 -17t11 -7.5q38 -21 103 -38t140 -17q148 0 242 57q59 36 94 88 q66 92 66 211q0 18 -2 36.5t-11.5 59t-37.5 78.5t-70 62q-73 41 -184 41q-74 0 -170 -21q-24 -4 -37 -4q-31 0 -45.5 19t-14.5 39q0 14 9 26.5t39 42.5l51 51q31 31 117 121l34 35q4 4 11 12t12 13q3 3 10 9t10 9q6 7 17.5 19.5t17.5 19.5l51 51l25 25q13 15 57 59h-405 h-119h-16q-15 -1 -33.5 -6t-32.5 -16q-33 -26 -33 -84q0 -24 5.5 -70t5.5 -70q0 -29 -17 -51q-22 -28 -57 -28q-42 0 -60 28q-16 24 -16 72q0 25 3 75t3 74t-3 72t-3 72q0 46 18 67q11 15 27.5 21t38 5.5t51.5 -1.5h119q74 -2 221 -2q148 0 434 4q5 0 14 0.5t17 0.5t14 -1 q38 -2 62 -21t24 -55q0 -10 -2.5 -19.5t-5.5 -17t-11 -18.5t-13 -18t-18.5 -21t-22 -22t-27.5 -27l-31 -31q-33 -35 -100 -102q-10 -9 -57 -56q-6 -6 -15.5 -16t-15.5 -16q-31 -27 -43 -41l-68 -68q3 0 20.5 0.5t33.5 1t40 -1.5t44 -6q157 -32 239 -143.5t82 -260.5 q0 -131 -55 -235q-17 -33 -60 -86l-43 -43q-55 -51 -141 -92q-60 -27 -121.5 -40t-163.5 -13q-212 0 -362 92q-74 48 -119 102q-76 102 -76 219z" />
<glyph unicode="4" horiz-adv-x="1323" d="M78 526q0 21 12 45q7 14 23 36t50 66t48 62q9 11 25 32.5t24 31.5q7 9 22.5 28.5t22.5 28.5q13 20 39 53q5 8 12 17t15 19.5t12 15.5q14 16 37 47q124 171 252 327q5 7 49 56q19 22 34.5 36t46 27.5t64.5 13.5q46 0 76 -22q16 -13 27 -31q8 -14 12.5 -31.5t5.5 -44 t1 -47.5t-0.5 -61t-0.5 -64v-575h168q76 0 92 -6q41 -23 41 -72q0 -33 -22 -53q-9 -8 -17.5 -12.5t-23.5 -6.5t-22 -2.5t-31.5 0t-34.5 0.5q-103 0 -154 -2q0 -14 -0.5 -40.5t-0.5 -48.5t1 -42q0 -20 4 -74q16 -96 88 -96q20 0 58.5 4t56.5 4q12 0 23.5 -2t27.5 -9t25.5 -24 t9.5 -42q0 -23 -20.5 -45.5t-59.5 -22.5q-17 0 -49 4l-55 6q-143 13 -199 13q-71 0 -195 -15q-92 -10 -108 -10q-41 0 -61.5 22.5t-20.5 47.5q3 57 49 71q15 6 41 6q18 0 55 -4t56 -4q30 0 55 21q18 15 22 28q19 39 19 252h-440q-122 0 -183 2q-36 3 -55.5 11t-32.5 26 q-16 16 -16 49zM291 592h510q1 42 2 125t2 125q0 149 2 225q8 147 10 213q-82 -107 -98 -129q-77 -102 -94 -123q-4 -6 -13.5 -18.5t-13.5 -18.5q-21 -24 -35 -47q-22 -29 -84 -113q-9 -11 -69 -92q-78 -98 -119 -147z" />
<glyph unicode="5" horiz-adv-x="1323" d="M127 344q0 97 59 148q44 40 107 40q27 0 47 -8q28 -8 54 -35t26 -71q0 -32 -19 -60q-9 -14 -27.5 -25t-31.5 -11q-3 0 -7.5 0.5t-7 0.5t-6 -0.5t-5 -2t-2.5 -5.5t-1 -10t9 -24q10 -19 16 -28.5t24.5 -27.5t45.5 -35q100 -63 249 -63q77 0 144 19.5t104 43.5 q65 40 108.5 118.5t43.5 189.5q0 51 -8 88q-21 84 -64 133q-96 115 -285 115q-31 0 -71 -7q-127 -15 -221 -94q-5 -4 -38 -39t-57 -43q-21 -6 -34 -6q-26 0 -50 17q-9 7 -18 18q-16 26 -16 61q0 12 1 25t2.5 28.5t2.5 24.5q2 43 10 129q3 43 8 129.5t8 130.5l3 63t3 62 q0 4 0.5 20.5t1.5 27t5.5 24.5t13.5 22t21.5 12t18.5 5t24.5 0.5t19.5 -0.5h39q41 -2 119 -2q45 0 134 -1t134 -1q30 0 89 2t89 2q35 0 53 2h35q39 0 62 -23q9 -7 18 -30q4 -12 6 -64t2 -53q2 -21 10 -82q9 -45 9 -61q0 -36 -23 -54q-21 -16 -45 -16q-19 0 -35 8 q-9 5 -15.5 12.5t-10.5 14.5t-7 18t-4 17t-2.5 18.5t-1.5 15.5q-6 68 -35 97q-20 20 -57 20q-56 0 -165 -1t-163 -1h-122q-40 -4 -48 -12q-7 -10 -10 -49q-4 -28 -4 -39q-2 -21 -5 -61t-5 -60q-2 -32 -7 -96.5t-7 -96.5q38 32 98 62q108 53 270 53q95 0 193.5 -28.5 t169.5 -94.5q147 -131 147 -360q0 -231 -166 -375q-66 -60 -137 -88q-132 -60 -287 -60q-102 0 -192 23l-72 25q-84 33 -135 79q-46 33 -70 72q-57 83 -57 168z" />
<glyph unicode="6" horiz-adv-x="1323" d="M111 664q0 127 24 239.5t53 181.5q36 83 82 150q84 121 201 180q117 60 262 60q26 0 60.5 -2.5t106 -21t122.5 -50.5q143 -96 143 -232q0 -42 -16 -75q-16 -28 -47.5 -49t-73.5 -21q-17 0 -41 8q-23 9 -46 35t-23 63q0 27 14 54.5t43 38.5q-15 30 -39 47q-27 23 -82.5 42 t-120.5 19q-81 0 -158 -33q-27 -12 -57 -30q-29 -18 -65 -57t-64 -93q-61 -106 -88 -280q-2 -17 -5 -50t-5 -49q44 92 121 144q124 88 311 88q219 0 364 -121q73 -64 111 -139q49 -104 49 -224q0 -22 -1 -42t-11.5 -73t-30 -98t-61 -101t-99.5 -97q-147 -103 -354 -103 q-235 0 -383 140q-35 30 -65 69q-58 79 -86 170q-45 137 -45 312zM332 477q0 -19 4 -59q0 -1 1.5 -12t2.5 -15.5t3.5 -16t5.5 -20t7.5 -21t11.5 -25.5t15 -27q28 -48 66 -78l11 -9q10 -8 20.5 -15.5t21.5 -12.5q84 -47 194 -47q130 0 222 63q24 19 43 41q24 20 47 53 q51 91 51 203q0 165 -109 256q-32 30 -80 49q-73 33 -184 33q-121 -5 -205 -53q-35 -21 -61 -49q-66 -66 -84 -176q-4 -40 -4 -62z" />
<glyph unicode="7" horiz-adv-x="1323" d="M147 920q0 7 5 47q3 14 8 53q12 82 12 125q0 21 -10 139q-10 88 -10 102q0 45 12 66q7 12 22.5 24.5t34.5 12.5q39 0 55.5 -24.5t16.5 -47.5q0 -17 -12 -63q-5 -30 -5 -37q13 26 31 53q67 98 182 98q64 0 116.5 -26t127.5 -84q13 -8 37.5 -26.5t36.5 -26.5 q94 -66 172 -66q55 0 86 29q18 18 18 28q-22 0 -36 4q-22 6 -40 27t-18 55q0 21 10 37q30 58 99 58q21 0 37 -4q42 -12 71 -58q29 -52 29 -131q0 -159 -109 -301q-35 -47 -130.5 -128.5t-106.5 -92.5q-127 -127 -160 -295q-24 -112 -24 -252q0 -24 1.5 -67.5t1 -60.5 t-7.5 -40.5t-22 -40.5q-33 -33 -82 -33q-35 0 -64 23q-27 22 -33.5 56.5t-6.5 106.5v17q0 68 10 156q23 134 58 222q44 113 114 202q12 14 35 37q6 10 24 28q30 35 74 72q15 15 39 35q16 14 47 37q74 62 106 94q7 7 17 16.5t15.5 14.5t12 13t11.5 17q9 18 14 41 q-40 -30 -77.5 -45.5t-98.5 -15.5q-123 0 -242 78q-15 10 -92 67q-26 22 -39 31q-42 24 -86 24q-25 0 -37 -4q-98 -26 -98 -157q0 -63 12 -127q11 -80 11 -86q0 -49 -33 -78q-24 -17 -51 -17q-47 0 -69 30t-22 59z" />
<glyph unicode="8" horiz-adv-x="1323" d="M92 430q0 101 47 193q42 86 144 147q38 22 108 47q-91 41 -141 103q-62 79 -62 184q0 142 115 246q133 120 354 120q25 0 59 -2t103 -15.5t117 -37.5q55 -29 102 -76q90 -90 90 -223q0 -173 -141 -258q-29 -17 -78 -35q120 -40 187 -102q20 -15 49 -51q27 -38 41 -70 q37 -76 37 -166q0 -146 -93 -264q-51 -57 -90 -84q-80 -57 -184 -84t-201 -27q-111 0 -204 25q-32 9 -84 31q-40 16 -60 28q-57 34 -100 82.5t-62 85.5q-25 42 -39 98.5t-14 104.5zM283 436q0 -17 2.5 -36.5t12 -55.5t34.5 -73.5t63 -65.5q98 -76 273 -76q114 0 194 39 q20 9 42.5 23.5t27.5 19.5q11 11 35 39q32 37 48.5 78.5t16.5 107.5q0 97 -55 168q-79 107 -244 127q-52 6 -102 6q-91 -3 -162 -33t-111 -73q-37 -38 -56 -92.5t-19 -102.5zM373 1100q0 -55 26 -94q37 -56 111 -79.5t147 -23.5q109 0 185 39q102 55 102 174q0 103 -94 160 q-34 17 -53 22q-73 23 -166 21q-46 -2 -88.5 -14.5t-82 -36t-63.5 -67t-24 -101.5z" />
<glyph unicode="9" horiz-adv-x="1323" d="M119 958q0 73 16 136q62 240 287 338q98 43 231 43q18 0 49.5 -2.5t90 -14.5t100.5 -31q60 -30 98 -63q40 -35 78 -84q60 -81 98 -190q35 -102 43 -222q2 -33 2 -100q0 -255 -82 -442q-40 -88 -100 -160q-162 -193 -446 -193q-108 0 -194.5 31.5t-137.5 73.5 q-39 32 -73 85.5t-34 117.5q0 59 35 100q39 45 101 45q23 0 41 -6q27 -9 49 -36.5t22 -68.5q0 -56 -57 -88q11 -24 30.5 -42.5t59.5 -37.5q67 -30 164 -30q206 0 313 139q31 41 37 51q36 81 45 105q27 73 41 172q8 79 10 114l-6 -10q-5 -9 -7.5 -12.5t-9.5 -14t-12 -16.5 t-14 -16.5t-17.5 -18.5t-20 -18t-23.5 -19q-123 -90 -310 -90q-86 0 -176 29q-54 18 -59 20q-17 8 -40.5 21.5t-62 45.5t-67.5 69q-92 122 -92 290zM305 971q0 -133 74 -223q21 -28 67 -60q30 -20 86 -35.5t121 -15.5q90 0 160 31q43 22 47 24q14 9 35.5 28t30.5 32 q69 82 69 211q0 116 -51 206q-4 9 -37 54q-16 19 -45 41q-34 25 -94.5 43.5t-130.5 17.5q-127 -10 -205 -68q-28 -19 -47 -43q-32 -37 -56 -102t-24 -141z" />
<glyph unicode=":" horiz-adv-x="598" d="M227 109q0 50 36 88.5t87 42.5q22 0 45 -7q35 -8 66 -40t31 -87q0 -53 -37 -94q-45 -39 -95 -39q-25 0 -59 15q-35 16 -54.5 51t-19.5 70zM229 831q0 47 31 82q34 43 90 48q54 0 90 -29q5 -3 12 -10t11.5 -12t5.5 -5q25 -31 25 -78q0 -51 -37 -90q-41 -43 -99 -43 q-57 0 -96 43q-33 39 -33 94z" />
<glyph unicode=";" horiz-adv-x="598" d="M217 88q0 31 8 51q12 32 45.5 60.5t85.5 29.5q67 0 109 -36l9.5 -9.5t9.5 -10.5l5 -5q28 -47 35 -78q8 -28 8 -82q0 -92 -61 -229q-6 -10 -20 -32.5t-21 -33.5q-2 -4 -14 -22q-19 -26 -30 -39t-32.5 -30t-38.5 -17q-21 0 -32 16t-11 27q0 18 35 61q5 8 19 27q1 3 9 15.5 t15 24t16 29t15 33.5q27 54 27 86q0 16 -11 25q-6 5 -14.5 7t-14.5 2t-17 -0.5t-15 -0.5q-26 0 -49 11.5t-31 21.5q-12 12 -16 18q-23 40 -23 80zM227 805q0 55 41 96q30 28 62 33q16 4 24 4q19 0 31 -2q31 -5 61 -31q46 -39 46 -98q-3 -49 -21 -76q-7 -11 -29 -29 q-34 -30 -82 -30q-23 0 -53 12q-37 17 -58.5 51.5t-21.5 69.5z" />
<glyph unicode="&#x3c;" d="M0 653v144l1366 655v-131l-1229 -596l1229 -600v-131z" />
<glyph unicode="=" d="M0 354v119h1366v-119h-1366zM0 715v121h1366v-121h-1366z" />
<glyph unicode="&#x3e;" d="M0 -6v131l1229 600l-1229 596v131l1366 -655v-144z" />
<glyph unicode="?" horiz-adv-x="1110" d="M84 1061q0 104 49 184q15 26 29 43q55 65 117 101q136 84 339 84q14 0 91 -5l18 -2q18 -2 35 -4.5t45.5 -9.5t54.5 -16t58.5 -24.5t60 -34.5t56 -47.5t50.5 -61.5q21 -32 39.5 -86.5t18.5 -114.5q0 -153 -105 -250q-40 -39 -83.5 -65.5t-114 -58t-84.5 -38.5 q-67 -34 -94 -61q-56 -56 -56 -150q0 -5 0.5 -15.5t0.5 -16t-1.5 -13.5t-6 -15t-11.5 -15q-23 -27 -62 -27q-40 0 -63 25q-19 19 -19 34q-6 12 -6 62q0 12 2 32t12 57.5t27 63.5q21 34 52.5 65t77 61t70 44t73.5 41q108 55 147 97q62 62 62 155q0 113 -91 183 q-82 71 -247 71q-138 0 -226 -43q-68 -35 -111.5 -91t-43.5 -114q3 -44 20 -67q10 -13 33 -29q-4 8 -4 31q3 24 26 41.5t60 17.5q21 0 33 -6q25 -11 39 -34t16 -35.5t2 -22.5q0 -38 -29 -76q-49 -65 -143 -65q-78 0 -130.5 44.5t-70.5 94.5q-12 36 -12 82zM416 100 q0 48 28 84q38 49 95 49q36 0 49 -4q35 -13 64.5 -44t29.5 -83q0 -51 -33 -88q-21 -21 -39 -30q-51 -17 -65 -17q-26 0 -51 15q-29 12 -53.5 42.5t-24.5 75.5z" />
<glyph unicode="@" horiz-adv-x="1835" d="M141 494q0 51 7.5 109.5t27 141t64 176t108.5 179.5q31 40 65 77.5t100 91.5t137 93t173 67.5t211 28.5q153 0 275 -53q183 -80 283 -247.5t100 -371.5q0 -150 -55 -296t-158 -246q-107 -103 -222 -103q-40 0 -70.5 13t-47 34.5t-25 40t-12.5 37.5q-6 25 -2 76 q-15 -27 -33 -51q-40 -55 -91.5 -90t-90 -45.5t-72.5 -10.5q-63 0 -113 29q-65 36 -108.5 115t-42.5 205q0 137 56.5 266.5t156.5 216.5q113 96 233 96q78 0 127.5 -35t71.5 -75q17 -28 25 -60l28 115h121l-61 -279q-4 -22 -13.5 -64t-13.5 -63q-16 -65 -27 -125 q-24 -109 -24 -170q0 -86 65 -86q85 0 185 138q127 189 127 415q0 219 -125 381q-170 213 -451 213q-152 0 -286.5 -65t-233.5 -183q-105 -122 -166 -298.5t-61 -344.5q0 -39 3 -78t19 -107.5t43.5 -127t82.5 -124.5t130 -113q174 -109 410 -109q284 0 506 149 q71 45 159 136l52 -62q-294 -305 -734 -305q-33 0 -64.5 1.5t-90 9.5t-111.5 21.5t-119.5 41.5t-122.5 65.5t-112.5 96t-97.5 131.5q-95 169 -95 381zM696 444q0 -73 17 -114t51 -66q36 -26 84 -26t92 26q83 49 135 158q40 79 71.5 204t24.5 205q-5 72 -45.5 121t-111.5 49 q-119 -2 -205 -155q-21 -36 -42.5 -84.5t-46 -141.5t-24.5 -176z" />
<glyph unicode="A" horiz-adv-x="1579" d="M-2 76q0 22 16 45q24 26 58 26q9 -1 23.5 -2.5t26.5 -2.5t23 -1q29 0 48 15q13 9 21 20t11.5 18t11.5 29.5t13 36.5q39 96 59 150l31 86q9 26 27.5 74.5t21.5 56.5q33 92 35 96q4 14 14 37t13 33l24 69q48 131 53 146q66 180 99 268q7 18 15 40l12 33t10.5 24.5 t15.5 25.5q19 24 43.5 36t34 12.5t28.5 0.5q57 0 93 -25q21 -14 30 -32q7 -12 16 -35t19 -52.5t12 -35.5q18 -47 49 -137t46 -130q5 -16 129 -358q62 -179 129 -354q3 -8 11 -28.5t10.5 -26.5t9 -20t10 -20.5t9.5 -14.5t13 -15q29 -29 76 -29q16 0 46 4t46 4q40 0 59 -24.5 t19 -48.5q0 -21 -6 -33q-22 -39 -70 -39q-8 0 -24 1t-23 1q-33 2 -90 10q-64 6 -131 6q-89 0 -199 -10q-11 -1 -49 -4.5t-59 -3.5q-40 0 -60 8q-18 12 -24 21q-17 17 -17 45q0 23 13 41q23 32 73 32q20 0 66 -4q9 0 26.5 -2t26.5 -2q31 0 48.5 17.5t17.5 35.5 q0 14 -14.5 56.5t-32.5 90.5l-21 56l-12 33t-12 31t-11 22t-15.5 19t-19.5 8q-10 2 -223 2h-141q-70 0 -86 -8q-14 -6 -24.5 -20t-15 -24.5t-10.5 -29.5t-7 -23q-7 -20 -20.5 -58.5t-20.5 -57.5q-25 -70 -25 -90q0 -25 19 -41.5t57 -16.5q15 0 43 4q8 1 24.5 2t24.5 2 q5 0 16 1.5t17 1.5q16 0 32.5 -4.5t34 -24t17.5 -51.5q0 -18 -13 -37q-21 -31 -77 -31q-26 0 -53.5 2.5t-65.5 7t-53 6.5q-39 5 -93 5q-59 0 -149 -11q-19 0 -27 -2q-70 -8 -104 -8q-35 0 -56.5 20t-21.5 54zM590 672l4 -8q4 -6 9 -8t9 -2.5t14.5 0.5t18.5 1q58 -4 86 -4 q23 2 68 2h116q4 0 13.5 -1t17.5 -1t12 2q3 0 10 5.5t7 13.5t-23 65q-88 266 -88 267q-79 247 -80 249q-9 -26 -46.5 -140.5t-59.5 -176.5q-18 -58 -66 -197q-22 -63 -22 -67z" />
<glyph unicode="B" horiz-adv-x="1409" d="M16 74q0 14 9 32q19 39 69 39q16 0 49 -4t50 -4q47 0 73 35q9 14 15 38t8 56.5t2.5 54.5t0 56.5t-0.5 36.5q4 168 4 252q0 59 -2 175t-2 173q-1 20 -1.5 56t-1.5 66t-3 56q-6 58 -24 83q-25 34 -75 34q-15 0 -44 -4.5t-46 -4.5q-41 1 -60.5 24t-19.5 48q0 27 17 49 q24 27 65 27q28 0 133 -14q94 -11 158 -11q34 0 71 2.5t84.5 7.5t71.5 7q81 8 183 8q84 0 125 -6q5 0 21.5 -2t50 -10t67.5 -21t73 -38t68 -58q34 -35 55 -90.5t21 -116.5q0 -102 -51 -180q-39 -56 -101 -92q-38 -21 -96 -37q131 -42 193 -95q44 -39 61 -61q70 -92 70 -221 q0 -139 -90 -246q-61 -71 -152 -117q-125 -59 -340 -59q-86 0 -188 10l-111 12q-59 3 -115 3q-40 0 -84 -3q-21 -2 -62.5 -8t-61.5 -8q-32 -4 -54 -4q-44 0 -63 24t-19 50zM457 496q0 -232 10 -273q13 -49 72 -71q55 -19 190 -19q176 0 260 35q66 27 107 74q65 74 65 192 q0 76 -26 127q-12 23 -41 55q-33 33 -66 48q-43 23 -112.5 34.5t-113.5 13t-114 1.5q-158 -4 -188 -17q-29 -11 -35 -37q-8 -37 -8 -163zM461 999q0 -8 1 -26t1 -27q0 -51 22 -76q5 -5 10.5 -9t10 -6.5t12 -4t11 -2.5t12 -1.5t11 -0.5h12h11.5q54 0 160 4q105 5 168 20l12 3 q12 3 21 6t23.5 9t30 15.5t30.5 22.5q72 60 72 166q0 40 -6.5 63.5t-24.5 48.5q-16 26 -33 39q-38 38 -113 55q-53 15 -150 15h-34q-43 0 -153 -13q-73 -10 -95 -34q-7 -7 -11 -16t-5.5 -21t-2 -18.5t0 -20.5t0.5 -16q-2 -18 -2 -56q0 -19 -1 -58.5t-1 -60.5z" />
<glyph unicode="C" horiz-adv-x="1323" d="M84 717q0 166 44 301t105 217q81 117 207 182q117 64 285 64q135 0 231 -45q39 -20 76 -50q31 -27 43 -43q20 -20 23 -24q1 -2 4 -6t5.5 -7.5t4.5 -7.5q-1 7 -2 21.5t-2 21.5q-8 40 -8 60q0 34 19 57t52 23q15 0 33 -13q35 -24 35 -77q0 -20 -3.5 -56.5t-4.5 -48.5 q-6 -59 -6 -119q0 -87 8 -155q1 -12 2.5 -33t2.5 -38t1 -32q0 -31 -14 -51q-21 -33 -68 -33q-25 0 -45 17q-11 8 -17.5 16.5t-9.5 16.5t-4.5 21.5t-1 23.5t1 30t0.5 35q0 165 -92 254q-29 29 -78 55q-84 39 -182 39q-135 0 -229 -57q-107 -65 -162 -213q-59 -142 -59 -330 q0 -86 10 -147q22 -180 110 -305q33 -44 68 -74q40 -40 104 -66q63 -26 162 -26q151 0 250 69q13 9 45 41q1 2 10 11.5t16.5 19.5t12.5 20q47 77 47 191q0 43 5 61.5t24 34.5q24 21 51 21q13 0 29 -4q61 -14 61 -97q0 -194 -113 -331q-40 -46 -96 -86q-160 -103 -360 -103 q-86 0 -172 21q-22 5 -74 26q-66 26 -123 72q-115 92 -188.5 253.5t-73.5 381.5z" />
<glyph unicode="D" horiz-adv-x="1492" d="M14 1372q0 13 4.5 27.5t22.5 29.5t47 17h10q23 0 70 -6q109 -14 137 -17q20 -2 66 -2q72 0 184 11q73 8 102 10q78 4 119 4q223 0 375 -94q30 -15 70 -52q79 -68 133 -170q92 -171 92 -405q0 -174 -45 -307q-12 -36 -28 -70.5t-51.5 -92.5t-94.5 -110.5t-133 -85.5 q-59 -26 -119 -41q-76 -18 -201 -18q-62 0 -176 8q-135 15 -213 15q-87 0 -160 -11q-14 -1 -40.5 -4.5t-48.5 -5.5t-42 -2q-34 0 -56 20.5t-22 55.5q0 31 22.5 51t51.5 20q18 0 51 -5t49 -5q57 0 82 51q3 6 6 14.5t4.5 20.5t3 22.5t2.5 27t2 28.5t1.5 32.5t0.5 33t0.5 36.5 t0.5 37q0 39 1 115.5t1 114.5q0 96 -4 288q0 177 -4 226q-1 4 -2.5 17.5t-2.5 20.5t-3.5 18t-6.5 19.5t-10 16.5q-26 33 -78 33q-16 0 -48 -4.5t-50 -4.5q-38 0 -55 26t-17 46zM473 983q2 -96 2 -291q0 -256 2 -383q1 -13 2 -39t2 -39q3 -31 14.5 -45.5t43.5 -23.5 q47 -15 202 -15q153 0 220 21q95 30 159.5 104t96.5 168q45 132 45 281q0 50 -11 125q-31 193 -118 301q-23 25 -37 35q-36 33 -60 48t-63 30q-50 19 -106 27t-156 9q-85 0 -168 -12q-17 0 -33 -8q-31 -18 -35 -62q0 -22 -1 -64t-1 -63v-104z" />
<glyph unicode="E" d="M14 78q0 12 6 24q6 17 25 32.5t45 15.5q8 0 43 -5q30 -6 60 -6q45 0 71 35q13 19 19 54.5t7 65.5t1 94v20q4 160 4 241q0 44 -2 131t-2 131q-1 24 -2 73t-2 73q-1 19 -3 56t-3 56q0 69 -25 103q-9 13 -24 20t-24.5 7.5t-29.5 0.5q-10 0 -33 -2t-42 -2t-33 4q-24 6 -39 25 t-15 43q0 73 76 78q30 0 80 -8l80 -6q125 -11 205 -11q27 0 83 2t83 2q22 1 65 2.5t64 2.5q22 1 65.5 3t65.5 3q23 1 68 2t67 2q8 0 25.5 1t25.5 1q41 0 59 2q6 0 19 1t20 1q45 0 72 -27q25 -22 25 -78q0 -18 -3 -51t-4 -41q-8 -86 -8 -129q0 -41 8 -123q7 -44 7 -71 q0 -53 -27 -74q-18 -16 -51 -16q-29 0 -49 20q-8 7 -14 16.5t-9 16.5t-4.5 19t-2 17t0 19t0.5 17v106q0 145 -53 188q-11 10 -26 16.5t-35 9.5t-32.5 4.5t-35.5 2t-27 0.5q-78 4 -123 4q-80 0 -160 -6q-72 -3 -102 -16t-41 -60q-6 -29 -6 -157v-115q0 -49 4 -59 q7 -17 29 -25.5t38 -9t58 -0.5q107 0 139 14q18 10 32.5 30.5t14.5 49.5q0 17 -4 49q-1 7 -2 19.5t-2 22.5t-2 18q0 5 -1 16t-1 16q0 17 4 27q5 16 22 34.5t44 18.5q82 -2 82 -92q0 -24 -6 -71t-7 -56q-10 -95 -10 -174q0 -90 19 -242q4 -36 4 -57q0 -48 -29 -70 q-22 -14 -47 -14q-20 0 -35 10q-41 23 -41 76q0 11 4 39q8 70 8 108q0 49 -34 70q-26 16 -93 16h-104h-3q-3 0 -6 0.5t-8 0l-10 -1t-11 -2t-11 -3.5t-10 -5.5t-9 -8t-7.5 -11t-4.5 -14.5q-3 -9 -3.5 -27t0.5 -52.5t1 -51.5q0 -38 1 -114.5t1 -114.5q1 -42 2.5 -58t7.5 -36.5 t19 -32.5q14 -13 32.5 -18.5t31 -6t54.5 -0.5q39 -2 119 -2q147 0 219 4q114 6 150 50q33 40 33 151v39q-1 16 -2 45t-2 45q0 7 -1 20.5t-1 20.5q0 19 4 27q4 23 22 43t53 20q31 0 48 -12q14 -12 21 -28t8 -25.5t1 -30.5q0 -15 -1 -32.5t-2.5 -39t-2.5 -34.5q-4 -82 -4 -123 q0 -28 4 -90l6 -87q0 -57 -30 -83q-28 -21 -80 -21q-3 0 -285 6q-168 4 -254 4q-106 0 -328 -4q-75 0 -151 -6q-9 0 -26.5 -1t-26.5 -1q-34 0 -54 10q-27 13 -39 43q-2 12 -2 25z" />
<glyph unicode="F" horiz-adv-x="1280" d="M20 70q0 41 29 61q0 2 7.5 6.5t13.5 5.5q6 2 28 2q15 0 45.5 -4t46.5 -4q47 0 72 25q11 11 17.5 33t8 36.5t2.5 42.5t1 29q2 47 2 143v148q0 26 1 78t1 78q-4 132 -4 196v98l-6 130q0 79 -29 108q-21 21 -61 21q-15 0 -46.5 -4.5t-48.5 -4.5q-43 0 -60 24t-17 52 q0 15 4 27q5 17 22.5 30.5t44.5 16.5q6 1 14 1q25 0 70 -7q10 -1 31 -4t31 -4q111 -9 219 -9q36 0 76 1t89.5 2.5t77.5 2.5q31 1 94 2.5t95 2.5q29 1 80.5 4.5t94 5.5t79.5 2q33 0 53 -6q24 -8 41.5 -34t17.5 -65q0 -14 -10 -106q-8 -74 -8 -111q0 -17 1 -36t2.5 -42 t2.5 -36q6 -75 6 -76q0 -23 -6 -41q-5 -20 -24.5 -35.5t-49.5 -15.5q-77 0 -77 106q0 22 2 66t2 67q0 59 -2 90q0 61 -47 91q-57 34 -324 34q-107 0 -158 -6q-64 -10 -80 -37q-6 -9 -9.5 -24.5t-4.5 -34t-1 -32.5t0.5 -32.5t0.5 -21.5q0 -18 -1 -51t-1 -51q0 -74 2 -111 q0 -55 29 -68q20 -8 61 -8q76 0 115 4q55 0 82 25q7 6 12 12.5t8 13t5 12t2.5 11.5t0.5 9v8v6q0 22 -5 66t-5 67q0 16 4 30q6 16 23.5 31.5t42.5 15.5q40 0 57 -20q23 -27 23 -68q0 -24 -6 -67.5t-7 -52.5q-10 -95 -10 -175q0 -43 13 -167q14 -100 14 -134q0 -22 -6 -34 q-5 -18 -23.5 -34t-44.5 -16q-39 1 -57.5 27.5t-18.5 65.5q0 14 1 29t2.5 34t2.5 29q0 7 1.5 22t1.5 23q0 88 -122 88h-5h-115q-4 -1 -13 -2t-14 -2t-12 -3.5t-12.5 -6t-10.5 -9.5q-5 -5 -7.5 -9.5t-3.5 -12t-1.5 -12t0 -17.5t0.5 -20q0 -5 -1 -16t-1 -17q0 -24 1 -76t1 -78 q0 -76 0.5 -103.5t8.5 -66.5t24 -59q23 -29 65 -29q18 0 55.5 5.5t57.5 5.5q14 0 29 -3l7 -1q6 -1 10.5 -2.5t11 -4.5t13 -8.5t11.5 -13.5q12 -18 12 -43q0 -26 -15.5 -45t-31.5 -25q-14 -4 -37 -4q-22 0 -45 2.5t-54.5 7l-45.5 6.5q-89 9 -176 9q-47 0 -115 -7 q-44 -5 -115 -16q-8 0 -24.5 -1t-24.5 -1q-16 0 -26 4q-50 19 -50 66z" />
<glyph unicode="G" horiz-adv-x="1449" d="M82 713q0 45 8 135q43 344 258 510q149 117 357 117q122 0 215 -35q33 -8 77 -37q38 -24 99 -82q-6 75 -6 76q0 41 23 58.5t48 17.5q28 0 46 -15.5t22 -30.5q6 -14 6 -36q0 -43 -12 -125q-6 -64 -6 -129q0 -33 4 -99.5t4 -99.5q0 -27 -2 -33q-18 -57 -76 -57 q-24 0 -43 14q-12 8 -19.5 19.5t-10 28t-3 28t0.5 32.5t1 29q0 107 -41 175q-19 37 -51 61q-102 90 -262 90q-117 0 -197 -43q-26 -13 -63 -45q-27 -23 -66 -68q-114 -156 -114 -446q0 -231 92 -395q26 -43 53 -74q47 -59 106 -90q82 -45 199 -45q148 0 232 71q38 32 61 72 q8 16 16 38t12.5 37t4.5 17q4 13 10 53.5t6 75.5q0 29 -2 45q-8 45 -29 66.5t-65 21.5q-1 0 -76 -6q-36 -4 -51 -4q-46 0 -67 23.5t-21 50.5q0 52 45 70q18 6 45 6q26 0 75.5 -6t55.5 -7q90 -8 139 -8q72 0 160 10q102 15 123 15q61 0 78 -41q8 -16 8 -35t-19 -43 q-23 -27 -59 -27q-10 0 -30.5 2t-32.5 2q-49 0 -74 -49q-10 -18 -15 -53t-5.5 -64t-0.5 -90v-24q0 -103 4 -156q1 -13 5 -49t4 -57q0 -51 -27 -78q-26 -21 -51 -21q-31 0 -53.5 21t-22.5 53q0 17 4.5 48t5.5 42v33q-39 -60 -80 -96q-45 -39 -102.5 -64.5t-112 -34.5 t-80 -11.5t-47.5 -2.5q-190 0 -333 98q-120 84 -191 230q-94 184 -94 420z" />
<glyph unicode="H" horiz-adv-x="1579" d="M14 76q0 32 22 53t54 21q10 0 45 -5q36 -4 55 -4h5h7t8.5 0.5t10 2t11 4t12 6.5t11.5 10t11 14q24 38 27 166v438v318q-2 76 -9 117.5t-28 64.5q-25 25 -68 25q-16 0 -48 -4.5t-50 -4.5q-39 0 -57.5 25t-18.5 49q0 33 24.5 53.5t57.5 20.5q17 0 49 -4q11 -2 32.5 -5 t33.5 -5q115 -13 158 -13q68 0 186 15q87 10 104 10q44 0 64 -22.5t20 -49.5q0 -24 -9 -40.5t-22.5 -23.5t-24.5 -9.5t-21 -2.5q-16 0 -48 4.5t-49 4.5q-40 0 -63 -23q-17 -20 -23 -37q-12 -41 -12 -147v-260l670 2q2 63 1.5 128t-1.5 132q0 117 -23 160q-24 43 -76 43 q-27 0 -71 -7q-5 0 -17 -1t-18 -1q-37 0 -56.5 26.5t-19.5 47.5q0 18 10.5 34.5t20.5 22.5q20 17 61 17q34 0 64 -6l55 -6q108 -11 178 -11q49 0 99 6q20 2 58 7.5t58 7.5q32 4 52 4q15 0 30 -4t32 -23.5t17 -52.5q0 -20 -10 -35q-23 -33 -69 -33q-17 0 -49.5 4.5t-47.5 4.5 q-33 0 -57 -17q-17 -14 -25.5 -39.5t-10.5 -46.5t-5 -69q-2 -59 -2.5 -136.5t1 -180t1.5 -159.5q0 -233 2 -327q3 -134 37 -168q23 -23 70 -23q15 0 47 4t49 4q32 0 54 -21t22 -52q0 -28 -23 -51q-26 -23 -55 -23q-4 0 -58 6l-69 6q-96 13 -176 13q-60 0 -146 -11 q-100 -14 -127 -14q-50 0 -69 35q-13 20 -13 39q0 24 19 48.5t61 24.5q14 0 43 -4t45 -4q15 0 26 1.5t27 8t28 23t18 41.5q10 49 10 258v225l-674 -2q0 -50 1 -151.5t1 -151.5q0 -86 2 -127q0 -1 2 -15t6.5 -33.5t12.5 -33.5q12 -21 29.5 -31t51.5 -10q15 0 45.5 4.5 t47.5 4.5q36 0 56.5 -22t20.5 -58q0 -19 -10 -33q-25 -35 -73 -35q-23 0 -47.5 2.5t-59 7t-47.5 6.5q-72 7 -121 7q-75 0 -149 -9q-11 -1 -63 -7.5t-79 -6.5q-18 0 -30 4q-22 6 -37 27.5t-15 42.5z" />
<glyph unicode="I" horiz-adv-x="724" d="M16 68q0 35 20 56t56 21q15 0 43 -4q32 -4 53 -4q25 0 39 4q15 6 31 23t23 43q3 11 4 27t1 47t1 49q4 90 4 137q2 84 2 256v287q0 96 -6 188l-1 8q-1 8 -2 14.5t-4 17.5t-7 20t-11.5 19t-17 16.5t-23.5 11t-31 4.5q-15 0 -46 -4.5t-48 -4.5q-66 0 -78 50q-2 6 -2 24 q0 30 20 49.5t50 22.5h7q29 0 120 -12q89 -13 170 -13q69 0 180 15q88 10 107 10q25 0 41 -8q41 -18 41 -70q0 -17 -13 -35q-22 -33 -67 -33q-15 0 -47.5 4.5t-49.5 4.5q-38 0 -59 -21t-27 -47q-3 -15 -5.5 -32t-4 -44t-2.5 -44t-2 -60.5t-2 -63.5q-2 -82 -2 -249 q0 -208 2 -312q0 -123 6 -182q6 -62 29 -88q25 -29 72 -29q19 0 51 4q28 4 45 4q39 0 57.5 -24.5t18.5 -46.5q0 -30 -19 -51q-19 -19 -28 -19q-10 -4 -41 -4q-27 0 -77.5 6.5t-62.5 7.5q-70 9 -141 9q-67 0 -113 -5q-10 -1 -62.5 -8.5t-80.5 -9.5q-6 0 -18.5 -1t-18.5 -1 q-17 0 -33 6q-41 23 -41 64z" />
<glyph unicode="J" horiz-adv-x="1236" d="M37 383q0 88 45 172q26 47 70 84q77 63 186 63q74 0 127 -32q22 -13 37 -33q14 -15 22 -37q17 -37 17 -70q0 -26 -11 -59q-9 -29 -29 -47t-36.5 -22.5t-32.5 -4.5q-66 0 -98 52q-12 22 -12 45q0 8 2 15t4 11t6 8.5t6.5 6.5t6.5 4.5t5 3.5q-18 12 -28 12q-27 0 -58 -25 q-57 -46 -57 -131q0 -79 47 -157q29 -42 57 -62q35 -27 94.5 -43t124.5 -16q144 0 228 57q46 31 75.5 74t41.5 93.5t16 90t6 90.5v13v366q0 154 -2 232q-1 12 -2 35t-1.5 31.5t-2.5 23t-5.5 23.5t-8.5 18q-24 39 -70 39q-17 0 -41 -4q-18 -3 -37 -3q-21 0 -27 3 q-15 4 -33 22.5t-18 44.5q0 38 27 57q22 19 63 19q16 0 46 -3.5t42 -4.5q132 -15 164 -15q26 0 56.5 3.5t67.5 8.5t57 7q36 4 59 4q28 0 43 -6.5t27 -24.5q14 -17 14 -39q0 -33 -21.5 -54.5t-54.5 -21.5q-10 0 -31.5 3.5t-33.5 3.5q-41 0 -64 -31q-29 -39 -29 -199v-180 q0 -107 -4 -315q0 -18 -0.5 -54.5t-1 -53t-2.5 -44.5t-6.5 -53t-11.5 -55q-9 -45 -27 -82q-57 -125 -176 -193q-145 -86 -340 -86q-92 0 -192 37q-115 36 -195 131q-6 7 -15 20t-19 27.5t-13 18.5q-9 16 -16 35t-10.5 32t-6.5 27t-4 16q-6 37 -6 78z" />
<glyph unicode="K" horiz-adv-x="1622" d="M14 1372q0 33 23 53.5t55 20.5q31 0 58 -6q29 -2 83 -10q65 -9 129 -9q71 0 138 9q114 14 149 14q44 0 62 -24t18 -50q0 -29 -16 -45q-23 -27 -64 -27q-15 0 -41 3.5t-41 3.5q-48 0 -69 -31q-4 -6 -8.5 -15.5t-6.5 -15.5l-2 -6q-12 -40 -12 -168q0 -225 -2 -338l43 39 l567 492q15 8 15 24q0 21 -48 21q-24 0 -36 -2q-5 0 -36 -3.5t-48 -3.5q-45 0 -64.5 23t-19.5 53q0 21 8 33q20 39 76 39q30 0 86.5 -6.5t68.5 -7.5q101 -11 164 -11q76 0 209 19q24 6 53 6q31 0 45 -6q17 -4 33 -23.5t16 -48.5q0 -23 -15 -40t-30 -23q-21 -7 -36 -7 q-16 0 -47 4.5t-46 4.5q-27 0 -51 -9.5t-35.5 -18.5t-31.5 -28l-396 -329q-34 -30 -34 -45q0 -9 26 -48l410 -559q29 -34 41 -51q39 -47 63 -64.5t53 -17.5q15 0 47.5 4t49.5 4q35 0 56.5 -19.5t21.5 -53.5q0 -74 -89 -74q-29 0 -59 6q-11 1 -33 4t-34 4q-101 11 -162 11 q-88 0 -170 -9q-17 -1 -46 -4.5t-53 -5.5t-45 -2h-8h-12t-12.5 1.5t-15 4.5t-14.5 9t-15 14q-15 30 -15 41q0 19 12 41q19 37 82 37q17 0 49.5 -3t41.5 -4q12 -2 38 -2h33q8 -3 17 0q2 0 7.5 1.5t12 7t6.5 12.5q0 14 -37 61l-379 510q-1 1 -4 4.5t-5.5 6.5t-7 5.5t-9.5 2.5 q-17 0 -90 -67q-5 -5 -8 -7q-109 -95 -150 -135q-1 -56 -1 -107q0 -102 5 -184q4 -51 17 -70q27 -45 79 -45q18 0 50.5 4t48.5 4q38 0 57 -16q25 -22 25 -59q0 -18 -13 -37q-23 -33 -75 -33q-16 0 -35 2t-42.5 5.5t-35.5 4.5q-119 13 -170 13q-45 0 -164 -13q-13 -1 -40 -5 t-40 -5q-24 -4 -39 -4q-34 0 -58.5 21t-23.5 53q0 24 17 49.5t57 25.5q13 -1 45.5 -5.5t52.5 -4.5q43 0 68 25q15 16 23 51t9.5 59.5t2.5 87.5v152q2 80 2 238q0 224 -2 335q-4 140 -17 170q-26 52 -79 52q-16 0 -49.5 -4.5t-51.5 -4.5q-42 0 -61 24t-19 50z" />
<glyph unicode="L" horiz-adv-x="1323" d="M16 76q0 30 23.5 50.5t52.5 20.5q5 -1 16.5 -2t16.5 -2q30 -6 63 -6q52 0 76 33q9 11 15 34t9 47t4.5 57t1.5 54t-0.5 50.5t-0.5 33.5q0 34 1 102t1 103v295q0 59 -2 90q0 120 -2 144q-4 62 -25 92q-25 33 -76 33q-15 0 -45 -4.5t-47 -4.5q-51 0 -69 35q-13 19 -13 41 q0 19 13.5 39t33.5 27q15 4 33 6q31 0 131 -14q70 -11 158 -11q87 0 160 11q100 14 131 14q35 0 58.5 -20.5t23.5 -55.5q0 -11 -8 -35q-18 -37 -70 -37q-13 0 -33 4q-7 1 -32.5 4t-39.5 3q-27 0 -53 -21q-15 -15 -24 -35q-19 -44 -19 -336q-2 -78 -2 -233v-324q0 -2 1 -48 t4 -75.5t10 -48.5q10 -33 40 -39q29 -10 136 -10h100q26 1 78 2t78 2q38 2 57.5 3.5t56.5 15.5t58 39q28 34 28 135q0 29 -3 90.5t-3 93.5q0 37 21 62q21 26 65 26q27 0 51.5 -20.5t24.5 -65.5q0 -32 -8 -102q-10 -82 -10 -148q0 -30 4 -88q6 -75 6 -76q0 -37 -6 -55 q-12 -26 -38 -39t-46 -12h-21q-34 0 -71.5 1t-84 2.5t-71.5 2.5q-178 6 -354 6q-243 0 -414 -10q-36 -4 -57 -4q-57 0 -78 31q-15 22 -15 47z" />
<glyph unicode="M" horiz-adv-x="1878" d="M10 70q0 38 27 59q20 16 51 16q17 0 51.5 -5t53.5 -5q43 0 67 33q18 21 23.5 54.5t7.5 101.5q0 21 1 64t1 65q0 36 1 106.5t1 106.5q0 190 -6 383q-1 19 -2 56.5t-1.5 54.5t-3 41t-7.5 39.5t-13 27.5q-22 37 -80 37q-8 0 -53 -5q-28 -4 -43 -4q-17 0 -31 7q-43 19 -43 67 q0 26 19.5 50t64.5 24q13 0 37 -4q8 -1 28.5 -4t31.5 -4q59 -9 120 -9t123 9q73 10 86 10q58 0 88 -45q17 -24 41 -109l305 -1095q183 707 304 1077q37 113 49 133q25 41 75 41q10 0 21 -2t24 -5.5t21 -4.5q67 -9 139 -9q54 0 140 11q58 8 88 8q37 0 60.5 -18.5t23.5 -55.5 q0 -19 -7 -31q-18 -41 -67 -41q-19 0 -56 5.5t-55 5.5q-62 0 -84 -64q-12 -42 -12 -180q-2 -55 -2 -166v-227q0 -168 2 -252q0 -136 6 -180q0 -45 25 -74q23 -27 65 -27q18 0 52 4t51 4q24 0 36 -4q17 -6 32.5 -23.5t15.5 -45.5t-19.5 -51t-62.5 -23q-24 0 -49 2.5 t-59.5 7.5t-47.5 6q-55 9 -113 9q-67 0 -231 -21q-32 -4 -49 -4q-14 0 -30.5 4t-35 22.5t-18.5 49.5q0 27 19.5 49t62.5 22q13 0 40 -4t42 -4q26 0 47 15q24 16 32.5 46t10.5 87q1 17 2 50.5t2 51.5q0 54 4 164q1 58 1.5 167.5t1.5 198t3 162.5v185q0 30 -8 30q-6 -4 -8 -6 q-14 -14 -19 -41l-321 -1085q-32 -111 -43 -129q-27 -43 -96 -43q-60 0 -89 20q-21 16 -30.5 34.5t-16.5 49.5l-352 1184l-3 6l-3 6t-3 4t-5 2q-7 0 -13 -6q-4 -5 -4 -49q12 -250 15 -493q1 -72 2 -215.5t2 -215.5q0 -94 20 -135q26 -47 76 -47q16 0 45 4t43 4q36 0 57 -20 t21 -55q0 -26 -16.5 -42.5t-34.5 -23.5q-12 -4 -31 -4q-26 0 -117 14q-86 11 -145 11q-48 0 -176 -13q-13 -1 -34.5 -4.5t-39 -5.5t-33.5 -2q-42 0 -67 27q-19 21 -19 45z" />
<glyph unicode="N" horiz-adv-x="1492" d="M12 1368q0 11 4 27q7 21 27.5 35t52.5 14q17 0 46.5 -3.5t39.5 -4.5q70 -4 107 -4q71 0 141 6q5 0 30.5 3t39.5 3q26 0 53 -17q13 -9 23.5 -22t14.5 -21.5t12 -27.5t11 -25q12 -24 32 -73t32 -74q17 -40 86.5 -204t109.5 -251q19 -45 60 -134t61 -134q82 -186 140 -309 q-5 210 -5 247q-1 33 -1 69t0.5 80t0.5 68v428q0 87 -4 132v13q0 56 -24 87q-24 33 -68 33l-69 -6q-35 -5 -45 -5q-42 0 -60 23.5t-18 50.5q0 11 4 27q24 47 76 47q26 -1 74 -7.5t67 -8.5q90 -11 145 -11q35 0 101 8q122 15 147 15q32 0 51 -17q25 -20 25 -55 q0 -25 -18.5 -49.5t-59.5 -24.5q-12 0 -34 3.5t-34 3.5q-42 0 -59 -27q-5 -6 -8.5 -13.5t-6 -13t-4.5 -14t-3 -13t-2 -14t-1.5 -12.5t-1 -13.5t-0.5 -11.5q-4 -54 -4 -79q-1 -36 -2 -106.5t-2 -106.5q-2 -100 -2 -306v-190q0 -25 -1 -74t-1 -73q0 -9 -0.5 -41t-1.5 -52 t-5.5 -46.5t-12.5 -43.5q-26 -44 -54 -59q-12 -6 -26 -10q-24 -9 -43 -9q-35 0 -67.5 18.5t-52 40.5t-38 54t-23.5 44t-10 26q-5 12 -16 33.5t-16 33.5l-43 99q-23 56 -146 333q-44 100 -125.5 283t-105.5 238q-1 3 -13.5 30t-19.5 45q-2 3 -5.5 13t-6.5 15t-6 5t-6 -7.5 t-3 -14.5q0 -15 4 -39q5 -71 5 -72q1 -25 2 -74t2 -75q2 -77 3 -165.5t1.5 -195t1.5 -164.5q0 -113 4 -170q3 -96 18 -127q24 -45 80 -45q17 0 51 5t50 5q15 -2 29.5 -6.5t30.5 -23t15 -47.5q0 -26 -10 -39q-20 -29 -74 -29q-29 0 -139 14q-62 9 -123 9q-47 0 -170 -13 q-25 -2 -80 -10q-32 -4 -45 -4q-46 0 -69 29q-15 20 -15 43q0 30 16.5 48.5t32 22.5t29.5 4q13 0 41 -4q45 -5 55 -4q39 0 60 17q19 16 26 30q11 26 11 43q6 37 6 148q2 27 2 78q2 61 2 184q0 40 -1 120t-1 120q0 203 -8 303q-6 66 -29 96q-23 29 -72 29q-15 0 -46 -4.5 t-48 -4.5q-39 0 -58.5 23.5t-19.5 48.5z" />
<glyph unicode="O" d="M82 735q0 236 92 426q25 49 59 96q84 106 177 158q99 53 268 66q8 0 18 1q38 0 101 -7q139 -18 235 -82q25 -14 76 -62q51 -51 84 -102q59 -91 98 -228q27 -109 27 -274q0 -174 -47 -324q-21 -66 -43 -108q-31 -70 -97 -143q-24 -28 -57.5 -59t-56.5 -44q-21 -17 -80 -39 q-110 -47 -234 -47q-161 0 -288 64q-82 41 -144 114q-54 59 -90 129q-42 84 -66.5 196.5t-28 168.5t-3.5 100zM276 733q0 -97 17 -194t33 -140q51 -136 145 -206q43 -34 104 -53.5t90.5 -22t53.5 -2.5q102 0 184 47q38 22 70 55q58 58 100 166q53 144 53 371q0 170 -45 301 q-54 154 -174 229q-32 19 -57 29q-29 12 -90 22q-33 3 -57 3q-12 0 -21 -1q-114 -3 -209 -69t-147 -205q-50 -147 -50 -330z" />
<glyph unicode="P" horiz-adv-x="1323" d="M12 74q1 29 17 47t32 22q6 4 35 4q15 0 46 -4t48 -4q37 0 58 21q20 17 20 26q23 43 23 287q0 51 1 152.5t1 152.5q0 176 -2 264q0 78 -6 154q-1 15 -2 23t-7 28t-16 31t-30 21t-48 10q-14 0 -43.5 -4.5t-46.5 -4.5q-21 0 -35 7q-18 7 -29.5 23t-13.5 26t-2 18 q0 24 18.5 47.5t59.5 26.5q1 0 70 -6q15 -3 57 -8q90 -11 148 -11q68 0 205.5 12.5t205.5 12.5q187 0 303 -53q106 -46 162 -140q57 -97 57 -215q0 -120 -55 -215q-56 -99 -164 -147q-82 -37 -207 -47q-41 -4 -82 -5h-47h-61q-67 1 -82 1q-12 0 -37 -1t-37 -1h-30 q-18 -4 -25 -21q-4 -20 -4 -57q0 -24 1 -70.5t1 -68.5q0 -62 2 -91q0 -98 18 -133q27 -45 80 -45q17 0 51 4t52 4q31 0 52 -20.5t21 -52.5q0 -21 -12 -39q-12 -15 -26.5 -23t-24 -9t-27.5 -1t-39 2t-47 5.5t-39 4.5q-94 11 -153 11q-78 0 -219 -19q-27 -6 -56 -6 q-9 0 -18.5 1.5t-28.5 7.5t-31 22.5t-12 42.5zM472 849.5q0 -13.5 1 -26.5v-10.5v-9t0.5 -6.5t1 -6t2.5 -4.5t4 -4.5q6 -4 14.5 -6.5t23 -4t25 -2t32 -1t32.5 -0.5q37 -2 109 -2q161 0 227 25q41 16 59 26t37 29q76 72 76 184q0 139 -92 209q-38 29 -88 42.5t-135 18.5 q-63 3 -92 3h-13q-31 0 -123 -9q-61 -6 -79 -24q-11 -11 -13 -25q-3 -14 -5 -38t-3 -61.5t-1 -68t0.5 -86t0.5 -86.5q0 -9 -0.5 -25.5t-0.5 -30z" />
<glyph unicode="Q" horiz-adv-x="1323" d="M70 737q0 195 57 353q29 82 75.5 150.5t92.5 107.5q150 131 375 131q114 0 202 -33q265 -98 353 -418q39 -152 39 -283q0 -22 -2.5 -64t-12.5 -117.5t-26 -133.5q-10 -33 -33 -94q-44 -109 -123 -197q-58 -65 -129 -104q-3 -76 -3 -127q0 -26 1 -45q3 -84 32.5 -118 t86.5 -34q30 0 59 17q28 17 37 45.5t12 89.5q3 37 17 57q22 25 63 25q22 0 43 -15q19 -14 26 -33t7 -57q0 -82 -35.5 -139.5t-87.5 -87.5q-59 -33 -154 -33q-33 0 -71 6q-128 37 -168 127q-23 49 -23 148q-2 37 -2 114q-113 -10 -135 -10t-43 1.5t-70 11.5t-92.5 27.5 t-98.5 56t-99 90.5q-28 33 -66 96q-88 161 -102 383q-2 35 -2 106zM254 737q0 -206 51 -360q19 -61 47 -109q31 -48 101 -114q-3 5 -12 19t-14 22.5t-12 23t-12 31.5t-8 37q-4 32 -4 65q0 45 25 97q54 110 196 135q2 0 24.5 3t33.5 3q15 0 39.5 -3t77.5 -27.5t85 -67.5 q54 -72 54 -207q0 -1 -6 -88q54 65 71 100q37 70 61.5 183t24.5 255q0 245 -80 406q-17 33 -55 82q-1 0 -22 22t-37 33q-30 24 -85 43.5t-120 19.5q-114 0 -197 -51q-114 -66 -170.5 -209t-56.5 -344zM500 291q0 -75 39 -127q48 -60 133 -60q39 0 108 23v154q0 69 -22 110 q-9 17 -22.5 29.5t-25.5 18.5t-25.5 9.5t-19 4t-8.5 0.5q-25 0 -54.5 -9t-43.5 -18q-24 -19 -41.5 -55.5t-17.5 -79.5z" />
<glyph unicode="R" horiz-adv-x="1492" d="M10 72q0 35 22.5 55t59.5 20q15 0 43 -4q27 -6 58 -6q28 0 43 10q23 13 35 42t14.5 55t3.5 78q0 14 1 43t1 43q0 43 1 129.5t1 130.5q0 122 -4 368q0 147 -9 186q-5 23 -14 38q-24 43 -84 43q-15 0 -46.5 -4.5t-49.5 -4.5q-37 0 -55.5 25.5t-18.5 46.5q0 54 49 74 q7 2 37 2q18 0 39 -2t47 -5.5t39 -4.5q101 -9 135 -9q74 0 220.5 12.5t218.5 12.5q180 0 278 -43q20 -7 53.5 -28.5t63.5 -53.5q20 -20 35 -45q57 -87 57 -201q0 -143 -82 -229q-44 -50 -100 -72q-43 -20 -144 -33q36 -5 82 -18q103 -34 144 -123q14 -34 20 -79t7 -81 t1 -129v-22t0.5 -20.5t1.5 -18t1.5 -18t2 -15t3.5 -15t5 -12.5t6.5 -12t8.5 -10q27 -21 86 -21q15 0 47 2.5t49 2.5q34 0 60 -19t26 -53q0 -60 -49 -78q-14 -4 -45 -4q-1 0 -76 6q-10 0 -30.5 -1t-30.5 -1q-20 -2 -38 -2q-88 0 -144 55q-36 42 -47 80q-3 10 -5.5 23.5 t-4 25.5t-3 32t-2.5 33.5t-2 40t-1.5 40.5t-1.5 46.5t-1 47.5q-3 86 -15.5 129.5t-51.5 73.5q-36 29 -86 36t-158 7q-52 0 -158 -4q-25 -1 -35.5 -2t-23.5 -5t-19 -12q-14 -14 -14 -51q0 -88 4 -268q0 -112 23 -150q28 -41 71 -41q17 0 51.5 6.5t53.5 6.5q23 0 50.5 -17.5 t27.5 -58.5q0 -23 -21 -49q-29 -25 -59 -25q-29 0 -81 6.5t-65 7.5q-65 9 -131 9q-79 0 -172 -13q-13 -1 -37 -4.5t-44 -5.5t-38 -2t-34 4q-18 5 -37 22.5t-19 47.5zM467 942q0 -8 1.5 -34t0.5 -40q0 -4 -0.5 -12t-0.5 -12.5t2 -11t7 -11.5q11 -8 41 -8q4 0 12.5 -1t12.5 -1 h162q139 0 218.5 18.5t125.5 73.5q57 77 57 166q-1 36 -11.5 73.5t-19.5 49.5q-34 66 -121 96q-76 27 -201 27q-30 0 -63 -2q-52 -2 -127 -17q-37 -9 -55 -20t-27 -31q-4 -10 -5.5 -24t-2 -24t-1.5 -35t-1 -38q-2 -39 -2 -116q0 -12 -1 -34t-1 -32z" />
<glyph unicode="S" horiz-adv-x="1236" d="M113 551q0 19 4 33q21 53 82 53q24 0 43 -12t26 -25q6 -12 11 -41q1 -20 -1 -54t-2 -46q0 -157 95 -248q54 -50 123 -74q61 -17 84 -20q44 -6 86 -6q141 0 227 61q30 18 49 43q61 75 61 191q0 59 -20 100q-32 66 -119 102q-51 21 -309 70q-122 22 -211 63q-40 22 -57 35 q-21 15 -41 35q-97 101 -97 248q0 94 34 168t81 121q59 59 139 92q100 41 228 41q200 0 311 -101q11 -9 23 -24t14 -19q0 2 -3 22.5t-3 29.5q0 40 23 56.5t48 16.5q19 0 37 -12q31 -25 31 -86q0 -28 -4 -90q-4 -33 -4 -98q0 -66 6 -134q1 -9 2.5 -23.5t2.5 -26.5t1 -23 q0 -35 -6.5 -54t-24.5 -34q-24 -19 -49 -19q-40 0 -59 22.5t-23 49.5q-4 12 0 63t4 62q0 73 -23.5 124t-88.5 91q-35 25 -53 29q-71 28 -175 28q-199 0 -264 -145q-22 -44 -22 -101q0 -81 43 -137q18 -23 37 -37q42 -33 105.5 -51t182.5 -37q85 -12 179 -37q67 -19 97 -32.5 t66 -40.5q15 -9 35 -29q43 -42 75 -113t32 -159q0 -132 -68 -238q-32 -55 -96 -102q-136 -107 -354 -107q-189 0 -322 88q-36 22 -74 68q1 -10 4.5 -39.5t3.5 -46.5q0 -19 -6 -31q-6 -15 -23.5 -29t-41.5 -14q-54 0 -72 41q-10 20 -10 74q0 18 3 53.5t3 40.5q6 58 6 121 q0 41 -8 119q-1 16 -5 50t-5 52q-4 24 -4 39z" />
<glyph unicode="T" horiz-adv-x="1236" d="M12 915q0 19 3.5 54.5t4.5 46.5q7 79 7 133q0 46 -7 111q-6 93 -6 94q0 33 15 57q17 28 67 33q11 0 34 -2t36 -2q21 0 44.5 -1t52 -2.5t44.5 -2.5q194 -7 330 -7q178 0 303 5q185 10 223 10q49 0 66 -12q31 -22 31 -74q0 -9 -11 -133q-4 -62 -4 -95q0 -60 6 -118 q9 -70 9 -92q0 -47 -25 -72q-26 -23 -57 -23q-33 0 -54 17q-20 16 -26 39t-6 67q0 35 7 105t7 106q0 63 -23 98q-5 9 -14.5 17t-17.5 12t-15 7l-6 3q-60 15 -121 15q-82 0 -125 -21q-19 -9 -31 -25t-14 -26q-8 -23 -11.5 -74.5t-4 -118.5t-0.5 -73q0 -52 -1 -157t-1 -157 q0 -201 2 -301q0 -139 20 -176q10 -18 29.5 -29.5t31 -13.5t19.5 -2q13 0 37 4l60 6q42 0 59.5 -22t17.5 -49q0 -38 -22 -56q-20 -20 -66 -20l-69 6q-38 8 -66 10q-82 9 -166 9q-65 0 -145 -13q-12 -1 -37 -4.5t-45.5 -5.5t-38.5 -2q-31 0 -49 16q-27 24 -27 60 q0 26 17 48.5t61 22.5q16 0 48 -4t50 -4q56 0 76 41q20 38 23 178v64q-1 60 1 246q1 112 1 194v96q0 237 -13 275q-14 42 -63 63q-38 15 -105 15q-143 0 -180 -60q-14 -27 -14 -96q0 -45 8 -131q4 -66 4 -96q0 -50 -22 -76q-23 -29 -70 -29q-24 0 -41 15q-35 24 -35 79z" />
<glyph unicode="U" horiz-adv-x="1449" d="M-2 1376q0 14 6 29q22 36 68 39h5q33 0 118 -12q90 -11 145 -11q77 0 170 13q82 10 98 10q90 0 90 -76q0 -29 -22 -49q-21 -21 -55 -21q-8 0 -48 5q-27 6 -57 6q-52 0 -76 -47q-19 -36 -22 -184v-19q-1 -17 -2 -51t-2 -52q-4 -218 -4 -329q0 -170 4 -219 q4 -71 22.5 -124.5t71.5 -93.5q92 -73 248 -73q71 0 148.5 26.5t121.5 89.5q18 25 29.5 62.5t13.5 57.5t2 30q2 23 2 68q2 61 2 184q0 337 -2 403q-1 66 -2.5 100t-8 73t-18.5 57q-23 41 -79 41q-16 0 -49.5 -5.5t-51.5 -5.5q-41 0 -58.5 23t-17.5 49q0 28 17 49 q16 16 31 21q18 6 38 6q33 -2 99 -10q119 -13 166 -13q43 0 153 13q55 10 101 10q22 0 34 -6q16 -6 31 -22.5t15 -41.5q0 -17 -7 -33q-24 -43 -71 -43q-9 0 -27.5 2.5t-30 3t-27.5 -6t-28 -21.5q-15 -20 -22 -47q-11 -62 -11 -332q2 -139 2 -416q0 -49 -2.5 -86t-10.5 -87 t-25.5 -90t-44.5 -80.5t-71 -73.5t-102 -56q-111 -47 -245 -47q-223 0 -365 96q-89 64 -127 164q-29 74 -29 228q0 92 3.5 274.5t3.5 273.5q0 29 -5 166q0 2 -0.5 14.5t-1 16.5t-1.5 16t-2.5 17.5t-4.5 16t-6.5 17t-9 14t-12.5 13.5q-16 13 -50 13q-8 0 -32 -2.5t-42 -1.5 t-32 8q-39 19 -39 69z" />
<glyph unicode="V" horiz-adv-x="1536" d="M-33 1370q0 28 19 47q27 27 59 27q9 0 18.5 -1t21.5 -2.5t19 -2.5l56 -6q93 -13 170 -13q70 0 194 15q13 1 35 4.5t40 5.5t34 2q35 0 58.5 -20t23.5 -54t-23 -54t-57 -20q-11 0 -41 5q-32 4 -47 4q-45 0 -68 -21q-16 -18 -16 -43q0 -17 3 -28.5t11.5 -34.5t14.5 -45 q11 -42 20 -68q3 -12 35 -104q10 -32 35 -110.5t39 -119.5q43 -121 81 -239q10 -31 30 -96t28 -89q7 -23 43 -127q13 43 30.5 103t31 105.5t26.5 86.5q7 22 131 412q94 299 94 336q0 21 -13 43t-34 32q-18 7 -39 7q-16 0 -48 -5.5t-50 -5.5q-42 0 -61 25.5t-19 50.5 q1 29 18 46.5t35 23.5q12 4 31 4q25 -1 147 -16q58 -9 121 -9q60 0 150 11q11 1 31 4.5t36.5 5.5t32.5 2q67 0 84 -47l2 -5l2.5 -12.5t1.5 -13.5q0 -25 -20.5 -47.5t-59.5 -22.5q-12 0 -34 3.5t-33 3.5q-26 0 -45 -15q-3 -2 -19 -18q-1 -2 -5 -13t-10.5 -27.5t-10.5 -27.5 q-13 -33 -21 -59q-18 -55 -39 -111q-57 -166 -125 -373q-48 -151 -108 -321q-26 -88 -64 -195q-30 -98 -61 -129q-32 -28 -92 -28q-53 0 -82 20q-19 14 -33 37.5t-21.5 43.5t-29.5 81q-11 29 -47 129q-34 97 -144 405q-18 51 -53 144t-41 110q-12 33 -34 97.5t-33 97.5 q-2 7 -29 68q-15 37 -31 53q-29 33 -82 33q-16 0 -46.5 -4.5t-47.5 -4.5q-31 0 -53.5 21t-22.5 53z" />
<glyph unicode="W" horiz-adv-x="1961" d="M4 1403q21 43 80 43q17 0 63 -8l50 -6q123 -13 172 -13t172 13q86 14 114 14q15 0 39 -6q18 -7 32.5 -25t14.5 -45q0 -15 -12 -39q-14 -19 -31.5 -27t-50.5 -8q-19 0 -58.5 5.5t-60.5 5.5q-36 0 -61 -21q-16 -16 -16 -41q0 -21 5.5 -55t12 -63.5t20 -90t21.5 -98.5 q11 -53 35.5 -177t38.5 -188q5 -26 21 -96.5t24 -114.5q10 -59 24 -155q53 302 70 391q10 53 31.5 161t31.5 161q32 163 72 350q11 54 15 71t14.5 41.5t27.5 40.5q35 35 95 35q34 0 53 -8q51 -17 76 -70q16 -35 41 -168q4 -22 15.5 -78.5t16.5 -84.5q8 -42 29 -145.5 t31 -160.5q32 -176 51 -288q4 -27 47 -256q14 59 35.5 174t24.5 129q12 56 35 169t34 169q10 49 25.5 122t23.5 112t14.5 81.5t6.5 67.5q0 86 -86 86q-18 0 -55.5 -5.5t-57.5 -5.5q-57 0 -80 31q-16 20 -16 43q0 74 88 74q45 0 131 -12q111 -15 178 -15q61 0 160 15 q72 10 88 10q42 0 61 -25t19 -51q0 -29 -21.5 -49.5t-52.5 -20.5q-13 0 -40 3.5t-42 3.5q-28 0 -47 -17q-20 -16 -30 -43t-23 -82q-3 -15 -10.5 -41t-10.5 -37q-9 -43 -26.5 -120.5t-22.5 -98.5q-109 -476 -135 -585q-42 -185 -43 -187l-1 -6q-2 -7 -4.5 -14t-6.5 -16 t-11 -19t-16 -19q-9 -10 -19 -16.5t-16.5 -9t-14 -4t-9.5 -2.5q-3 0 -14 -2t-21 -2q-21 0 -39 6q-37 16 -59 45q-24 31 -41 102q-7 38 -15 66q-34 146 -49 229q-69 358 -90 481q-38 245 -57 342q-4 -21 -37 -213q-6 -36 -35 -184q-21 -117 -45 -231q-7 -37 -22.5 -108.5 t-22.5 -108.5q-5 -25 -28.5 -140t-39.5 -176q-8 -38 -20 -55q-36 -55 -111 -55q-80 0 -116 79q-9 23 -17 54t-21.5 94.5t-21.5 97.5q-13 55 -34.5 149.5t-40 173.5t-35.5 148q-31 131 -64 248q-14 69 -37 146q-21 87 -45 108q-23 23 -59 23q-13 0 -41.5 -3.5t-44.5 -3.5 t-33 7q-13 5 -29 23q-15 17 -14 39q0 22 6 36z" />
<glyph unicode="X" horiz-adv-x="1622" d="M0 76q0 29 22 50t50 21q12 -1 48 -4.5t56 -3.5q10 0 20 2.5t17 5t16.5 9t14.5 10.5t15.5 14.5t14 14.5t15 17t14.5 17q41 47 45 52q12 15 49 57q11 15 58 74q65 78 86 104q24 34 32 43t21 25t18 22q30 38 33 41q5 6 14.5 17.5t14.5 17.5q14 20 53 70q-19 23 -53.5 64.5 t-50.5 60.5q-7 8 -21.5 25.5t-21.5 25.5q-5 5 -33.5 39t-44.5 51q-70 87 -164 196q-3 4 -15.5 19t-16 18.5t-14 15t-15.5 15t-15 11t-17 9.5t-17.5 4.5t-20.5 2.5q-17 0 -49 -4q-32 -7 -56 -7q-44 0 -65 24.5t-21 51.5q0 35 24 54.5t60 19.5q16 0 52 -4q19 -4 61 -8 q96 -13 176 -13q82 0 152 11q114 14 147 14q21 0 35 -2q21 -6 38 -24t17 -50q0 -22 -12 -39q-21 -33 -82 -33q-29 0 -76 7q-7 0 -22 1t-23 1q-8 2 -22 2q-8 0 -12.5 -5t-4.5 -10q0 -4 4 -9.5t10.5 -14.5t10.5 -15q13 -17 57 -73l49 -68q10 -13 32 -41t32 -41q22 -27 61 -78 t56 -73q17 20 88 114q10 13 30.5 37.5t30.5 38.5q31 40 43 57q40 48 82 109q5 8 12.5 17t12 14t7.5 10.5t3 9.5q0 21 -29 21q-18 -1 -61.5 -6t-67.5 -5q-63 0 -82 43q-8 16 -8 33q0 20 12 37q18 35 74 35q28 0 90 -8q125 -17 180 -17q43 0 162 13q92 10 113 10q30 0 51 -14 q29 -21 29 -58q0 -30 -17 -48t-32 -22t-29 -4t-43 4.5t-43 4.5q-31 0 -60 -21q-25 -15 -120 -133q-27 -31 -74.5 -90.5t-54.5 -67.5q-23 -28 -63 -75.5l-72 -85.5t-60 -74q12 -16 33.5 -41.5t30.5 -36.5l49 -61q38 -48 51 -62q10 -13 29.5 -37.5t29.5 -36.5q20 -24 61 -72 t62 -73l49 -61q4 -5 21 -24.5t26 -29.5q58 -67 97 -80q13 -4 25.5 -4.5t36 1t42.5 1.5q15 0 23 -2q20 -5 35.5 -24t15.5 -49q0 -28 -21 -49t-65 -21q-22 0 -58 4l-86 12q-24 2 -127 7h-34q-9 0 -54 -5q-46 -4 -73 -8q-13 -1 -36.5 -4.5t-43 -5.5t-37.5 -2q-53 0 -80 20 q-24 19 -24 54q0 21 12 45q13 18 32.5 24t55.5 6q44 0 84 -6q8 0 24.5 -2t24.5 -2q41 0 41 23q-3 11 -6 16q-4 6 -47 64q-9 13 -35 43q-7 9 -30 38t-34 46q-4 4 -24 28.5t-29 38.5q-21 25 -84 107q-12 14 -36 44t-38 46q-69 -85 -127 -160q-13 -17 -45.5 -61.5t-50.5 -67.5 q-2 -3 -38 -48t-61.5 -82t-25.5 -48q5 -25 33 -25q23 0 65 3.5t56 4.5h55q10 0 21 -2t28.5 -8.5t28.5 -23.5t12 -43q0 -22 -22 -47q-23 -23 -60 -23q-23 0 -47.5 2.5t-59.5 7.5t-48 6q-89 7 -154 7q-79 0 -129 -7q-21 -2 -58.5 -7t-54.5 -7q-40 -4 -57 -4q-11 0 -21.5 2 t-28.5 8.5t-29 24t-11 43.5z" />
<glyph unicode="Y" horiz-adv-x="1579" d="M-2 1372q0 28 18 49q22 25 70 25q27 0 127 -14q97 -9 127 -9q48 0 176 13q100 14 127 14q21 0 39 -6q45 -20 45 -72q0 -21 -12 -37q-22 -35 -86 -35q-19 0 -51.5 4t-45.5 5q-5 0 -14 1t-14 1q-25 0 -25 -19q0 -6 2 -10q32 -64 47 -84q2 -4 23.5 -40t32.5 -56 q17 -28 102.5 -176t132.5 -226q143 236 193 326q7 8 20 35q89 143 119 199q12 24 12 30q0 23 -28 23q-8 0 -22.5 -2t-22.5 -2q-74 -9 -99 -9q-2 0 -16.5 1.5t-16.5 1.5q-27 5 -42.5 21.5t-19 29t-3.5 24.5q1 26 16.5 42.5t30.5 23.5q16 4 43 4q18 0 38.5 -2t45.5 -5.5 t39 -4.5q86 -13 162 -13q51 0 137 11q96 14 125 14q60 0 78 -39q10 -10 10 -37q0 -18 -12 -35q-20 -34 -68 -34q-16 0 -49 4t-49 4q-34 0 -62 -21q-8 -6 -19 -20t-19.5 -27.5t-24 -39t-25.5 -40.5q-11 -19 -24.5 -40t-30 -46.5t-25.5 -40.5q-23 -35 -63.5 -101t-48.5 -79 q-33 -51 -97.5 -153.5t-97.5 -153.5q0 -160 2 -240q0 -93 21 -131q20 -41 75 -41q16 0 50.5 4t52.5 4q14 0 24 -2q19 -6 35.5 -23.5t16.5 -47.5q0 -29 -25 -54q-9 -9 -22 -14q-15 -6 -37 -6q-25 0 -121 14q-101 11 -168 11q-85 0 -229 -19q-28 -4 -46 -4q-45 0 -66.5 22 t-21.5 50q0 34 22.5 54.5t55.5 20.5q16 0 49 -4t50 -4q40 0 67 29q14 17 21 37q12 39 12 176q2 51 2 156q-26 43 -56.5 90.5t-67.5 105t-58 90.5q-24 39 -71.5 116t-72.5 116q-13 21 -36.5 58.5t-38 60.5t-32 50t-30 42.5t-20.5 21.5q-21 21 -60 21q-17 0 -52 -4.5t-54 -4.5 q-32 0 -54 19t-22 53z" />
<glyph unicode="Z" horiz-adv-x="1280" d="M-4 127q0 41 21 78t63 86q9 11 80 96q2 2 6 7t6 7q10 12 27 29l24 31q6 7 18.5 20.5t18.5 20.5t18.5 22.5t18.5 22.5q9 12 28.5 32.5t22.5 24.5q4 5 18 22t23 27q10 12 29 31q18 25 35 45q8 9 22.5 25.5t22.5 25.5q16 19 52 63t54 64q16 20 66 82q95 112 125 150 q21 24 67.5 80.5t71.5 85.5h-428q-12 0 -39 -0.5t-37.5 -0.5t-32 -1t-31 -2t-25.5 -2.5t-25.5 -4t-20 -6t-19.5 -8.5q-81 -46 -81 -172l6 -117q2 -18 2 -51q0 -96 -82 -96q-21 0 -37 8q-43 19 -43 80q0 23 2 48.5t5.5 57.5t4.5 49q2 20 2 60q0 33 -2 49q0 10 -1 30.5 t-1 30.5q0 1 -3 32.5t-3 47.5q0 51 27 78q17 17 34.5 23.5t41 6.5t59.5 -1h151h355q208 4 309 4q24 0 37.5 -1t34.5 -10t36 -26q27 -29 27 -70q0 -14 -3 -27t-11 -28.5t-14.5 -26.5t-24 -31.5t-28 -33t-37 -42.5t-42.5 -48q-64 -72 -131 -152q-47 -52 -116 -135 q-19 -22 -56.5 -67t-56.5 -66q-115 -137 -121 -145q-39 -49 -49 -60q-13 -17 -40 -48.5t-40 -47.5q-7 -7 -90 -107q-74 -90 -113 -135q65 1 194.5 1t194.5 1q33 0 99.5 2t99.5 2h15.5h18.5t18.5 0.5t20.5 1t19.5 2t21 4t19 5.5t19.5 7.5t17.5 10t16.5 12.5q25 23 34 50t9 77 q0 30 -6 91.5t-6 93.5q0 39 19 63q22 18 30 21q8 4 29 4q36 0 53 -12q31 -22 31 -86q0 -20 -3.5 -58t-4.5 -49q-4 -62 -4 -92q0 -41 4 -123q4 -40 4 -66q0 -57 -41 -86q-22 -18 -88 -18q-32 0 -95 2t-94 2q-94 4 -280 4q-4 0 -361 -6h-51q-141 0 -141 125z" />
<glyph unicode="[" horiz-adv-x="854" d="M268 -266q0 43 2 130.5t2 131.5q0 51 3.5 276t3.5 346q0 170 -9 676q-2 35 -2 107q0 55 11 82q21 51 92 57h69h80q201 0 242 2l12 2q13 1 26 0.5t25 -4.5q21 -6 35 -22t14 -37q0 -26 -17.5 -41t-31.5 -18t-24 -3t-22 1t-26.5 2.5t-23.5 2.5q-78 5 -96 5q-135 0 -170 -46 q-5 -6 -9 -13.5t-7 -17.5t-5.5 -17.5t-4 -21.5t-2 -22t-1.5 -26t-1 -25.5t-0.5 -29.5t-0.5 -31q-2 -51 -2 -154q-4 -300 -4 -448q0 -162 4 -482q0 -180 2 -268q2 -52 12 -76t39 -39q36 -20 113 -20t180 14h21q31 0 53.5 -18t21.5 -49q0 -23 -16 -39q-10 -10 -22 -15.5 t-30 -6.5t-31.5 -0.5t-41 2.5t-43.5 3q-41 1 -117.5 -0.5t-101.5 -1.5q-14 0 -46 -0.5t-42 0t-29.5 3.5t-31 10t-23.5 20q-18 19 -23.5 45t-5.5 74z" />
<glyph unicode="\" horiz-adv-x="724" d="M74 1446h121l469 -1483h-123z" />
<glyph unicode="]" horiz-adv-x="854" d="M14 -360q0 31 22 46t54 15q33 0 68 -6q3 0 39.5 -3t56.5 -3q46 0 102 10l8 3q9 2 18 5t21 10.5t21 16.5q8 9 14 22t9.5 30.5t6 32t3 35.5t0.5 32.5v30.5v22q4 118 4 176q0 71 2 211.5t2 210.5q0 243 -8 735q0 54 -4.5 77.5t-24.5 43.5q-1 0 -4 2.5t-8.5 6.5t-9.5 7 q-29 18 -121 18q-21 0 -129 -10q-40 -4 -64 -4q-19 0 -31 4q-45 19 -45 62q0 36 33 55q15 6 31 6q24 2 76 -2q7 0 20 0.5t23.5 0.5t19.5 -1q17 0 48 -1t46 -1q24 0 86.5 2.5t96.5 1.5q57 -2 88 -27q21 -18 29 -43t8 -69q0 -21 -1.5 -64.5t-1.5 -66.5q0 -24 -1 -72t-1 -72 q-4 -458 -4 -684q0 -288 6 -573q3 -65 3 -129q0 -6 1 -17.5t1 -17.5q0 -35 -13 -67q-18 -35 -51 -50q-12 -5 -31.5 -7t-35.5 -2t-51.5 0.5t-57.5 0.5q-143 0 -217 -2q-15 0 -42 -1t-40.5 -0.5t-22.5 3.5q-47 24 -47 60z" />
<glyph unicode="^" horiz-adv-x="1492" d="M319 717l369 729h129l357 -729h-156l-268 561l-275 -561h-156z" />
<glyph unicode="_" horiz-adv-x="1024" d="M-20 -301h1064v-121h-1064v121z" />
<glyph unicode="`" horiz-adv-x="724" d="M-61 1409q0 33 25.5 63t62.5 33q16 1 30.5 -2.5t31.5 -15t25 -17.5t30.5 -26.5t27.5 -24.5q22 -17 64 -55q20 -17 56.5 -48t53.5 -46q33 -29 33 -47q0 -25 -33 -25q-11 0 -49 14q-5 2 -14.5 6.5t-14.5 6.5q-25 9 -74 25.5t-73 25.5q-14 5 -43 16.5t-43 16.5l-12 4 t-12 4.5t-10 4.5t-10.5 5t-9.5 6t-10 8t-9 9.5t-9 11.5q-14 23 -14 47z" />
<glyph unicode="a" horiz-adv-x="1193" d="M78 289q0 115 70 191.5t190 105.5q35 9 76 14.5t90.5 11t77.5 9.5q92 13 133 36q33 19 48 48.5t15 82.5q0 78 -45 123q-58 54 -186 54q-109 0 -174 -47q-14 -10 -23.5 -23.5t-9.5 -20.5q1 -9 15.5 -22.5t17.5 -17.5q16 -26 16 -58q0 -46 -33 -72t-75 -26q-31 0 -62 14 q-69 35 -69 123q0 85 55 150q53 61 143.5 98t212.5 37q113 0 199 -37q35 -15 74 -47q46 -33 77 -96q21 -39 29 -84t8 -123q0 -50 -3 -152t-3 -153v-152q0 -80 16 -109q18 -34 60 -34q47 0 65 43q10 22 13 100q0 103 4 119q15 45 61 45q25 0 41.5 -10t22.5 -26t8 -26t2 -20 v-53v-32t-4 -70.5t-14 -69.5q-14 -44 -46 -76q-55 -51 -159 -51q-88 0 -146 39l-11 9q-11 8 -17 15q-28 30 -37 90q-36 -69 -109 -110q-98 -54 -235 -54q-106 0 -185 33q-29 10 -73 39q-48 35 -84.5 98t-36.5 144zM250 297q0 -39 8.5 -66.5t38.5 -52.5q27 -27 63 -41 q48 -16 105 -16q17 0 36.5 2t65 11.5t89 37.5t73.5 70q25 37 36 85.5t13 92t2 141.5q-36 -33 -71 -47q-13 -6 -25.5 -10.5t-28 -8t-25.5 -6t-29 -5.5t-25.5 -4t-28 -4t-25.5 -3q-41 -4 -123 -16q-149 -36 -149 -160z" />
<glyph unicode="b" horiz-adv-x="1193" d="M-2 1376q0 31 22.5 51.5t71.5 20.5q17 0 52.5 -4t54.5 -4q16 0 49 3t51 3q24 0 37 -10q11 -9 16 -19.5t5.5 -17t-0.5 -20.5t-1 -19q0 -9 1 -27t1 -26q0 -52 -4 -154q0 -143 -2 -213q103 158 314 158q82 0 155 -21q33 -11 51 -20q55 -30 58 -33q90 -62 148.5 -184.5 t58.5 -290.5q0 -181 -70 -324q-22 -44 -51 -82q-27 -37 -72 -73q-122 -103 -301 -103q-115 0 -199 47q-23 12 -55 37q-20 17 -32 33.5t-35 54.5q16 -58 16 -84q-1 -26 -16.5 -43t-30.5 -24q-12 -4 -25 -4q-40 0 -61 26q-7 8 -17 29q-4 24 -4 51q0 29 1 62t2.5 73t2.5 62 q0 101 3 200v246q0 46 -1.5 140t-1.5 141q0 121 -4 180q0 125 -51 125q-11 0 -33.5 -6t-35.5 -6q-35 1 -51.5 25.5t-16.5 43.5zM354 537q0 -123 10.5 -187t43.5 -121q30 -50 90 -85t143 -35q38 0 75.5 7.5t49.5 14.5q21 7 49 27q70 49 111 151q16 51 20 72q17 76 17 154 q0 130 -48 247q-47 110 -139 150q-50 22 -131 22l-10 -1q-10 -1 -16 -1.5t-19 -2.5t-23 -4.5t-25 -7.5t-27.5 -10.5t-27.5 -14.5t-28 -19q-47 -32 -72 -82q-25 -46 -34 -106t-9 -168z" />
<glyph unicode="c" horiz-adv-x="1024" d="M45 528q0 243 125 398q74 92 178 135q86 37 205 37q26 0 58 -3t99 -24t117 -59q31 -23 62 -68q57 -85 57 -168q0 -49 -14 -84q-12 -36 -48.5 -69t-92.5 -33q-68 0 -103 47q-20 24 -20 59q0 67 53 92q20 9 53 9q-1 17 -2.5 24t-10 24t-24.5 36q-65 77 -188 77 q-147 0 -240 -110q-90 -111 -90 -318q0 -252 125 -356q81 -68 197 -68q87 0 145.5 41.5t85.5 100.5q22 42 31 90q3 21 12 45q23 51 74 51q29 0 51 -18q31 -25 31 -66q0 -25 -4 -37q-2 -22 -19.5 -69.5t-48.5 -91.5q-56 -83 -147.5 -135t-221.5 -52q-156 0 -268 78 q-6 5 -17.5 12.5t-17.5 12.5q-65 52 -110 137q-27 52 -49.5 138t-22.5 185z" />
<glyph unicode="d" horiz-adv-x="1236" d="M94 539q0 186 72 323q23 49 57 88q128 150 342 150q172 0 273 -103q25 -27 45 -59v229q-3 97 -13 119q-16 35 -43 35h-6q-14 0 -47 -6.5t-53 -3.5q-34 4 -49 25t-15 40q4 74 99 74q3 0 78 -6q36 -4 53 -4t53 4q8 0 24.5 1t24.5 1h5.5t13 -1.5t17.5 -5t16.5 -11 t11.5 -17.5q2 -4 2 -27q0 -10 -1 -30.5t-1 -30.5q0 -62 -9 -260q-4 -222 -4 -338q0 -61 1 -182t1 -181q0 -11 0.5 -35t1 -34.5t1 -30t1 -29t2 -24t3 -23.5t4.5 -18t6 -16q13 -25 41 -25q4 0 12 1t12 1q58 10 68 10q39 0 56.5 -21t17.5 -46q0 -35 -25 -54q-23 -20 -69 -20 q-22 0 -67 5t-67 5q-14 0 -39 -3t-38 -3q-16 0 -31 6q-13 5 -24 22t-11 40q0 1 6 55q-8 -13 -17 -25.5t-17.5 -22t-19 -19t-19 -16t-19.5 -13t-17.5 -10.5t-16.5 -8.5t-14.5 -6t-12.5 -5t-9 -3.5q-81 -29 -170 -29q-155 0 -278 96q-33 25 -55 54q-144 160 -144 422zM270 532 q0 -126 47 -235q2 -7 9.5 -19t9.5 -16q20 -35 24.5 -41t24.5 -26l8 -8l7.5 -7.5t7 -6.5t8 -7t8 -6t10.5 -6.5l12 -6t15 -6.5q66 -28 137 -28q39 0 81 12t58 22q11 4 33 21q56 45 86 131q7 20 14 53q2 14 2 41q0 5 3.5 26.5t3.5 33.5q2 27 2 84q0 175 -29 249 q-37 83 -111 123q-68 43 -162 43h-20q-80 0 -149 -49q-43 -32 -76 -84q-30 -55 -45 -123q-19 -86 -19 -164z" />
<glyph unicode="e" horiz-adv-x="1110" d="M94 526q0 179 74 318q42 76 92 121q137 133 344 133q135 0 242 -64q70 -40 123 -108q38 -51 66 -130.5t28 -177.5v-45q0 -16 -6 -34q-5 -11 -16 -19t-15 -8q-12 -4 -102 -4h-656q0 -95 17.5 -154.5t52.5 -109.5q25 -41 57 -68q7 -6 19 -13t16 -9q72 -45 170 -45 q81 0 160 38l37 25q21 17 46 52t36 75q0 1 4 18t8 25q19 57 76 57q16 0 30 -6q50 -22 50 -78q0 -42 -27 -97.5t-43 -74.5q-12 -20 -37 -45q-86 -83 -217 -116q-86 -15 -139 -15q-97 0 -185 31q-124 45 -206 166q-99 151 -99 362zM287 655h606q0 29 -2 43l-1 6q-1 6 -3 13 t-4.5 17.5t-6.5 21.5t-9 24t-12 26.5t-14.5 26.5t-18 26t-21.5 24q-7 11 -39 32q-71 43 -166 43q-57 0 -104 -16q-39 -14 -89 -53t-81 -103q-24 -55 -35 -131z" />
<glyph unicode="f" horiz-adv-x="724" d="M14 70q0 32 20 51.5t52 19.5q28 0 53 -4q36 -8 47 -8q19 0 31 12q10 15 12 17q15 39 15 227q2 39 2 117q0 27 -0.5 77.5t-0.5 92t1 78.5v71v43v10v8.5v6.5t-0.5 5.5t-1.5 4t-3 4t-4.5 3t-5.5 3.5q-8 4 -19 5t-28 0t-18 -1h-39h-35q-24 4 -43.5 23t-19.5 57q0 23 12 39 q11 15 26 23t25.5 9t28.5 1h57q5 0 15.5 -1t15.5 -1q36 3 41 16q0 2 3 50.5t3 50.5q9 81 30.5 129t63.5 88q94 86 252 86q162 0 242 -80q51 -51 51 -119q0 -40 -21 -70q-9 -14 -30.5 -28t-50.5 -15q-22 0 -48 13q-29 15 -42 40.5t-13 45.5q0 11 3.5 20.5t9.5 19.5l6 9 q-24 35 -91 35q-40 0 -77 -11q-20 -5 -39 -15.5t-43 -38t-35 -66.5q-4 -14 -7.5 -46.5t-5 -55t-1.5 -27.5q0 -18 12 -25q5 -4 67 -4q15 0 44 0.5t42.5 0.5t30 -1.5t25.5 -5.5q17 -5 31 -24.5t14 -47.5q0 -23 -19 -51q-12 -12 -26 -17.5t-21.5 -6.5t-38 0t-45.5 1 q-32 -3 -61 0h-21q-24 0 -30 -14q-3 -4 -4 -46v-32q0 -35 1 -85q1 -76 1 -97v-315q0 -135 14 -166q12 -29 41 -29q3 0 45 6q48 6 49 6q40 0 60 -21t20 -44q0 -78 -106 -78q-12 0 -84 10q-82 8 -127 8q-24 0 -127 -10q-1 0 -35 -3t-51 -3q-42 0 -66 16q-31 22 -31 54z" />
<glyph unicode="g" horiz-adv-x="1067" d="M20 -70q0 139 117 211q18 10 80 37q-51 19 -86 41q-90 62 -90 166q0 52 27 97t57 67q37 24 88 39q-19 30 -28 46.5t-18 50.5t-9 75q0 70 22 123q27 67 92.5 123t171.5 79q52 13 107 13q19 0 121 -15q0 88 69 148q66 59 177 59q52 0 100 -14q46 -17 86.5 -59.5 t40.5 -112.5q0 -37 -12 -62q-10 -24 -35.5 -42.5t-59.5 -18.5q-45 1 -66.5 27.5t-21.5 52.5q1 23 12 38.5t35 33.5q-9 13 -14 16q-22 22 -72 22q-40 0 -69 -20q-22 -16 -32 -38t-9.5 -41.5t0.5 -39.5q58 -35 92 -84q68 -91 68 -207q0 -94 -50 -174q-21 -35 -43 -53 q-15 -19 -51 -43q-110 -72 -262 -72q-86 0 -168 29q-23 9 -46.5 20.5t-37 17t-29.5 5.5q-26 0 -51 -29q-22 -22 -22 -59q0 -64 65 -90q7 -3 14.5 -5.5t14 -4.5t16 -3t16 -2t18.5 -2t18.5 -1.5t21.5 -1t22 -0.5t26 -0.5t28 -0.5q49 -1 67 -1t74 -3t86.5 -8t82.5 -15t86.5 -24 t73 -36t66.5 -50q82 -82 82 -192q0 -104 -73 -183q-36 -40 -91 -71q-14 -9 -36 -18t-36.5 -14.5t-15.5 -6.5q-129 -39 -284 -39q-156 0 -271.5 37t-175.5 100q-76 80 -76 182zM190 -61q0 -23 7 -46t35.5 -54.5t76.5 -51.5q32 -13 96.5 -26t133.5 -13q75 0 151 12 q102 15 166 64q21 17 40 49t19 68q0 37 -23.5 72.5t-60.5 58.5q-56 33 -147 46q-69 10 -129 10q-19 0 -37 -1q-1 0 -76 -6q-34 -4 -53 -8q-6 -1 -14 -3t-17 -5.5t-14 -4.5q-70 -18 -111 -59q-43 -48 -43 -102zM326 743q0 -97 73 -151q62 -51 164 -51q127 0 189 82 q41 55 41 122q0 54 -23 99q-13 21 -25 35q-10 11 -34 32q-59 45 -158 45h-16q-87 -7 -140 -51q-71 -58 -71 -162z" />
<glyph unicode="h" horiz-adv-x="1323" d="M12 72q0 24 15 45q16 16 20 18q14 6 39 6q12 0 70 -10q16 -4 24 -4q27 0 41 25q6 10 9.5 30.5t6 56t3.5 61.5t2 77t2 74q0 38 1 112t1 111q0 302 -2 362l-6 148q-4 59 -9 80q-7 28 -17 41.5t-34 13.5q-15 0 -35 -4q-40 -8 -59 -8q-17 0 -27 4q-15 4 -30 20.5t-15 40.5 q0 34 24.5 55t74.5 21q22 0 68.5 -6t70.5 -6q17 0 53 4q24 6 47 6q17 0 33 -8q12 -7 18 -22.5t6.5 -23.5t0.5 -28q0 -30 -1 -91t-1 -91q-3 -76 -3 -154v-61q21 25 37 39q113 96 287 96q95 0 171.5 -33t123.5 -78q20 -19 31.5 -32.5t16 -20.5t13.5 -23q17 -30 26.5 -58.5 t13 -70t3.5 -68.5t-1 -95t-1 -109q0 -88 2 -133q0 -51 4 -145q0 -2 1.5 -16t2.5 -20t4 -19t7 -19.5t10 -15t15 -12t20 -3.5q15 0 42 5t40 5q31 0 50 -20t19 -49q0 -30 -22.5 -50t-69.5 -20q-17 0 -119 10q-58 4 -90 4q-41 0 -127 -8q-54 -8 -82 -8q-9 0 -20.5 2t-29 8.5 t-29 23.5t-11.5 42q0 12 7 26q9 18 28 28.5t37 10.5q15 0 46 -6t48 -6q10 0 18 3t13.5 9.5t9 12t6 15.5t3.5 15t2.5 16t1.5 13q0 5 1 17t1 18v55q0 25 1 78t1 78q0 135 -2 203q-3 107 -26 167t-79 93q-23 16 -41 20q-13 6 -43 10q-52 9 -65 9q-14 0 -91 -11 q-153 -38 -194 -184q-7 -28 -10 -61.5t-4 -57.5t-2 -98q-2 -61 -2 -187q0 -138 10 -184q8 -51 53 -51q15 0 43 8q2 0 19 3t28 3q35 0 54.5 -19t19.5 -52q0 -28 -19 -47q-28 -25 -75 -25q-18 0 -38 2t-44 5.5t-37 4.5q-78 4 -113 4q-51 0 -100 -6q-66 -8 -96 -8 q-35 0 -52.5 6.5t-31.5 24.5q-15 17 -15 41z" />
<glyph unicode="i" horiz-adv-x="598" d="M8 72q0 22 15 43q16 26 59 26q14 0 72 -10q20 -4 30 -4q7 0 13 1.5t10.5 3.5t8 6t6 7t4.5 7.5t3 7t2.5 7t1.5 5.5q4 15 5.5 33t2 31.5t0.5 45.5t1 54q2 39 2 119v133q-6 216 -6 219q-3 56 -13 86q0 3 -5 15.5t-11 17.5q-12 10 -35 10q-16 0 -46 -7t-46 -7q-35 0 -53.5 22 t-18.5 43q0 66 80 76q8 1 17 1q24 0 62 -4q52 -5 71 -5q33 0 47 4q6 1 16.5 2.5t19.5 2.5t17 1q4 0 8 -2q25 -2 43.5 -19t18.5 -53v-43q-4 -66 -4 -100q-3 -111 -3 -217q0 -156 3 -309q0 -140 18 -170q14 -25 45 -25q7 0 14 1.5t16 4.5t15 4q0 4 31 4q39 0 57.5 -22 t18.5 -45q0 -20 -13 -39q-23 -35 -90 -35q-19 0 -53 3.5t-45 4.5q-52 6 -105 6t-106 -6q-12 -1 -48 -4.5t-55 -3.5q-98 0 -98 72zM182 1284q2 18 11 41q9 25 36 48t64 26q8 1 16 1q37 0 70 -28q45 -32 45 -90q0 -26 -14 -57q-12 -25 -40.5 -44.5t-66.5 -19.5 q-52 0 -86.5 36.5t-34.5 86.5z" />
<glyph unicode="j" horiz-adv-x="555" d="M-262 -207q0 51 28 87t82 36q40 0 67.5 -25.5t27.5 -64.5q0 -20 -5.5 -32t-23.5 -38q12 -18 37 -28q39 -17 78 -17q80 0 133 41q12 9 22.5 20t18 21t13.5 26t10 27t7 32.5t4.5 33t3 38.5t1.5 39.5t1 45.5t1 47q2 66 2 201q0 50 -1 150.5t-1 150.5v184q-1 16 -2 47.5 t-2 46.5q-8 52 -23 68q-15 10 -39 10q-15 0 -45 -7t-47 -7q-14 0 -28.5 4.5t-30 21.5t-15.5 45q4 70 94 70q20 0 62 -5t63 -5q23 0 66.5 5t64.5 5q22 0 40 -15t18 -51q0 -23 -4 -63q0 -12 -1 -37t-1 -39q-1 -49 -5.5 -149t-5.5 -150v-39q0 -86 3 -220q4 -169 4 -243 q0 -215 -58 -313q-29 -47 -71 -82q-98 -80 -248 -80q-147 0 -230 72q-14 12 -32 37q-33 46 -33 98zM178 1284q0 50 32 84t81 37q50 0 80 -27q47 -37 47 -92q0 -54 -41 -90q-35 -31 -78 -31q-25 0 -53 11q-31 14 -49.5 45t-18.5 63z" />
<glyph unicode="k" horiz-adv-x="1280" d="M10 74q0 27 22 48t50 21q16 0 50 -7t50 -7q19 0 30.5 7t17.5 24t8 34t4 48q2 29 2 86q2 61 2 186v385q0 179 -8 318v9q-1 9 -1.5 12t-1.5 12.5t-2.5 13.5t-3.5 12.5t-5 13l-7 10.5t-9 9t-11.5 5.5t-14.5 2.5q-14 0 -41 -6q-46 -8 -55 -8q-44 0 -63 30q-11 15 -11 41 q0 35 31 56q22 14 68 14q21 0 60 -4t60 -4q20 0 56 4q48 6 51 6q29 0 45 -14q8 -8 12.5 -16.5t6 -22.5t2 -23t0 -31.5t-0.5 -33.5q0 -379 3 -760q27 24 143 135q78 74 201 192l7 7l7 7l6 6t5.5 6t4 5t3.5 5.5t2.5 5t2 5t0.5 5.5q0 16 -28 16q-13 0 -37 -4q-8 -1 -25.5 -3 t-25.5 -3q-24 -4 -35 -4q-36 0 -56 23t-20 42q0 30 22 54t68 24q20 0 42 -2t49 -5.5t42 -4.5q62 -6 127 -6q61 0 123 6q17 1 57.5 5.5t63.5 4.5q96 0 96 -76q0 -17 -12 -35q-19 -30 -61 -30q-16 0 -47 6t-46 6q-33 0 -67 -18q-8 -5 -21.5 -15t-32.5 -27t-36.5 -32.5 t-44.5 -40.5t-45 -41q-117 -111 -119 -113q42 -57 80 -106q6 -8 19.5 -23.5t19.5 -23.5q38 -51 61 -80q61 -83 129 -166q17 -18 66 -76q16 -18 23.5 -25t21.5 -15.5t28 -8.5q13 0 41 8l14 2q14 2 23 2q74 0 74 -69q0 -21 -12 -37q-23 -33 -84 -33q-19 0 -53.5 3.5t-43.5 4.5 q-58 6 -116 6q-39 0 -121 -8q-1 0 -32.5 -3t-47.5 -3q-37 0 -64.5 19.5t-27.5 56.5q0 26 22 45.5t47 19.5q13 0 41 -4q5 -1 35 -6q12 -4 19 -4q5 0 10 4t4 10q0 7 -12 25q-17 27 -54 75t-43 56q-123 164 -186 246q-14 -12 -192 -172q0 -74 2 -111q0 -32 6 -70q0 -20 8 -34 q15 -27 45 -27q12 0 38 6t40 6q32 0 53 -18t21 -51q0 -16 -13 -37q-23 -35 -86 -35q-30 0 -88 8q-68 6 -131 6q-55 0 -84 -4q-87 -10 -108 -10q-57 0 -80 29q-21 16 -21 45z" />
<glyph unicode="l" horiz-adv-x="598" d="M10 74q0 25 17.5 47t56.5 22q16 0 46.5 -7t45.5 -7q34 0 49 39q5 13 7.5 41.5t4 73t2.5 86t1.5 103t1.5 101.5q2 70 2 207v213q-1 22 -1.5 91.5t-2.5 105.5q-6 79 -14 97q-13 29 -48 30q-12 -1 -43.5 -7.5t-48.5 -6.5q-31 0 -52.5 18.5t-21.5 50.5q0 31 21 50t53 22 q7 0 16 1q26 0 66 -5q54 -6 76 -6q19 0 59 4q5 1 26 4.5t31 3.5q36 0 50 -19q10 -13 10 -36q0 -31 -3.5 -89.5t-4.5 -76.5q-1 -40 -2 -121t-2 -121q-5 -175 -5 -211v-166q0 -118 3 -241q0 -161 12 -201q14 -35 47 -35q14 0 43 6t45 6q39 0 55.5 -24t16.5 -45q0 -15 -7 -29 q-18 -43 -83 -43q-19 0 -41.5 2t-50 5.5t-42.5 4.5q-23 2 -69 2q-62 0 -123 -6q-5 0 -42.5 -3t-57.5 -3q-64 0 -86 31q-13 26 -13 41z" />
<glyph unicode="m" horiz-adv-x="1921" d="M16 70q0 16 7 30q9 18 27 28.5t36 10.5q11 0 35 -4q30 -4 41 -8q4 0 11 -1t11 -1q18 0 29 8t17 26.5t8 35.5t4 47q2 25 2 75v240q0 172 -2 256q0 35 -2 51l-2 10q-1 9 -4 18t-8.5 20t-16.5 17.5t-25 6.5q-14 -1 -45 -6.5t-49 -5.5q-72 0 -72 73q0 20 13 35q22 31 80 31 q21 0 60 -4t60 -4q15 0 42 3t42 3q19 0 29 -6q26 -11 35 -39q2 -8 2 -82q28 39 49 63q97 97 264 97q16 0 35.5 -2t62.5 -10t87.5 -31t76.5 -58q18 -20 37 -53q28 40 60 68q44 35 90 55q80 33 180 33q66 0 129 -17q73 -17 135 -61t94 -115q19 -42 27.5 -96t10 -99t1.5 -149 v-47q0 -1 1 -51t-1 -51v-65v-41v-26q0 -20 1 -50.5t4.5 -48t9.5 -29.5q14 -23 45 -23q3 0 39 6q1 0 21 3t32 3q14 0 26 -6q15 -4 30.5 -20.5t15.5 -40.5q0 -45 -43 -62q-3 -3 -23 -8q-10 -2 -31 -2t-57 4l-49 6q-25 2 -72 2q-71 0 -108 -4q-87 -10 -107 -10q-23 0 -37 4 q-22 4 -40.5 21.5t-18.5 50.5q0 25 19 44t57 19q12 0 36 -4q20 -4 33 -4q49 0 49 76q0 22 3 61t4 49q0 25 1 74t1 74q0 34 -5 209q-1 35 -2 53.5t-6.5 51.5t-15.5 54.5t-29 46t-47 42.5q-68 41 -143 41q-79 0 -142 -41q-65 -45 -88 -123q-9 -30 -14 -83t-5.5 -99.5 t-0.5 -145.5q0 -160 4 -238q2 -34 5.5 -52.5t15.5 -34t32 -15.5q11 0 27 4q32 4 51 4q30 0 50 -18.5t20 -48.5q0 -19 -12 -35t-22.5 -22t-19.5 -9q-16 -4 -32 -4q-24 0 -74 4l-49 6q-23 2 -68 2q-57 0 -112 -6q-10 -1 -42.5 -4.5t-50.5 -3.5q-42 0 -69 14q-31 19 -31 54 q0 29 16 46t30.5 21t27.5 4t40 -5t42 -5q40 0 47 43q6 40 10 111v112q0 26 1 79.5t1 80.5q0 62 -4 184q-3 56 -13 87t-34 59q-26 26 -39 35q-57 38 -129 38q-78 0 -141 -34q-33 -18 -67.5 -55.5t-51.5 -90.5q-11 -47 -14 -143q-2 -43 -2 -127v-199q0 -73 4 -110 q0 -25 10 -45q2 -7 13.5 -16t27.5 -9q4 0 13.5 2.5t17.5 3.5q18 4 30 4q40 0 57 -22.5t17 -44.5q0 -19 -6 -31q-17 -41 -88 -41q-33 0 -99 8q-70 4 -102 4q-55 0 -108 -6q-81 -6 -82 -6q-60 0 -84 35q-11 22 -11 37z" />
<glyph unicode="n" horiz-adv-x="1323" d="M16 991q0 21 13 41q22 31 80 31q17 0 52 -3t54 -3q8 0 24.5 1t24.5 1q54 6 60 6q10 0 22 -4q39 -12 39 -66v-57q18 30 49 55q33 30 70 49q105 54 215 54q115 0 207 -45q36 -18 61 -33q36 -26 72 -71t51 -103q6 -24 9 -54.5t3.5 -50.5t1 -77t0.5 -84v-230q0 -92 4 -137 q3 -36 13 -57q4 -9 16 -18t29 -9q23 0 35 6q56 8 57 8q26 0 48 -19t22 -46q0 -23 -11 -43q-20 -33 -88 -33q-18 0 -51 3.5t-45 4.5q-55 6 -115 6q-38 0 -112 -8q-12 -1 -45 -4.5t-50 -3.5q-35 0 -63.5 20.5t-28.5 55.5q1 27 18 43t32 20t28 4q14 0 43.5 -7t46.5 -7 q21 0 35 16q8 8 8 15q11 23 15 200v277q0 90 -9 145q-20 92 -90 138q-66 43 -161 43h-14t-29.5 -3t-42 -8t-47.5 -16.5t-50.5 -27t-45.5 -41t-38 -56.5q-11 -22 -17.5 -45.5t-9.5 -51.5t-3.5 -46t-1 -51.5t-0.5 -45.5q0 -34 -1.5 -101.5t-1.5 -102.5q3 -55 3 -111 q0 -68 14 -100q15 -27 47 -27q11 0 31 4q52 10 61 10q30 0 50 -19t20 -48q0 -27 -19 -49q-28 -25 -78 -25q-16 0 -104 10q-66 4 -100 4q-68 0 -146 -10q-9 -1 -23.5 -2.5t-26.5 -2.5t-23 -1q-21 0 -33 4q-9 3 -20 9.5t-23.5 22t-12.5 34.5q0 20 9 36q6 13 21.5 24t39.5 11 q14 0 43 -6t45 -6q30 0 41 14q23 27 23 123q2 47 2 142q0 30 1 90t1 90q0 33 -1 98.5t-1 99.5q0 92 -13 119q-19 37 -49 37q-2 0 -32 -6q-40 -8 -64 -8q-22 0 -31 4q-39 22 -39 61z" />
<glyph unicode="o" horiz-adv-x="1150" d="M94 530q0 151 51 271q37 73 64 110q57 75 151 130t222 59q12 1 26 1t30 -1q32 -2 91 -15t107 -38q113 -59 185.5 -188.5t72.5 -321.5q0 -253 -127 -402q-18 -24 -39 -45q-28 -26 -86 -61q-117 -62 -254 -62q-181 0 -303 101q-7 7 -27 22q-2 2 -5.5 6.5t-6.5 7.5 q-22 22 -25 27q-127 150 -127 399zM272 539q0 -162 56 -269q42 -75 90 -106q23 -19 61 -35q60 -18 119 -18q118 0 197 69q123 111 123 377q0 190 -89 301q-5 14 -34 39q-35 31 -84 47q-46 15 -74 14h-3q-28 -1 -44 0q-18 0 -45 -4t-79 -28t-89 -64q-46 -48 -75.5 -131 t-29.5 -192z" />
<glyph unicode="p" horiz-adv-x="1236" d="M0 -301q0 40 24 56t46 16q17 0 49 -7.5t47 -7.5q6 0 19.5 6t21.5 19q20 39 20 223q1 31 2 94.5t2 94.5q0 63 1 191.5t1 193.5q0 141 -2 213q-3 96 -16 122q-10 25 -41 25q-5 0 -14.5 -1t-14.5 -1q-50 -10 -63 -10q-14 0 -28 4.5t-28 21.5t-14 45q0 13 8 33q20 35 86 35 q20 0 58 -4t57 -4q20 0 70 4q28 4 45 4q27 0 42 -16.5t15 -42.5q0 -8 -6 -68q32 47 66 78q40 35 108.5 59.5t155.5 24.5q103 0 184 -33q34 -11 84 -49q41 -28 88 -88q107 -153 107 -377q0 -63 -9 -121q-2 -14 -4 -26.5t-9.5 -50.5t-22.5 -73t-36.5 -77.5t-56.5 -82 t-79 -69.5q-117 -80 -273 -80q-106 0 -192 43q-28 12 -54 31q-24 19 -55 53q0 -197 2 -237q4 -70 23 -91q15 -17 39 -16q12 0 32 4q45 9 64 9q10 0 16 -2q18 -6 33.5 -23t15.5 -43q0 -17 -8 -33q-24 -41 -88 -41q-9 0 -100 11q-56 6 -107 6q-63 0 -127 -6q-80 -11 -88 -11 q-31 0 -65 17q-31 21 -31 55zM397 510q0 -39 4 -113q0 -10 5 -55q28 -142 147 -203q55 -26 135 -26q86 0 150 34q168 91 168 400q0 148 -48 250q-15 33 -32 57q-78 104 -222 104h-8q-23 0 -73 -8q-80 -20 -140 -82q-35 -41 -47 -67q-39 -79 -39 -291z" />
<glyph unicode="q" horiz-adv-x="1110" d="M96 551q0 225 109 381q57 76 137 119q96 49 225 49q146 0 246 -66q28 -20 41 -33q7 -6 13.5 -11.5t9.5 -8t6.5 -6.5t7.5 -9t10 -14l-1 8q-1 8 -1.5 18t0 22.5t3.5 25.5t9 23q19 36 64 36q16 0 35 -12q34 -22 34 -90q0 -19 -1 -56t-1 -55q-4 -242 -4 -362q0 -72 2 -215 t2 -215q4 -177 13 -248q5 -40 16.5 -57t38.5 -17q16 0 45 6.5t45 6.5q47 0 66 -31q8 -12 8 -39q0 -24 -19 -43q-15 -17 -30 -22t-47 -5q-21 0 -59 4t-50 5q-49 6 -98 6q-56 0 -142 -11q-3 0 -35 -3t-49 -3q-16 0 -36 4q-18 5 -35.5 22t-16.5 48q0 15 5 27q23 41 67 41 q17 0 48 -7.5t46 -7.5q36 0 45 39q7 22 11 92q0 20 1 62.5t1 62.5q0 14 -1 42t-1 42l-41 -41q-102 -82 -258 -82q-162 0 -287 95q-70 62 -111 129q-86 140 -86 354zM274 580q0 -25 2.5 -65.5t18.5 -121.5t43 -131q23 -41 43 -59q40 -40 78 -56q65 -26 129 -26q155 0 233 117 q32 44 42.5 102t10.5 166q0 103 -8 184q0 1 -2.5 16.5t-5.5 28.5t-9 33t-17 40.5t-25 39.5q-44 54 -102 82q-56 29 -129 29q-11 0 -23 -1q-12 0 -32 -3t-56.5 -16t-63.5 -34q-39 -29 -65.5 -71.5t-39 -90t-17.5 -86t-5 -77.5z" />
<glyph unicode="r" horiz-adv-x="980" d="M14 993q0 17 11 35q23 37 81 37q21 0 65 -3t67 -3q14 0 42 3t42 3q20 0 36 -12q6 -5 10.5 -10.5t7 -13t4.5 -11.5t2.5 -15.5t0.5 -15.5v-19v-20q41 63 90 94q86 56 205 56q103 0 184 -47q30 -17 41 -27q105 -83 105 -231q0 -112 -72 -170q-37 -35 -90 -35q-72 0 -103 43 q-22 26 -22 57q0 44 29 67t55 23q1 0 31 -6q8 27 8 45q0 59 -48 102.5t-139 43.5q-123 0 -192 -97q-13 -19 -23 -41t-16 -48.5t-10 -46.5t-6 -51.5t-2.5 -46.5t-1 -48.5t-0.5 -40.5q0 -15 -1.5 -43t-1.5 -43v-68q0 -69 7 -162q1 -21 2.5 -31.5t7 -30t18 -29t31.5 -9.5 q15 0 46 7t46 7q21 0 37 -8q35 -17 35 -59q0 -26 -12.5 -42.5t-32 -22.5t-29.5 -7.5t-20 -1.5q-17 0 -50 3.5t-45 4.5q-62 6 -122 6q-45 0 -127 -8q-54 -8 -80 -8q-58 0 -80 31q-17 20 -17 43q0 38 25 53.5t47 15.5q24 0 64 -8q18 -4 30 -4q40 0 49 39q11 32 11 125v141 q2 23 2 68q0 86 -4 258q-7 124 -15 143q-14 35 -47 35q-16 0 -46 -6t-46 -6q-45 0 -65 32q-9 18 -9 35z" />
<glyph unicode="s" horiz-adv-x="1024" d="M82 369q0 51 35 71q17 11 41 11q32 0 51 -31q9 -14 12.5 -32.5t3.5 -49.5v-35q2 -22 6.5 -39t17.5 -40.5t41 -45t70 -39.5q82 -37 175 -37q85 0 149 29q55 21 82 66q29 46 29 100q0 40 -27 76q-21 29 -64 47.5t-83.5 26t-117.5 18.5q-6 1 -10 1.5t-9.5 1t-10.5 1.5 q-79 9 -154 35q-50 19 -75 33q-127 78 -127 233q0 80 39 150q44 83 138 135q92 51 221 51h5q113 0 191 -41q11 -6 51 -33v6q-1 5 -1 10t1 12.5t4.5 15.5t9.5 16q4 6 8.5 11t9.5 7.5l9 4.5t8.5 2.5t7.5 0.5h7h5q15 0 23 -2q16 -5 31.5 -26t15.5 -48q0 -3 -6 -51 q-10 -87 -10 -104q0 -25 8 -73t8 -71q0 -14 -2 -20q-15 -57 -70 -57q-23 0 -39.5 13t-23.5 26q-6 12 -6 45v38q-1 40 -21 74.5t-43 52.5q-18 13 -30 19q-68 35 -156 35q-103 0 -168 -60q-55 -48 -55 -125q0 -66 45 -102q43 -38 176 -57q149 -21 209 -35q96 -25 155 -80 q17 -16 27 -26.5t24 -34t23 -52.5q15 -54 15 -96q0 -57 -26 -121.5t-79 -111.5q-47 -44 -130 -75.5t-185 -31.5q-140 0 -246 57q-18 9 -33 21q-8 5 -31 24q3 -21 3 -38q0 -25 -7 -41q-6 -14 -24 -27.5t-41 -13.5q-27 0 -52.5 21.5t-25.5 66.5q0 3 6 57q1 14 4.5 38.5 t5.5 44.5t2 38q0 17 -2.5 35t-7.5 43.5t-6 34.5q-4 32 -4 47z" />
<glyph unicode="t" horiz-adv-x="768" d="M-2 983q0 38 25 59q19 19 32 19q8 2 78 2h21q34 0 32 41q0 24 1 56t1 48q0 19 -1 50t-1 44.5t2.5 30.5t8.5 29q21 43 73 43q4 0 11.5 -1.5t20.5 -6t24.5 -15t17.5 -26.5q4 -15 4 -125v-109q0 -46 11 -54q8 -5 57 -5q100 0 149 2q76 0 97 -12q36 -20 36 -66q0 -28 -15 -46 t-34 -26q-15 -5 -33.5 -5.5t-57.5 0.5t-62 1q-16 0 -43 -1t-43 -1q-46 0 -56 -7q-11 -9 -8 -30q0 -66 1 -199t1 -200q-1 -36 -1 -68q0 -76 5 -137q6 -43 15.5 -65.5t31.5 -42.5q37 -37 103 -37q53 0 94 33l5 4l10.5 10.5l9.5 9.5q7 12 12.5 26.5t9 35.5t4.5 31.5t3.5 36 t2.5 26.5q4 70 4 102q0 51 31 74q16 12 41 12q24 0 40 -8.5t24 -19t12.5 -30t5 -31.5t0.5 -34q0 -109 -25 -202q-21 -87 -73 -136q-15 -16 -31.5 -27.5t-27 -16.5t-23 -10.5t-15.5 -6.5q-68 -20 -122 -20q-185 0 -263 110q-26 36 -38 86q-15 57 -15 283q0 121 2 182 q0 23 1 69t1 68v78q4 35 -6 45q-3 3 -9 4.5t-15 2t-16.5 0.5t-20.5 -0.5t-21 -0.5q-58 0 -80 29q-16 19 -16 45z" />
<glyph unicode="u" horiz-adv-x="1280" d="M-4 991q0 17 8 33q18 41 82 41q20 0 62 -4t63 -4q17 0 63 4q28 4 48 4q5 0 12 -1.5t12 -3t6 -1.5q31 -16 31 -68q0 -3 -6 -207q-4 -148 -4 -223q0 -25 1 -54t2.5 -64.5t2.5 -55.5q3 -82 15.5 -124t45.5 -81q27 -28 56 -44.5t82 -24.5q36 -4 55 -4q82 0 149 32 q30 15 63 48.5t52 86.5q21 60 23 162q2 49 2 150v86q0 96 -2 145q-3 65 -15 88q-14 23 -47 23q-9 0 -27 -4t-28 -4q-40 1 -57 24t-17 47q0 19 10 35q9 15 23 23t23.5 9t27.5 1q19 0 57 -3t58 -3q21 0 61 4q32 4 47 4q23 0 37 -10q25 -15 25 -70q0 -19 -4 -65 q-1 -18 -3.5 -49.5t-3.5 -45.5q-2 -39 -2 -233q0 -30 -1 -93.5t-1 -97.5q0 -158 13 -225q8 -47 48 -47h3q8 0 18 1.5t17 3.5l8 1q18 6 49 6t51.5 -16.5t20.5 -48.5q0 -33 -21 -51q-28 -25 -86 -25q-19 0 -54 5t-52 5t-45 -4q-42 -6 -45 -6q-28 0 -48 18t-20 47q2 20 2 62 q-2 -4 -19 -23.5t-30 -31.5q-99 -103 -275 -103q-170 0 -276 78q-5 5 -16.5 14.5t-16.5 14.5q-43 43 -63 90q-31 79 -31 223v250l-6 129q0 12 -0.5 34.5t-1 30.5t-1.5 21t-3 22t-6 19q0 2 -6 15t-11 18q-10 10 -30 10q-5 0 -12 -1t-15.5 -2.5t-13.5 -2.5q-24 -4 -37 -4 q-48 0 -66 32q-10 17 -10 33z" />
<glyph unicode="v" horiz-adv-x="1280" d="M-2 995q0 21 12 37q15 22 35 27.5t51 5.5q37 0 115 -8q29 -4 86 -4q49 0 74 2q16 1 44.5 4.5t51.5 5.5t43 2q47 0 67.5 -23t20.5 -53q0 -22 -10 -36.5t-25.5 -20t-24.5 -7t-16 -1.5q-3 0 -61 8q-17 4 -27 4q-19 0 -29 -11t-10 -22q0 -16 76 -223q17 -48 53 -145.5 t54 -145.5q48 -132 92 -239q17 43 22 59q17 48 41 121q64 173 78 211q14 36 40 108.5t44 118.5q37 93 37 125q0 8 -2.5 16.5t-13.5 17.5t-29 9q-3 0 -41 -6l-10 -2q-11 -2 -25 -4t-23 -2q-12 0 -24 4q-20 6 -33.5 24.5t-13.5 38.5q0 34 24.5 54t61.5 20q16 0 108 -10 q47 -6 90 -6q23 0 146 10q75 6 76 6h11.5t22.5 -3.5t29.5 -10t22 -22t10.5 -36.5q0 -27 -19 -49q-22 -18 -51 -18q-13 0 -41 5t-41 5q-12 0 -21.5 -4.5t-17.5 -16t-12 -17.5t-11 -21.5t-7 -16.5q-6 -14 -88 -223l-111 -277q-10 -26 -94 -247q-2 -6 -7.5 -19t-7.5 -17.5 t-6.5 -14t-6.5 -13.5t-6 -11t-7.5 -11t-8.5 -9l-10 -10q-37 -35 -83 -35q-67 0 -107 58q-8 12 -16.5 28.5t-14 29t-18 43t-19.5 48.5q-15 39 -49 131.5t-53 141.5q-35 92 -109 276l-18 48l-18 48q-2 5 -6 16t-5 14t-4 10t-4 9.5t-3.5 7.5t-4.5 8.5t-5 8l-7 10.5 q-19 29 -47 29q-3 0 -39 -6l-9 -2q-8 -1 -19 -2.5t-19 -1.5q-31 0 -50.5 19t-19.5 50z" />
<glyph unicode="w" horiz-adv-x="1705" d="M-2 989q0 35 25.5 54.5t62.5 19.5q48 0 100 -6q62 -8 93 -8q67 0 135 6q16 1 55 5.5t61 4.5q62 0 84 -33q13 -20 13 -41q0 -26 -17 -43q-22 -24 -63 -24q-20 0 -66 8q-28 4 -43 4q-16 0 -24 -4q-10 -5 -19.5 -20.5t-9.5 -32.5q0 -16 33 -156q9 -39 26.5 -110t24.5 -103 q11 -47 40.5 -175.5t47.5 -205.5q16 75 48.5 225.5t49.5 225.5q58 256 72 311q3 13 8.5 35.5t8 32.5t7 22.5t9.5 22.5q28 48 80 65q12 2 34 2q47 0 76 -22q21 -16 34 -41.5t19 -47t19 -77.5q5 -24 15.5 -72.5t15.5 -71.5q18 -78 48 -222.5t38 -184.5q7 -36 47 -211l92 387 q50 220 59 264q21 96 21 111q0 37 -29 49q-12 4 -22 4q-18 -2 -58 -10q-28 -4 -47 -4q-33 0 -55 12q-14 9 -23.5 26t-9.5 31q0 15 8 31q20 41 88 41q26 0 138 -10q58 -4 88 -4q50 0 100 6q78 8 115 8q48 0 70 -22.5t22 -51.5q0 -32 -21 -48.5t-53 -16.5q-15 0 -33 4 q-14 4 -32 4q-43 0 -64 -47q-12 -24 -41 -127q-15 -45 -33 -113q-21 -78 -64 -246.5t-67 -255.5q-23 -85 -49 -120q-40 -50 -104 -50q-23 0 -41 4.5t-42.5 26.5t-43.5 62q-7 17 -12 32.5t-7 26t-7.5 38t-10.5 50.5q-6 32 -20 93t-17 73q-6 28 -17.5 86t-17.5 86 q-32 141 -74 352q-14 -65 -35 -166t-28 -135q-38 -168 -43 -188q-9 -49 -41 -187q-4 -17 -14.5 -52.5t-14.5 -53.5q-7 -29 -12.5 -45.5t-21.5 -42t-39 -39.5q-33 -23 -70 -23q-61 2 -104 56q-21 31 -43 110q-18 60 -44 158q-12 43 -88 346q-51 192 -63 231q-10 34 -23.5 48 t-33.5 14q-12 0 -39 -6q-30 -6 -41 -6q-48 0 -68 36q-8 14 -8 31z" />
<glyph unicode="x" horiz-adv-x="1280" d="M-2 74q0 25 18.5 47t57.5 22q20 0 43 -6q36 -8 39 -8q28 0 49 21q24 19 170 186q11 14 33.5 38.5t31.5 35.5l37 43q2 2 26 29t36 42q0 1 4 5.5t7 10.5t3 11q-1 6 -4 11t-5.5 8.5t-11.5 12.5t-14 15q-12 12 -26 33q-55 61 -154 176q-7 8 -21.5 25.5t-21.5 25.5 q-6 8 -21 23q-4 4 -14 15.5t-15 16.5t-14 12t-17.5 10t-18.5 3q-11 0 -31 -4q-36 -8 -58 -8q-49 0 -65 30q-12 16 -12 37q0 25 20.5 48t61.5 24h16q34 0 86 -6q53 -6 104 -6q41 0 123 8q81 6 82 6q48 0 70 -21.5t22 -52.5q0 -33 -22 -50t-53 -17q-19 0 -39 4q-6 1 -11.5 3 t-9 3t-7.5 1.5t-7 0.5q-16 0 -16 -12q0 -3 26 -33q21 -24 47 -57q17 -20 51 -59t52 -58q31 -39 41 -39q13 2 32 27q4 4 12.5 13t12.5 13q6 7 17.5 20.5t17.5 20.5q45 50 53 60q38 43 51 59q25 33 25 37q0 8 -19 8q-4 0 -28 -8q-16 -4 -39 -4q-19 0 -33 4q-18 6 -31.5 26 t-13.5 41q0 13 10 33q22 37 86 37q12 0 25 -1t28.5 -2.5t24.5 -2.5q86 -8 131 -8q28 0 82 4q92 10 113 10q51 0 73.5 -22t22.5 -54q0 -24 -12 -39q-20 -26 -60 -26q-16 0 -49 6t-51 6q-31 0 -66 -25q-10 -7 -18.5 -14.5t-21 -21t-18.5 -20t-26.5 -30.5t-29.5 -34 q-17 -20 -52 -59t-53 -60q-20 -22 -55 -66q-5 -6 -12.5 -13.5l-11 -11t-7 -8t-5 -8.5t-1.5 -8q1 -5 2.5 -9t5.5 -9.5t7.5 -9.5t11 -12.5t12.5 -14.5q41 -52 59 -72q85 -99 154 -176q27 -35 45 -55q36 -43 55.5 -56.5t46.5 -13.5q13 0 40 6t40 6q22 0 47 -16t25 -53 q0 -72 -96 -72q-35 0 -72 6q-78 8 -121 8q-60 0 -119 -6q-70 -8 -102 -8q-63 0 -84 33q-12 36 -12 41q0 23 19 45t57 22q14 0 39 -5.5t36 -6.5q3 0 9.5 -1t9.5 -1q7 0 15.5 4.5t8.5 9.5q-3 12 -30 39q-11 15 -37 45q-8 10 -25.5 30t-25.5 30q-17 19 -47.5 55t-45.5 53 q-30 37 -41 35q-8 0 -12 -4q-12 -8 -62 -66t-61 -73q-12 -14 -45 -51t-51 -58q-3 -4 -9.5 -11.5t-10 -13.5t-3.5 -10q0 -6 9.5 -10t17.5 -4q3 0 33 6q8 1 24.5 2t24.5 2q4 0 13 1t14 1q30 0 49.5 -21t19.5 -50q0 -19 -10 -33q-22 -37 -88 -37q-30 0 -96 8q-70 8 -105 8 q-45 0 -131 -8q-54 -8 -84 -8q-59 0 -82 33q-14 21 -14 41z" />
<glyph unicode="y" horiz-adv-x="1280" d="M-35 -195q0 33 8 54q10 30 28.5 50.5t40 28.5t35 10.5t25.5 2.5q39 0 72 -23q41 -29 41 -80q0 -47 -37 -73q-12 -9 -24 -13q12 -16 20 -22q34 -27 105 -27q73 0 145 45q31 17 49 39q25 25 45 60q29 46 37 71t8 54q0 61 -49 178l-43 110q-27 72 -85 214.5t-85 213.5 q-42 111 -65 160q-20 45 -35 61.5t-41 16.5q-14 0 -44 -7t-46 -7q-19 2 -27 4q-45 20 -45 65q0 33 20 49q28 25 84 25q28 0 78 -8q62 -6 123 -6q55 0 111 6q87 10 104 10q37 0 64.5 -16.5t27.5 -55.5q0 -26 -18 -47.5t-60 -21.5q-19 0 -65 8q-4 0 -11.5 1t-11.5 1 q-10 0 -18 -7t-8 -16t12 -45q14 -43 53 -155q10 -27 30 -81.5t30 -82.5q45 -123 78 -221q24 -74 57 -185q29 101 53 166q9 27 32 87.5t34 92.5q45 119 114 314q5 13 11.5 31.5t10 28t6.5 21t3 19.5q0 14 -10 22.5t-18 10.5t-15 2q-3 0 -33 -6q-40 -8 -61 -8q-13 0 -25 4 q-43 19 -43 67q0 17 8 33q19 37 86 37q20 0 55.5 -3.5t47.5 -4.5q43 -6 84 -6t115 8q47 6 90 6q47 0 70.5 -21t23.5 -49q0 -22 -17 -45.5t-55 -23.5q-7 0 -39 4q-24 6 -32 6q-13 0 -19 -4q-12 -7 -22.5 -22.5t-16.5 -28t-18 -41.5q-48 -118 -137.5 -351.5t-137.5 -351.5 q-65 -158 -101 -231.5t-83 -134.5q-44 -63 -111 -113q-114 -84 -249 -84q-90 0 -164 31q-36 15 -60 33q-90 72 -90 167z" />
<glyph unicode="z" horiz-adv-x="1067" d="M51 111q0 27 14 55.5t26.5 43t41.5 44.5q7 7 24 25t25 26q6 6 17.5 16.5t17.5 16.5t18 19t17 18q10 8 33 31q16 16 24 26q7 7 21 20t20 19q7 7 42.5 41.5t56.5 56.5q2 2 13.5 14.5t18.5 18.5q18 20 60 62q15 15 37.5 38.5t33.5 34.5q3 3 7.5 7t7.5 7t6 7q5 4 15 14.5 t14 13.5q15 13 39 39.5t40 42.5q34 34 52 54q-288 0 -431 -2q-33 0 -53 -1.5t-41.5 -6.5t-32 -17t-10.5 -31q0 -15 8 -47q1 -8 3.5 -23.5t3.5 -23.5q2 -12 2 -37q0 -54 -27 -78q-16 -14 -45 -14q-28 0 -49 21t-21 67q0 21 4 57q5 68 5 78q0 16 -5 66q-8 40 -8 61q0 32 19 51 q8 8 17.5 13.5t21.5 7.5t18 2q3 0 8.5 0.5t13.5 -0.5h19q20 -2 63 -2q37 0 111.5 -1t112.5 -1q47 0 141 1t141 1q51 3 94 3q8 0 14 -1q48 0 68 -12q50 -28 50 -82q0 -32 -21 -66q-6 -10 -16 -22t-27.5 -30t-33 -33.5t-44 -43.5t-47.5 -47q-18 -20 -61 -63q-12 -12 -30.5 -30 t-31.5 -31t-24 -25q-4 -6 -17 -19q-14 -14 -22 -20q-9 -9 -17 -21q-3 -3 -9.5 -8.5t-10.5 -9.5q-31 -28 -59 -60q-18 -17 -53.5 -52t-53.5 -52q-27 -31 -51 -51q-11 -11 -58.5 -61t-78.5 -79h385q184 0 221 17q26 12 26 43q0 1 -6 106q-4 50 -4 74q0 53 27 78q16 16 43 16 q74 0 74 -86q0 -16 -3.5 -43t-3.5 -33q-4 -62 -4 -96q0 -42 2 -65q0 -5 3.5 -30t3.5 -40q0 -40 -21 -61q-9 -10 -19.5 -16t-23 -8.5t-19.5 -2.5h-9h-14h-19q-9 0 -27.5 1t-26.5 1h-561q-31 -2 -57 -2q-22 0 -41 2q-42 2 -64 14q-53 31 -53 95z" />
<glyph unicode="{" horiz-adv-x="724" d="M172 506v10q57 14 88 53q13 16 22.5 39.5t14.5 44.5t8 54t4 49.5t1.5 51t0.5 40.5v346q2 87 21 152.5t71 113.5q42 37 91 51q27 9 147 21v-12q-56 -15 -90.5 -33t-61.5 -57q-9 -14 -16.5 -29.5t-12 -28.5t-8 -32.5t-5 -30.5t-2.5 -34t-1 -31v-33.5v-30.5v-203 q0 -143 -4 -215q0 -112 -45 -176q-35 -52 -112 -78q61 -20 96 -55q14 -14 24 -31.5t17 -32.5t12 -41t7.5 -41.5t4 -51.5t1.5 -53.5t0.5 -65.5t0.5 -70v-228q0 -92 6 -136.5t25 -84.5q25 -52 61.5 -75t102.5 -44v-10q-12 1 -33.5 3t-32.5 3q-120 8 -186 76q-12 12 -21.5 27 t-17 27.5t-13.5 32t-9.5 30.5t-6.5 34t-4.5 32.5t-3 35t-1.5 32t-0.5 34t-0.5 30.5v334q0 51 -1.5 80t-13 71.5t-34.5 73.5q-35 45 -90 62z" />
<glyph unicode="|" horiz-adv-x="468" d="M174 -512v2044h121v-2044h-121z" />
<glyph unicode="}" horiz-adv-x="724" d="M84 -502q54 14 89.5 33t62.5 57q9 13 16.5 29t12 29t8 33t5 31t2.5 34t1 31v33v30v205q0 143 4 215q4 116 45 176q35 50 112 76q-61 20 -94 57q-14 14 -24.5 31.5t-18 32t-12.5 40.5t-7.5 41t-4 51.5t-1.5 53.5t-0.5 65.5t-0.5 69.5v312l-1 10q0 11 -0.5 16.5t-2.5 19 t-4 23t-6 24.5t-8.5 26t-11.5 25t-15.5 25.5t-20.5 23t-25 20.5q-32 23 -100 43v12q10 -1 31.5 -3t31.5 -3q1 0 14 -1.5t20 -2.5t22.5 -4t26.5 -7t27.5 -10.5t29.5 -14t27.5 -19t27.5 -25.5q27 -30 43 -65.5t21.5 -86.5t6.5 -73.5t1 -83.5v-332q0 -52 1.5 -80.5t13 -71.5 t34.5 -74q30 -39 90 -63v-10q-60 -17 -88 -51q-10 -12 -18 -29t-13 -31.5t-8.5 -38.5t-5.5 -37.5t-3 -41.5t-1 -36.5v-37v-29.5v-258q-2 -31 -2 -88q-2 -86 -21 -151t-71 -113q-29 -28 -91 -54q-38 -12 -147 -18v10z" />
<glyph unicode="~" horiz-adv-x="1492" d="M274 582q47 67 87 100q75 61 167 61q38 0 82 -12t72.5 -24t75.5 -35l67 -31q6 -2 19 -8t17 -7.5t14.5 -6t14 -5.5t11.5 -4t12 -4t10.5 -2.5t11.5 -2t11 -1t12 -0.5q59 1 103.5 35t93.5 94l64 -113q-70 -88 -133.5 -122.5t-129.5 -34.5q-41 0 -80 13t-118 50l-60 29 q-102 51 -170 51q-17 0 -33 -3.5t-28 -7.5t-26 -14.5t-21.5 -15.5t-21.5 -21.5t-18.5 -21.5t-19.5 -25l-18 -24z" />
<glyph unicode="&#xa1;" horiz-adv-x="598" d="M141 1339q0 25 6 43q12 30 41 57t74 31q61 0 100 -34q25 -22 34.5 -52t9.5 -47q0 -55 -37 -92q-41 -41 -99 -41q-24 0 -49 10q-31 13 -55.5 45.5t-24.5 79.5zM184 65.5v14.5v14v47q0 59 4 181q7 236 7 407l1 129q0 129 -1 129v14v15.5t0.5 15.5t1.5 16t3.5 14.5t6 14.5 t8.5 12t11.5 11t15.5 7.5t20 4.5q36 0 55 -14q9 -6 15 -13.5t9.5 -14t5 -19.5t2 -20.5t1 -27t0.5 -28.5v-141q1 -68 2 -203.5t2 -202.5l6 -209v-67q0 -12 1 -38t1 -38q0 -62 -34 -86q-20 -17 -58 -17q-50 0 -73 39q-4 7 -6.5 14t-4 12.5t-2 14t-0.5 13z" />
<glyph unicode="&#xa3;" horiz-adv-x="1579" d="M39 205q0 87 59 153q88 99 244 99q171 0 354 -113q9 41 9 55q0 59 -19.5 123t-41 107t-66.5 123h-299q-31 0 -39 4q-16 5 -27.5 21t-11.5 40q0 22 14 36.5t27 18.5q10 5 24 5l238 2q-26 60 -35.5 96.5t-9.5 89.5q0 158 92 266q28 36 74 70q109 76 280 76q106 0 185 -31 q23 -8 54 -25t36 -22q47 -35 87 -95t40 -139q0 -60 -27 -102q-9 -13 -25 -27q-34 -30 -81 -30q-44 0 -74.5 31t-30.5 75t33 70q9 8 20.5 13t17 8.5t5.5 10.5q0 14 -23 39t-53 43q-72 41 -176 41q-75 0 -137 -30q-32 -19 -56 -43q-73 -73 -73 -177q0 -14 1.5 -28.5t3.5 -26.5 t6 -26t7.5 -23.5t9 -22.5t8.5 -20t9.5 -19t8.5 -16t8 -14.5t7 -11.5h426q2 -1 10.5 -2t14.5 -3q45 -14 45 -63q0 -15 -12 -33q-13 -18 -32 -23t-54 -3l-324 -2q26 -48 40 -76t33 -96t19 -132q0 -23 -2 -45.5t-6 -44t-6.5 -34t-7.5 -32t-6 -22.5l30 -19q29 -19 50.5 -32.5 t62.5 -35t76 -35.5t77.5 -24.5t79.5 -10.5q51 0 86 14q136 41 136 194q0 65 -33.5 107t-73.5 57q-27 9 -65 9q-55 0 -91 -31q-23 -18 -39 -51q-4 -8 -7.5 -27t-8.5 -29q-26 -39 -63 -39q-14 0 -29.5 5t-32 24.5t-16.5 50.5q0 17 4.5 39.5t28 64t63.5 74.5q28 20 61 35 q63 27 132 27q100 0 172 -39q24 -15 49 -37q33 -25 49 -51q57 -77 57 -189q0 -133 -78 -227q-37 -42 -69 -63q-37 -28 -98.5 -49t-137.5 -21q-56 0 -109 11.5t-114.5 41t-100 51t-116.5 68.5q-41 -41 -61 -57q-134 -113 -326 -113q-162 0 -254 74q-33 26 -51 55 q-35 48 -35 115zM205 213q0 -32 20.5 -55t52 -34t59.5 -15.5t52 -4.5q15 0 38.5 3t68.5 17t79 38q29 20 54 55q-6 3 -39 21t-51 26q-42 21 -100.5 35t-102.5 14q-35 0 -53 -6q-12 -3 -28.5 -12t-33.5 -31.5t-16 -50.5z" />
<glyph unicode="&#xa4;" d="M117 223l153 150q-21 29 -35 51t-34.5 64.5t-31.5 96t-11 113.5t11 112.5t31.5 93.5t34.5 62.5t35 49.5l-149 149l92 92l149 -147q147 111 322 111q144 0 262 -70q23 -14 58 -41l151 150l94 -95l-151 -151q25 -32 45 -64q65 -112 65 -254q0 -145 -67 -256 q-18 -34 -45 -67l151 -154l-94 -92l-152 154q-38 -30 -57 -41q-106 -70 -262 -70q-140 0 -254 66q-7 4 -66 45l-153 -150zM281 696q1 -173 118 -289t289 -116q134 0 238 78q157 123 157 327q0 144 -79 248q-19 24 -43 46t-63.5 49.5t-95.5 44t-118 16.5q-172 0 -287.5 -116 t-115.5 -288z" />
<glyph unicode="&#xa6;" horiz-adv-x="468" d="M174 389h121v-780h-121v780zM174 631v780h121v-780h-121z" />
<glyph unicode="&#xa7;" horiz-adv-x="980" d="M61 49q0 66 33 113q42 57 111 57q25 0 49 -8q31 -13 54.5 -42t23.5 -75q0 -53 -45 -88q-11 -9 -24 -13t-18 -7.5t-5 -14.5q1 -5 4 -10.5t7 -10t8 -8t7 -6.5l4 -2q87 -63 222 -63q111 0 166 54.5t55 123.5q0 49 -31 88q-22 32 -52.5 52.5t-109.5 60.5q-20 10 -78.5 37.5 t-97 47t-87 48t-77.5 53.5q-102 83 -102 201q0 102 69 192q20 24 28 33.5t30 30t53 45.5q-30 27 -49 51q-64 73 -64 172q0 91 48 162q19 32 38 51q43 43 117.5 73t169.5 30q125 0 223 -41q1 -1 15.5 -8t31 -17t31.5 -22q50 -40 74 -91q22 -41 22 -94q0 -43 -21 -74t-50 -45 q-23 -10 -53 -10q-40 0 -68 22.5t-37 47.5q-4 12 -4 37q0 42 35 71q6 5 16 10t17 7l6 2q-4 3 -11.5 9t-11.5 9q-32 21 -85 33t-78 14t-38 2q-120 0 -174 -77q-26 -35 -26 -84t35 -93q13 -16 39.5 -35t49 -30.5t55.5 -28t40 -20.5q20 -8 55 -25t45 -22q118 -56 166 -91 q44 -32 72 -69q51 -64 51 -150q0 -41 -13.5 -82t-30 -70t-45 -61t-45 -47.5t-42.5 -38.5q6 -7 15 -14.5t12 -11.5q4 -3 11.5 -10t10.5 -9q80 -90 80 -207q0 -79 -35 -151q-14 -24 -35 -51q-108 -133 -329 -133q-75 0 -144 17t-106 36q-52 23 -94 65q-89 85 -89 203zM256 678 q0 -60 45 -105q13 -13 31.5 -26t50 -29.5t51.5 -26.5t68.5 -32.5t68.5 -32.5q13 -6 88 -45q26 25 50 57q57 70 57 140q0 53 -47 98q-14 13 -36.5 28t-55 32t-52.5 27t-57.5 27t-40.5 19q-39 18 -115 57q-42 -42 -67 -80q-39 -56 -39 -108z" />
<glyph unicode="&#xa8;" horiz-adv-x="724" d="M-172 1352q0 23 10 43q12 30 37 48t41 21.5t27 3.5q39 0 63 -14q60 -33 60 -108q0 -50 -36 -83.5t-85 -33.5q-31 0 -54 14q-63 35 -63 109zM256 1352q0 33 25 67q33 46 86 49q26 5 53 -6q30 -11 53 -39.5t23 -74.5q0 -25 -11 -50q-18 -33 -48 -50t-62 -17q-29 0 -49 10 q-27 13 -48.5 41.5t-21.5 69.5z" />
<glyph unicode="&#xa9;" horiz-adv-x="1705" d="M125 725q0 264 166 467q28 32 58.5 61.5t84 67.5t112 65.5t140.5 46.5t170 19q247 0 434 -141q35 -26 68 -57.5t76.5 -87t74.5 -117t53 -149t21 -181.5q-7 -280 -180 -479q-102 -118 -246 -182t-303 -64q-156 0 -297.5 61.5t-245.5 175.5q-186 203 -186 494zM190 723 q0 -131 50 -252q75 -187 244 -299.5t372 -112.5q95 0 211 35q203 67 325 239.5t124 387.5q0 227 -132 403q-24 32 -52 61.5t-77 68t-103.5 66t-132.5 47t-163 19.5q-223 0 -393 -126q-32 -23 -63 -51t-70.5 -78.5t-69 -106.5t-50 -135.5t-20.5 -165.5zM408 739q0 107 20 181 q41 139 150 202.5t262 63.5q53 0 155 -12l45 -5q82 -8 142 -8q16 -180 26 -268h-51q-22 115 -70 172q-65 78 -186 78q-109 0 -180 -62q-44 -38 -68 -88q-43 -88 -43 -239q0 -314 133 -416q63 -49 172 -49q115 0 177 65q28 28 45 66q18 45 26 121h49q0 -44 1 -131t1 -131 q-57 -2 -155 -17l-41 -4q-20 -1 -55 -4.5t-64 -5.5t-55 -2q-119 0 -201 37t-127 88q-108 119 -108 368z" />
<glyph unicode="&#xab;" horiz-adv-x="681" d="M59 563q0 12 19 39q10 14 16 25q16 25 47 73t57 89.5t48 76.5q24 39 33 49q14 21 32 21q10 -1 17 -9t8.5 -14t1.5 -10q0 -3 -2 -10.5t-6 -21t-6 -21.5q-7 -23 -60 -168q-37 -107 -41 -123q11 -32 41 -113l37 -116q39 -105 39 -133q0 -11 -8 -19t-19 -8q-8 0 -15.5 4 t-14 13t-12 17.5t-14 24.5t-15.5 27t-27.5 42t-30.5 48q-8 14 -25 41.5t-22 36.5q-8 15 -25.5 42.5t-25.5 41.5q-27 46 -27 55zM319 563q0 6 3 13t7 13t11.5 17t13.5 21q9 14 45 71q8 12 26.5 40.5t27.5 43.5q9 14 33 53t38 60q24 41 47 41q27 0 27 -35q0 -3 -10 -43 q-7 -24 -17 -51.5t-23 -60.5t-20 -52q-6 -18 -21.5 -63t-23.5 -70q19 -44 35 -98l37 -111q45 -116 45 -153q0 -11 -8.5 -20t-18.5 -9q-10 1 -20 9.5t-16 18t-18.5 30t-20.5 32.5q-16 25 -46.5 75.5t-45.5 76.5q-8 16 -26.5 45.5t-21.5 34.5l-9 13.5t-10.5 16.5t-8.5 15 q-11 22 -11 26z" />
<glyph unicode="&#xac;" d="M0 537v120h1366v-657h-123v537h-1243z" />
<glyph unicode="&#xad;" horiz-adv-x="641" d="M59 563q0 20 11 35q27 35 77 35q24 2 50 2t57.5 -1t48.5 -1q126 0 189 2q50 4 77 -8q17 -6 32 -24t15 -46q0 -49 -47 -68q-10 -4 -34 -6t-47.5 -1.5t-66 1t-67.5 0.5q-28 0 -83 -1t-83 -1q-66 0 -84 8q-45 21 -45 74z" />
<glyph unicode="&#xae;" horiz-adv-x="1705" d="M125 725q0 264 166 467q28 32 58.5 61.5t84 67.5t112 65.5t140.5 46.5t170 19q175 0 328 -76t258 -217q144 -194 141 -440q0 -42 -6 -87t-22 -110t-53.5 -136.5t-92.5 -135.5q-68 -80 -151.5 -135.5t-163 -79.5t-135.5 -32.5t-105 -8.5q-249 0 -446 149q-34 27 -66 58 t-73.5 85.5t-71.5 115t-51 146t-21 177.5zM190 723q0 -131 50 -252q75 -187 244 -299.5t372 -112.5q112 0 223 39q198 70 317.5 241t121.5 382q0 223 -129 399q-24 32 -52 62t-78 69t-105 67t-134 48t-164 20q-223 0 -393 -126q-32 -23 -63 -51t-70.5 -78.5t-69 -106.5 t-50 -135.5t-20.5 -165.5zM494 270l2 68q3 0 14.5 1.5t16.5 2.5t14.5 3t15 5t11.5 8.5t10 12.5q10 16 10 102v535v51q-4 27 -24.5 37.5t-69.5 15.5l2 70q140 -4 209 -4q132 4 196 4q93 0 160 -16.5t113 -71.5q47 -56 47 -129q0 -50 -20.5 -90t-46.5 -61.5t-63 -37.5 t-55.5 -20.5t-38.5 -7.5q20 -3 47 -25q22 -19 37.5 -45t22 -44.5t16.5 -55.5l19 -80q18 -77 33 -94q11 -13 26 -13q47 2 68 115l63 -12q-13 -64 -27 -104t-45 -79q-25 -29 -43 -37q-27 -14 -55 -14q-75 11 -106 49q-21 27 -37.5 72.5t-34.5 119t-20 79.5q-12 45 -22 65 t-28 37q-34 34 -100 37h-72v-248q0 -79 16 -101t91 -32v-68q-119 4 -352 0zM739 809h74q74 2 101 5t57 17q90 40 90 130q0 39 -23 77q-28 40 -68.5 53t-99.5 13q-49 0 -82 -8q-14 -4 -23 -11.5t-14 -15.5t-7.5 -27t-3 -30.5t-1.5 -42.5v-160z" />
<glyph unicode="&#xb0;" horiz-adv-x="724" d="M61 1231q0 125 88.5 213t212.5 88q126 0 214 -88t88 -213q0 -64 -25 -119q-35 -83 -111 -132.5t-166 -49.5q-126 0 -213.5 88t-87.5 213zM184 1229q0 -72 52.5 -124t125.5 -52q75 0 126 52t51 126q0 75 -52 126.5t-127 51.5q-73 -2 -124.5 -54t-51.5 -126z" />
<glyph unicode="&#xb1;" d="M84 0v121h1198v-121h-1198zM84 776v121h541v524h120v-524h537v-121h-537v-524h-120v524h-541z" />
<glyph unicode="&#xb4;" horiz-adv-x="724" d="M35 1223q0 6 4 14q10 15 49 49q42 39 94 82q12 10 34 29t34 28q30 27 42.5 37.5t36 25t42.5 17.5q43 6 73.5 -25t30.5 -73q0 -35 -31 -64q-9 -9 -19.5 -15.5t-16 -9t-26.5 -10t-30 -10.5q-6 -3 -108 -41q-4 -1 -94 -34q-11 -2 -33 -11q-8 -3 -17.5 -6.5t-12 -5t-10 -3 t-11.5 0.5q-16 0 -23.5 8t-7.5 17z" />
<glyph unicode="&#xb5;" horiz-adv-x="1150" d="M150 754q0 79 12 116q21 76 82 76q25 0 41 -16q39 -32 39 -125q0 -63 -11 -164q-8 -63 -24 -195q-11 -114 -25 -188q21 -54 43 -86q29 -43 73 -68.5t95 -25.5q53 0 92 22q37 20 67 53.5t47 69t26 59.5t12 40q32 121 29 346q0 16 -1.5 49t-1.5 49q0 57 7 98q1 10 4 19.5 t11 26t24.5 26.5t39.5 10q34 -1 56 -20t30.5 -54t10.5 -58t2 -58q0 -326 -99 -531q11 -34 33 -59.5t37 -34.5q24 -12 47 -12q48 0 72 37q4 5 14 39q4 24 4 45q0 18 -4 41l53 2q27 -72 27 -136q0 -72 -32.5 -121.5t-100.5 -48.5q-55 0 -106.5 43.5t-77.5 135.5 q-24 -40 -72 -88q-45 -45 -105.5 -72t-123.5 -27q-127 0 -215 111q-17 20 -29 41q0 -3 -1 -18.5t-1 -24t-0.5 -27t0 -32.5t1.5 -35t3.5 -39.5t6.5 -41t9 -44.5q15 -59 27 -88q8 -20 35 -70q12 -21 29.5 -49.5t25.5 -42t14.5 -31.5t6.5 -33q0 -35 -21.5 -57.5t-56.5 -22.5 q-46 0 -77.5 36t-53.5 114q-33 120 -33 287q0 191 24 352q-16 117 -22 168q-6 61 -14 190q-4 94 -4 142z" />
<glyph unicode="&#xb6;" d="M184 1051q0 71 21 133q27 87 92 149t154 90q75 23 184 23h452v-90h-67v-1698h-94v1698h-322v-1698h-94v1020q-62 8 -98 20q-112 41 -170 136t-58 217z" />
<glyph unicode="&#xb7;" horiz-adv-x="382" d="M70 594q0 50 36.5 85.5t86.5 35.5q27 0 45 -8q33 -13 54 -45.5t21 -69.5q0 -51 -37 -87t-88 -34q-32 0 -47 10q-31 13 -51 45.5t-20 67.5z" />
<glyph unicode="&#xb8;" horiz-adv-x="724" d="M29 -279q0 16 11.5 31t37.5 15q15 -2 35 -25q3 -3 10 -11t14 -14q38 -26 88 -26q45 0 74 16q14 9 23.5 26t9.5 31q0 24 -22.5 45t-61.5 21q-20 0 -70 -10q-5 -1 -21.5 -8t-25.5 -7q-27 0 -27 25q0 5 15 39q3 7 8 20.5t8 20.5q29 65 39 90h98l-41 -92q24 6 39 6 q42 0 78 -12q35 -11 70 -46.5t35 -91.5q0 -65 -59.5 -113.5t-160.5 -49.5q-44 0 -88 12q-53 15 -84.5 45t-31.5 63z" />
<glyph unicode="&#xbb;" horiz-adv-x="681" d="M123 907q1 15 11 24t18 9q4 0 16 -4q5 -4 9 -7.5t9 -10.5t7.5 -11t9.5 -16.5t10 -18.5q17 -26 48.5 -78t43.5 -71q7 -12 26.5 -44t28.5 -48q4 -6 15 -27q31 -43 31 -55q0 -7 -5 -14q-5 -14 -20 -37q-5 -8 -16.5 -26t-16.5 -26q-7 -11 -112 -178q-4 -6 -18 -27.5 t-23 -33.5q-4 -8 -16 -20.5t-25 -12.5q-10 0 -18.5 9.5t-8.5 21.5q2 28 55 174q11 32 33.5 96t26.5 74q-8 24 -24.5 70t-24.5 69q-4 10 -7.5 22t-8 26.5t-7.5 23.5q-9 23 -20 59q-1 4 -4 11.5t-5 14.5t-4 13q-3 11 -7 20t-5.5 14.5t-1.5 14.5zM385 909q0 15 8.5 23t16.5 8 q14 0 22 -8q5 -3 8 -6t6.5 -7.5t5.5 -8t7 -11.5t8 -14q5 -8 15 -23.5t14 -21.5q7 -12 21.5 -35t21.5 -35q8 -14 25.5 -42t25.5 -42q40 -67 49 -82q27 -41 27 -55q0 -9 -4 -17.5t-14.5 -23t-12.5 -16.5q-6 -9 -17.5 -28t-17.5 -28q-8 -15 -35 -55q-11 -17 -47 -75.5 t-57 -90.5q-23 -41 -45 -41q-12 0 -19.5 9.5t-7.5 21.5q0 11 8 39t19.5 63.5t13.5 40.5q42 113 72 203q-59 169 -68 199l-37 110q-2 9 -5 17t-4 11.5t-2 9t-1 11.5z" />
<glyph unicode="&#xbf;" horiz-adv-x="1110" d="M-2 373q0 121 63 205q4 6 10.5 13.5t14.5 16t12 13.5q28 28 68 54t70.5 40.5t80 36.5t68.5 32q5 2 18 8.5t34 20t36 27.5q59 54 62 139v24.5t0.5 24t6 24t15.5 23.5q23 23 64 23q81 0 81 -107q0 -21 -4 -67q-18 -120 -141 -209q-77 -54 -96 -64q-31 -17 -80 -41 q-37 -23 -51 -30q-52 -26 -90 -64q-26 -26 -40.5 -63.5t-17 -56t-2.5 -31.5q0 -12 2.5 -28t9.5 -44t25.5 -58t46.5 -53q33 -30 99.5 -53t144.5 -23q88 0 156 15q19 5 49 16q33 14 45 21q47 23 94 76t47 124q0 49 -31 76q-8 8 -22 15q4 -12 4 -27q-2 -24 -24.5 -43t-59.5 -19 q-39 0 -64.5 28t-25.5 67q0 34 16 63q44 80 154 80q92 0 153 -63q60 -62 60 -162q0 -127 -80 -223q-151 -183 -459 -183q-221 0 -364 101q-46 31 -76 69q-82 100 -82 236zM463 1339q0 34 14 62q21 38 54 53.5t55 15.5q17 4 45 -4q36 -10 66 -41.5t30 -83.5q0 -59 -39 -98 q-41 -39 -94 -39q-55 0 -93 40t-38 95z" />
<glyph unicode="&#xc0;" horiz-adv-x="1579" d="M-2 76q0 22 16 45q24 26 58 26q9 -1 23.5 -2.5t26.5 -2.5t23 -1q29 0 48 15q13 9 21 20t11.5 18t11.5 29.5t13 36.5q39 96 59 150l31 86q9 26 27.5 74.5t21.5 56.5q33 92 35 96q4 14 14 37t13 33l24 69q48 131 53 146q66 180 99 268q7 18 15 40l12 33t10.5 24.5 t15.5 25.5q19 24 43.5 36t34 12.5t28.5 0.5q57 0 93 -25q21 -14 30 -32q7 -12 16 -35t19 -52.5t12 -35.5q18 -47 49 -137t46 -130q5 -16 129 -358q62 -179 129 -354q3 -8 11 -28.5t10.5 -26.5t9 -20t10 -20.5t9.5 -14.5t13 -15q29 -29 76 -29q16 0 46 4t46 4q40 0 59 -24.5 t19 -48.5q0 -21 -6 -33q-22 -39 -70 -39q-8 0 -24 1t-23 1q-33 2 -90 10q-64 6 -131 6q-89 0 -199 -10q-11 -1 -49 -4.5t-59 -3.5q-40 0 -60 8q-18 12 -24 21q-17 17 -17 45q0 23 13 41q23 32 73 32q20 0 66 -4q9 0 26.5 -2t26.5 -2q31 0 48.5 17.5t17.5 35.5 q0 14 -14.5 56.5t-32.5 90.5l-21 56l-12 33t-12 31t-11 22t-15.5 19t-19.5 8q-10 2 -223 2h-141q-70 0 -86 -8q-14 -6 -24.5 -20t-15 -24.5t-10.5 -29.5t-7 -23q-7 -20 -20.5 -58.5t-20.5 -57.5q-25 -70 -25 -90q0 -25 19 -41.5t57 -16.5q15 0 43 4q8 1 24.5 2t24.5 2 q5 0 16 1.5t17 1.5q16 0 32.5 -4.5t34 -24t17.5 -51.5q0 -18 -13 -37q-21 -31 -77 -31q-26 0 -53.5 2.5t-65.5 7t-53 6.5q-39 5 -93 5q-59 0 -149 -11q-19 0 -27 -2q-70 -8 -104 -8q-35 0 -56.5 20t-21.5 54zM539 1745q0 13 6 31q6 19 27.5 39.5t52.5 23.5q13 0 26.5 -3 t22.5 -7t23.5 -14t21.5 -15.5t24.5 -21t24.5 -21.5q10 -9 28 -24t25 -21q46 -41 58 -51t33.5 -29t33.5 -28q1 -1 5.5 -5t8.5 -8t9 -10t7.5 -13t2.5 -14q0 -9 -8.5 -16.5t-20.5 -7.5q-9 0 -30 8q-159 56 -283 102q-2 1 -13.5 5t-20.5 8t-21.5 12.5t-21 18.5t-15 26t-6.5 35z M590 672l4 -8q4 -6 9 -8t9 -2.5t14.5 0.5t18.5 1q58 -4 86 -4q23 2 68 2h116q4 0 13.5 -1t17.5 -1t12 2q3 0 10 5.5t7 13.5t-23 65q-88 266 -88 267q-79 247 -80 249q-9 -26 -46.5 -140.5t-59.5 -176.5q-18 -58 -66 -197q-22 -63 -22 -67z" />
<glyph unicode="&#xc1;" horiz-adv-x="1579" d="M-2 76q0 22 16 45q24 26 58 26q9 -1 23.5 -2.5t26.5 -2.5t23 -1q29 0 48 15q13 9 21 20t11.5 18t11.5 29.5t13 36.5q39 96 59 150l31 86q9 26 27.5 74.5t21.5 56.5q33 92 35 96q4 14 14 37t13 33l24 69q48 131 53 146q66 180 99 268q7 18 15 40l12 33t10.5 24.5 t15.5 25.5q19 24 43.5 36t34 12.5t28.5 0.5q57 0 93 -25q21 -14 30 -32q7 -12 16 -35t19 -52.5t12 -35.5q18 -47 49 -137t46 -130q5 -16 129 -358q62 -179 129 -354q3 -8 11 -28.5t10.5 -26.5t9 -20t10 -20.5t9.5 -14.5t13 -15q29 -29 76 -29q16 0 46 4t46 4q40 0 59 -24.5 t19 -48.5q0 -21 -6 -33q-22 -39 -70 -39q-8 0 -24 1t-23 1q-33 2 -90 10q-64 6 -131 6q-89 0 -199 -10q-11 -1 -49 -4.5t-59 -3.5q-40 0 -60 8q-18 12 -24 21q-17 17 -17 45q0 23 13 41q23 32 73 32q20 0 66 -4q9 0 26.5 -2t26.5 -2q31 0 48.5 17.5t17.5 35.5 q0 14 -14.5 56.5t-32.5 90.5l-21 56l-12 33t-12 31t-11 22t-15.5 19t-19.5 8q-10 2 -223 2h-141q-70 0 -86 -8q-14 -6 -24.5 -20t-15 -24.5t-10.5 -29.5t-7 -23q-7 -20 -20.5 -58.5t-20.5 -57.5q-25 -70 -25 -90q0 -25 19 -41.5t57 -16.5q15 0 43 4q8 1 24.5 2t24.5 2 q5 0 16 1.5t17 1.5q16 0 32.5 -4.5t34 -24t17.5 -51.5q0 -18 -13 -37q-21 -31 -77 -31q-26 0 -53.5 2.5t-65.5 7t-53 6.5q-39 5 -93 5q-59 0 -149 -11q-19 0 -27 -2q-70 -8 -104 -8q-35 0 -56.5 20t-21.5 54zM590 672l4 -8q4 -6 9 -8t9 -2.5t14.5 0.5t18.5 1q58 -4 86 -4 q23 2 68 2h116q4 0 13.5 -1t17.5 -1t12 2q3 0 10 5.5t7 13.5t-23 65q-88 266 -88 267q-79 247 -80 249q-9 -26 -46.5 -140.5t-59.5 -176.5q-18 -58 -66 -197q-22 -63 -22 -67zM635 1559q0 8 6 20q10 14 86 80q16 14 43 33l37 37q9 7 27.5 22.5t27.5 22.5q66 63 111 67 q43 4 71.5 -25t28.5 -73q0 -26 -16 -49q-8 -10 -16.5 -17.5t-22 -14.5t-22.5 -10.5t-30 -11.5t-32 -12q-46 -16 -66 -24q-8 -3 -25.5 -9.5t-25.5 -9.5q-12 -4 -32.5 -12t-32.5 -12q-5 -2 -16.5 -6.5t-16.5 -6.5t-16 -6.5t-19.5 -7t-17.5 -2.5q-5 0 -11 1.5t-13 8.5t-7 17z " />
<glyph unicode="&#xc2;" horiz-adv-x="1579" d="M-2 76q0 22 16 45q24 26 58 26q9 -1 23.5 -2.5t26.5 -2.5t23 -1q29 0 48 15q13 9 21 20t11.5 18t11.5 29.5t13 36.5q39 96 59 150l31 86q9 26 27.5 74.5t21.5 56.5q33 92 35 96q4 14 14 37t13 33l24 69q48 131 53 146q66 180 99 268q7 18 15 40l12 33t10.5 24.5 t15.5 25.5q19 24 43.5 36t34 12.5t28.5 0.5q57 0 93 -25q21 -14 30 -32q7 -12 16 -35t19 -52.5t12 -35.5q18 -47 49 -137t46 -130q5 -16 129 -358q62 -179 129 -354q3 -8 11 -28.5t10.5 -26.5t9 -20t10 -20.5t9.5 -14.5t13 -15q29 -29 76 -29q16 0 46 4t46 4q40 0 59 -24.5 t19 -48.5q0 -21 -6 -33q-22 -39 -70 -39q-8 0 -24 1t-23 1q-33 2 -90 10q-64 6 -131 6q-89 0 -199 -10q-11 -1 -49 -4.5t-59 -3.5q-40 0 -60 8q-18 12 -24 21q-17 17 -17 45q0 23 13 41q23 32 73 32q20 0 66 -4q9 0 26.5 -2t26.5 -2q31 0 48.5 17.5t17.5 35.5 q0 14 -14.5 56.5t-32.5 90.5l-21 56l-12 33t-12 31t-11 22t-15.5 19t-19.5 8q-10 2 -223 2h-141q-70 0 -86 -8q-14 -6 -24.5 -20t-15 -24.5t-10.5 -29.5t-7 -23q-7 -20 -20.5 -58.5t-20.5 -57.5q-25 -70 -25 -90q0 -25 19 -41.5t57 -16.5q15 0 43 4q8 1 24.5 2t24.5 2 q5 0 16 1.5t17 1.5q16 0 32.5 -4.5t34 -24t17.5 -51.5q0 -18 -13 -37q-21 -31 -77 -31q-26 0 -53.5 2.5t-65.5 7t-53 6.5q-39 5 -93 5q-59 0 -149 -11q-19 0 -27 -2q-70 -8 -104 -8q-35 0 -56.5 20t-21.5 54zM434 1563q1 12 14 25.5t38 31.5l26 18l49 37q6 4 29.5 20.5 t38.5 26.5q9 6 26.5 18.5t26.5 18.5q22 17 59 43q7 5 17 12.5t14 10t10.5 6t11 4.5t9.5 0q9 0 23.5 -8t23.5 -15t12 -10q6 -4 17.5 -12t17.5 -12q98 -66 127 -88q46 -35 104 -74q45 -31 43 -49q0 -10 -9.5 -18.5t-20.5 -8.5q-7 0 -15.5 1t-19.5 4t-20 6t-24 8.5t-25.5 9.5 t-30.5 11.5t-33 12.5q-51 18 -174 70q-37 -21 -56 -27q-38 -15 -69 -26q-67 -27 -74 -29q-15 -5 -43 -14.5t-43 -14.5q-36 -12 -49 -12q-10 0 -20.5 6t-10.5 17zM590 672l4 -8q4 -6 9 -8t9 -2.5t14.5 0.5t18.5 1q58 -4 86 -4q23 2 68 2h116q4 0 13.5 -1t17.5 -1t12 2 q3 0 10 5.5t7 13.5t-23 65q-88 266 -88 267q-79 247 -80 249q-9 -26 -46.5 -140.5t-59.5 -176.5q-18 -58 -66 -197q-22 -63 -22 -67z" />
<glyph unicode="&#xc3;" horiz-adv-x="1579" d="M-2 76q0 22 16 45q24 26 58 26q9 -1 23.5 -2.5t26.5 -2.5t23 -1q29 0 48 15q13 9 21 20t11.5 18t11.5 29.5t13 36.5q39 96 59 150l31 86q9 26 27.5 74.5t21.5 56.5q33 92 35 96q4 14 14 37t13 33l24 69q48 131 53 146q66 180 99 268q7 18 15 40l12 33t10.5 24.5 t15.5 25.5q19 24 43.5 36t34 12.5t28.5 0.5q57 0 93 -25q21 -14 30 -32q7 -12 16 -35t19 -52.5t12 -35.5q18 -47 49 -137t46 -130q5 -16 129 -358q62 -179 129 -354q3 -8 11 -28.5t10.5 -26.5t9 -20t10 -20.5t9.5 -14.5t13 -15q29 -29 76 -29q16 0 46 4t46 4q40 0 59 -24.5 t19 -48.5q0 -21 -6 -33q-22 -39 -70 -39q-8 0 -24 1t-23 1q-33 2 -90 10q-64 6 -131 6q-89 0 -199 -10q-11 -1 -49 -4.5t-59 -3.5q-40 0 -60 8q-18 12 -24 21q-17 17 -17 45q0 23 13 41q23 32 73 32q20 0 66 -4q9 0 26.5 -2t26.5 -2q31 0 48.5 17.5t17.5 35.5 q0 14 -14.5 56.5t-32.5 90.5l-21 56l-12 33t-12 31t-11 22t-15.5 19t-19.5 8q-10 2 -223 2h-141q-70 0 -86 -8q-14 -6 -24.5 -20t-15 -24.5t-10.5 -29.5t-7 -23q-7 -20 -20.5 -58.5t-20.5 -57.5q-25 -70 -25 -90q0 -25 19 -41.5t57 -16.5q15 0 43 4q8 1 24.5 2t24.5 2 q5 0 16 1.5t17 1.5q16 0 32.5 -4.5t34 -24t17.5 -51.5q0 -18 -13 -37q-21 -31 -77 -31q-26 0 -53.5 2.5t-65.5 7t-53 6.5q-39 5 -93 5q-59 0 -149 -11q-19 0 -27 -2q-70 -8 -104 -8q-35 0 -56.5 20t-21.5 54zM449 1614q0 11 5 34t28 64t61 66q36 22 90 26q6 3 22 1 t21.5 -1.5t21.5 -3t22 -4t22 -5.5t22 -6.5t22 -7.5t22 -8t22 -8t22 -8q91 -31 125 -31q39 0 72 27q3 3 12.5 13.5t15.5 15.5q11 8 19 8q11 0 18.5 -9.5t7.5 -19.5q0 -37 -24 -86q-52 -106 -170 -106q-41 0 -75.5 9t-127.5 42q-5 2 -25.5 9.5t-54.5 15.5t-57 8q-43 0 -72 -33 q-3 -4 -5.5 -7.5t-5 -7.5t-3.5 -6q-11 -16 -27 -16q-9 0 -17.5 9t-8.5 26zM590 672l4 -8q4 -6 9 -8t9 -2.5t14.5 0.5t18.5 1q58 -4 86 -4q23 2 68 2h116q4 0 13.5 -1t17.5 -1t12 2q3 0 10 5.5t7 13.5t-23 65q-88 266 -88 267q-79 247 -80 249q-9 -26 -46.5 -140.5 t-59.5 -176.5q-18 -58 -66 -197q-22 -63 -22 -67z" />
<glyph unicode="&#xc4;" horiz-adv-x="1579" d="M-2 70q0 34 27 59q19 16 49 16q14 0 39 -2t37 -2q52 0 79 60q3 7 8.5 21.5t8.5 21.5q10 30 22 57q22 56 61 163t44 120q13 36 66.5 178.5t80.5 218.5q77 217 115 311q3 8 10.5 27.5t10 26.5t8 20.5t9.5 20t9.5 14.5t11.5 14q34 30 92 33q27 0 39 -2q25 -5 41 -13t33 -28 q8 -9 14.5 -20t13.5 -29t11.5 -30t14 -40.5t14.5 -42.5q7 -21 21.5 -60.5t21.5 -60.5q7 -20 19 -57.5t15 -48.5q23 -64 70.5 -193t69.5 -194q71 -198 119 -326q5 -12 14 -35t13 -31.5t10 -22.5t11.5 -23t12.5 -17q33 -39 78 -39q18 0 51 4t51 4q10 0 20.5 -2.5t23.5 -10 t21.5 -23.5t8.5 -39q0 -17 -4 -29q-23 -41 -72 -41q-8 0 -23.5 1t-23.5 1q-14 1 -43.5 4t-44.5 4q-55 8 -123 8q-89 0 -199 -10q-13 -1 -53.5 -4.5t-62.5 -3.5q-50 0 -68 12q-35 20 -35 60q0 51 45 69q15 6 43 6q26 0 76 -4q28 -4 43 -4q32 0 48 19.5t16 38.5q0 11 -21 67 q-23 70 -39 113q-34 87 -35 90q-14 28 -24 35q-6 4 -16.5 6t-27 2.5t-31.5 0.5t-38.5 -0.5t-38.5 -0.5h-266q-31 0 -45.5 -5t-26.5 -20q-6 -7 -9.5 -11.5t-6.5 -11t-4 -10l-4 -14t-6 -18.5q-7 -21 -15 -37l-24 -74q-5 -14 -13 -35t-11 -29.5t-6 -21t-3 -22.5q0 -25 17 -42.5 t57 -17.5q20 0 61 4t62 4q55 0 75 -26q1 -3 4 -9.5t5 -11.5q6 -18 6 -26q0 -23 -15 -41q-22 -31 -77 -31q-31 0 -101 8q-119 13 -166 13q-60 0 -153 -11q-98 -10 -119 -10q-41 0 -62.5 21.5t-21.5 46.5zM457 1710q0 27 12 51q12 29 41 54t74 28q16 5 51 -4 q33 -10 63.5 -43.5t30.5 -85.5q0 -32 -14 -63q-13 -28 -44.5 -51t-76.5 -23q-32 0 -64 14q-26 14 -49.5 46.5t-23.5 76.5zM592 672q0 -12 14 -17q10 -2 84 -2h158h74h32q21 4 21 19q0 6 -2 10q-28 80 -66 199q-16 46 -123 374q-70 -220 -96 -294q-8 -25 -24 -70.5t-19 -54.5 q-18 -54 -29 -82q-1 -3 -12.5 -39.5t-11.5 -42.5zM842 1712q0 52 37 92t90 43q59 3 102 -36.5t43 -96.5q0 -33 -14 -65q-14 -29 -47 -51.5t-76 -22.5q-31 0 -51 8q-29 12 -56.5 46t-27.5 83z" />
<glyph unicode="&#xc5;" horiz-adv-x="1579" d="M-2 72q0 28 18 51.5t62 23.5q13 0 37 -4q6 0 18.5 -1t18.5 -1q26 0 43 15q9 7 16.5 15.5t13 20t8.5 19t8 22t7 19.5q5 14 16.5 42.5t16.5 43.5q19 50 56 149.5t56 149.5q16 41 46.5 124t45.5 124q21 56 70 196q45 117 78 209q1 3 9.5 26.5t14 36t15.5 31t20 29.5 q33 33 90 35q52 0 82.5 -16t45 -42t32.5 -79q7 -23 16 -45q38 -103 91 -262q27 -76 82 -227.5t81 -227.5q102 -276 121 -324l3 -8q4 -8 10.5 -18.5t15.5 -22.5t22 -22.5t27 -14.5q12 -4 33 -4q16 0 49 4t51 4q32 0 53 -22t21 -53q0 -11 -4 -23q-10 -30 -39 -41 q-24 -6 -43 -6q-18 0 -115 10q-98 8 -149 8q-54 0 -152 -8q-13 -1 -39 -2t-39 -2q-3 0 -35 -3t-49 -3q-48 0 -73 31q-15 19 -15 41q0 25 13 45q12 17 29 23.5t50 6.5q20 0 66 -4q32 -4 51 -4q29 0 45.5 16.5t16.5 36.5t-64 193q-6 16 -14.5 39.5t-13 36t-12 24.5t-17.5 17 q-13 8 -74 8h-356q-33 0 -54 -19q-9 -10 -16 -22t-10.5 -21.5t-10.5 -30t-12 -34.5l-37 -105q-20 -65 -20 -77q0 -20 10 -34t25 -18.5t24 -6t17 -1.5q20 0 61 5.5t62 5.5q17 0 33.5 -3.5t34.5 -23t18 -53.5q0 -22 -17 -41q-23 -27 -73 -27q-23 0 -125 10q-86 11 -144 11 q-72 0 -143 -9q-86 -12 -127 -12q-33 0 -58.5 18t-25.5 52zM592 672q0 -2 4 -10q3 -3 6.5 -4.5t9.5 -2t10.5 -0.5h14h14.5q31 -2 94 -2h170q17 -4 38.5 -0.5t21.5 19.5q0 4 -5 19t-13.5 38t-12.5 37q-7 22 -17.5 54.5t-19 58.5t-16.5 49q-5 16 -28.5 85t-35.5 107 q-3 8 -43 137q-71 -225 -102 -311q-11 -34 -34.5 -102.5t-35.5 -102.5q-20 -67 -20 -69zM621 1683q0 66 45 114.5t114 51.5q39 0 72 -14q38 -19 68 -58.5t30 -95.5q0 -63 -53 -116q-49 -47 -111 -47q-76 0 -129 61q-36 43 -36 104zM698 1686q0 -53 45 -78q22 -11 39 -11 q23 0 45 13q16 9 29.5 28.5t13.5 44.5q0 9 -6 33q-9 23 -32 39.5t-58 13.5q-32 -5 -54 -28.5t-22 -54.5z" />
<glyph unicode="&#xc6;" horiz-adv-x="2217" d="M-2 70q0 16 6 32q20 41 70 41q16 0 44 -2t42 -2q32 0 49.5 16t52.5 70q23 32 43 66q86 137 113 178q99 159 198 315q111 177 285 449q80 124 90 139q2 3 10.5 15t10.5 14.5t9.5 12t11 12t11 8.5t13.5 8t15 4t18 2q12 0 34 -1t33 -1q90 -4 137 -4q147 -6 299 -6 q25 0 76.5 1t77.5 1q21 1 62 1t61 1q20 0 60 2t61 2q29 0 43 -2q84 -10 84 -101q0 -22 -6 -59.5t-7 -46.5q-8 -86 -8 -131q0 -62 6 -121q4 -40 4 -63q0 -47 -22.5 -66.5t-52.5 -19.5q-47 0 -68 34q-8 16 -10 45t0 92.5t2 88.5q0 72 -10 104q-1 1 -3 6.5t-4 13t-4 11.5 q-22 44 -73 59q-78 19 -277 19h-129q-60 -3 -80 -15q-15 -10 -22.5 -22.5t-10.5 -36.5l-8 -381q0 -16 2 -24.5t12 -12t17.5 -4t32.5 -0.5q23 0 66.5 -1t62.5 -0.5t43 4t39 11.5q43 22 43 84q0 19 -4 47q-9 61 -9 80q0 39 21.5 62.5t60.5 23.5q26 0 49 -21.5t23 -64.5 q0 -19 -4 -55q-1 -8 -6 -53q-17 -149 -17 -211q0 -63 11 -164q12 -82 12 -121q0 -28 -4 -37q-5 -18 -24.5 -32.5t-47.5 -14.5q-21 0 -37 10q-37 24 -37 82q1 20 7 67t6 71q0 29 -17 53q-16 23 -45 29.5t-85 7.5h-17h-47q-10 0 -32 -1t-32 -1h-9.5h-8h-6.5t-5.5 -0.5t-4 -2 t-4 -3.5t-3.5 -5q-3 -4 -5 -11.5t-2 -13.5t0.5 -14.5t0.5 -9.5q-2 -8 -2 -22q-2 -41 -2 -129q0 -27 -1 -80t-1 -80v-19q0 -30 0.5 -43.5t3.5 -31.5t10 -25.5t20.5 -14.5t33.5 -9q51 -5 120 -5h222q37 0 77 3q107 3 144 40q9 9 20 31q17 37 17 117q0 54 -4 156q0 20 1 31.5 t6 30t18 30.5t34 18q16 4 25 4q20 0 38 -12q20 -13 27.5 -32t7.5 -56q0 -26 -3.5 -70.5t-4.5 -60.5q-4 -66 -4 -98q0 -39 4 -113q2 -18 2 -60q0 -57 -26 -83q-29 -23 -86 -23q-29 0 -91 4q-17 1 -49.5 2t-48.5 2q-324 8 -487 8q-84 0 -256 -8q-45 0 -68 -2q-10 0 -30.5 -2 t-30.5 -2q-14 -2 -43 -2q-47 0 -67.5 23.5t-20.5 50.5q0 29 18.5 51t63.5 22q3 0 96 -6q10 -2 30 -2q56 0 80 41q7 14 11 30t5 24.5t2 30t1 24.5q1 16 2 46t2 46q6 234 6 235q0 20 -2 25q-3 9 -9.5 15t-17 8t-17.5 2.5t-20.5 0t-15.5 -0.5h-240q-80 0 -92 -4 q-9 -4 -17.5 -12.5t-12.5 -15t-11 -19t-10 -17.5q-6 -12 -20.5 -34t-20.5 -34q-6 -9 -17.5 -27.5t-17.5 -27.5q-11 -19 -31 -53.5t-24 -40.5q-12 -19 -33 -57.5t-32 -57.5q-4 -7 -8.5 -15.5t-10 -17.5t-8.5 -14q-25 -52 -25 -57q0 -10 12 -17.5t25 -7.5q15 0 39 4 q7 1 19 2.5t21.5 2.5t18.5 1q33 0 54.5 -21.5t21.5 -53.5q0 -21 -14 -39q-23 -33 -72 -33q-34 0 -104 12q-118 11 -127 11q-56 0 -148 -15q-88 -10 -106 -10q-21 0 -33 4q-17 6 -33 23.5t-16 44.5zM817 811h291q22 0 33 7t12 14t0 18l12 463q3 28 -8 28q-12 0 -29 -30 l-292 -475z" />
<glyph unicode="&#xc7;" horiz-adv-x="1323" d="M84 717q0 166 44 301t105 217q81 117 207 182q117 64 285 64q135 0 231 -45q39 -20 76 -50q31 -27 43 -43q20 -20 23 -24q1 -2 4 -6t5.5 -7.5t4.5 -7.5q-1 7 -2 21.5t-2 21.5q-8 40 -8 60q0 34 19 57t52 23q15 0 33 -13q35 -24 35 -77q0 -20 -3.5 -56.5t-4.5 -48.5 q-6 -59 -6 -119q0 -87 8 -155q1 -12 2.5 -33t2.5 -38t1 -32q0 -31 -14 -51q-21 -33 -68 -33q-25 0 -45 17q-11 8 -17.5 16.5t-9.5 16.5t-4.5 21.5t-1 23.5t1 30t0.5 35q0 165 -92 254q-29 29 -78 55q-84 39 -182 39q-135 0 -229 -57q-107 -65 -162 -213q-59 -142 -59 -330 q0 -86 10 -147q22 -180 110 -305q33 -44 68 -74q40 -40 104 -66q63 -26 162 -26q151 0 250 69q13 9 45 41q1 2 10 11.5t16.5 19.5t12.5 20q47 77 47 191q0 43 5 61.5t24 34.5q24 21 51 21q13 0 29 -4q61 -14 61 -97q0 -194 -113 -331q-40 -46 -96 -86q-160 -103 -360 -103 q-86 0 -172 21q-22 5 -74 26q-66 26 -123 72q-115 92 -188.5 253.5t-73.5 381.5zM561 -279q0 16 12.5 31t38.5 15q15 -2 33 -25q15 -15 27 -25q36 -26 86 -26q46 0 73 16q15 9 25 26t10 31q-2 24 -24 45t-62 21q-27 0 -67 -10q-5 -1 -22.5 -8t-26.5 -7q-27 0 -27 25 q0 7 14 39q3 7 9.5 20.5t9.5 20.5q10 26 39 90h96l-41 -92q24 6 39 6q42 0 78 -12q35 -11 69.5 -46t34.5 -92q0 -66 -58.5 -114t-160.5 -49q-44 0 -86 12q-54 15 -86.5 45t-32.5 63z" />
<glyph unicode="&#xc8;" d="M14 78q0 12 6 24q6 17 25 32.5t45 15.5q8 0 43 -5q30 -6 60 -6q45 0 71 35q13 19 19 54.5t7 65.5t1 94v20q4 160 4 241q0 44 -2 131t-2 131q-1 24 -2 73t-2 73q-1 19 -3 56t-3 56q0 69 -25 103q-9 13 -24 20t-24.5 7.5t-29.5 0.5q-10 0 -33 -2t-42 -2t-33 4q-24 6 -39 25 t-15 43q0 73 76 78q30 0 80 -8l80 -6q125 -11 205 -11q27 0 83 2t83 2q22 1 65 2.5t64 2.5q22 1 65.5 3t65.5 3q23 1 68 2t67 2q8 0 25.5 1t25.5 1q41 0 59 2q6 0 19 1t20 1q45 0 72 -27q25 -22 25 -78q0 -18 -3 -51t-4 -41q-8 -86 -8 -129q0 -41 8 -123q7 -44 7 -71 q0 -53 -27 -74q-18 -16 -51 -16q-29 0 -49 20q-8 7 -14 16.5t-9 16.5t-4.5 19t-2 17t0 19t0.5 17v106q0 145 -53 188q-11 10 -26 16.5t-35 9.5t-32.5 4.5t-35.5 2t-27 0.5q-78 4 -123 4q-80 0 -160 -6q-72 -3 -102 -16t-41 -60q-6 -29 -6 -157v-115q0 -49 4 -59 q7 -17 29 -25.5t38 -9t58 -0.5q107 0 139 14q18 10 32.5 30.5t14.5 49.5q0 17 -4 49q-1 7 -2 19.5t-2 22.5t-2 18q0 5 -1 16t-1 16q0 17 4 27q5 16 22 34.5t44 18.5q82 -2 82 -92q0 -24 -6 -71t-7 -56q-10 -95 -10 -174q0 -90 19 -242q4 -36 4 -57q0 -48 -29 -70 q-22 -14 -47 -14q-20 0 -35 10q-41 23 -41 76q0 11 4 39q8 70 8 108q0 49 -34 70q-26 16 -93 16h-104h-3q-3 0 -6 0.5t-8 0l-10 -1t-11 -2t-11 -3.5t-10 -5.5t-9 -8t-7.5 -11t-4.5 -14.5q-3 -9 -3.5 -27t0.5 -52.5t1 -51.5q0 -38 1 -114.5t1 -114.5q1 -42 2.5 -58t7.5 -36.5 t19 -32.5q14 -13 32.5 -18.5t31 -6t54.5 -0.5q39 -2 119 -2q147 0 219 4q114 6 150 50q33 40 33 151v39q-1 16 -2 45t-2 45q0 7 -1 20.5t-1 20.5q0 19 4 27q4 23 22 43t53 20q31 0 48 -12q14 -12 21 -28t8 -25.5t1 -30.5q0 -15 -1 -32.5t-2.5 -39t-2.5 -34.5q-4 -82 -4 -123 q0 -28 4 -90l6 -87q0 -57 -30 -83q-28 -21 -80 -21q-3 0 -285 6q-168 4 -254 4q-106 0 -328 -4q-75 0 -151 -6q-9 0 -26.5 -1t-26.5 -1q-34 0 -54 10q-27 13 -39 43q-2 12 -2 25zM475 1745q0 13 6 31q6 19 27.5 39.5t52.5 23.5q16 1 29.5 -2.5t29.5 -13.5t24 -16t29.5 -25 t28.5 -25q13 -12 56 -45q27 -27 57 -51q12 -10 34 -29t34 -28l5 -4l9 -9t8.5 -10t7 -13t2.5 -14q0 -9 -8.5 -16.5t-19.5 -7.5q-10 0 -31 8q-159 56 -283 102q-2 1 -13.5 5t-20.5 8t-21.5 12.5t-21 18.5t-15 26t-6.5 35z" />
<glyph unicode="&#xc9;" d="M14 78q0 12 6 24q6 17 25 32.5t45 15.5q8 0 43 -5q30 -6 60 -6q45 0 71 35q13 19 19 54.5t7 65.5t1 94v20q4 160 4 241q0 44 -2 131t-2 131q-1 24 -2 73t-2 73q-1 19 -3 56t-3 56q0 69 -25 103q-9 13 -24 20t-24.5 7.5t-29.5 0.5q-10 0 -33 -2t-42 -2t-33 4q-24 6 -39 25 t-15 43q0 73 76 78q30 0 80 -8l80 -6q125 -11 205 -11q27 0 83 2t83 2q22 1 65 2.5t64 2.5q22 1 65.5 3t65.5 3q23 1 68 2t67 2q8 0 25.5 1t25.5 1q41 0 59 2q6 0 19 1t20 1q45 0 72 -27q25 -22 25 -78q0 -18 -3 -51t-4 -41q-8 -86 -8 -129q0 -41 8 -123q7 -44 7 -71 q0 -53 -27 -74q-18 -16 -51 -16q-29 0 -49 20q-8 7 -14 16.5t-9 16.5t-4.5 19t-2 17t0 19t0.5 17v106q0 145 -53 188q-11 10 -26 16.5t-35 9.5t-32.5 4.5t-35.5 2t-27 0.5q-78 4 -123 4q-80 0 -160 -6q-72 -3 -102 -16t-41 -60q-6 -29 -6 -157v-115q0 -49 4 -59 q7 -17 29 -25.5t38 -9t58 -0.5q107 0 139 14q18 10 32.5 30.5t14.5 49.5q0 17 -4 49q-1 7 -2 19.5t-2 22.5t-2 18q0 5 -1 16t-1 16q0 17 4 27q5 16 22 34.5t44 18.5q82 -2 82 -92q0 -24 -6 -71t-7 -56q-10 -95 -10 -174q0 -90 19 -242q4 -36 4 -57q0 -48 -29 -70 q-22 -14 -47 -14q-20 0 -35 10q-41 23 -41 76q0 11 4 39q8 70 8 108q0 49 -34 70q-26 16 -93 16h-104h-3q-3 0 -6 0.5t-8 0l-10 -1t-11 -2t-11 -3.5t-10 -5.5t-9 -8t-7.5 -11t-4.5 -14.5q-3 -9 -3.5 -27t0.5 -52.5t1 -51.5q0 -38 1 -114.5t1 -114.5q1 -42 2.5 -58t7.5 -36.5 t19 -32.5q14 -13 32.5 -18.5t31 -6t54.5 -0.5q39 -2 119 -2q147 0 219 4q114 6 150 50q33 40 33 151v39q-1 16 -2 45t-2 45q0 7 -1 20.5t-1 20.5q0 19 4 27q4 23 22 43t53 20q31 0 48 -12q14 -12 21 -28t8 -25.5t1 -30.5q0 -15 -1 -32.5t-2.5 -39t-2.5 -34.5q-4 -82 -4 -123 q0 -28 4 -90l6 -87q0 -57 -30 -83q-28 -21 -80 -21q-3 0 -285 6q-168 4 -254 4q-106 0 -328 -4q-75 0 -151 -6q-9 0 -26.5 -1t-26.5 -1q-34 0 -54 10q-27 13 -39 43q-2 12 -2 25zM571 1559q0 6 7 20q10 14 86 80q8 7 22 18t19 15q7 6 38 37q9 7 28 22.5t28 22.5q24 23 37 34 t33 21t40 12q43 4 72 -25t29 -73q0 -25 -17 -49q-8 -10 -16.5 -17.5t-22.5 -14.5t-22 -10.5t-31 -11.5t-33 -12t-31.5 -12t-31.5 -12q-3 -1 -51 -19l-68 -24l-31 -13q-5 -2 -16.5 -6.5t-20 -7t-16.5 -2.5q-5 0 -11 1.5t-13 8.5t-7 17z" />
<glyph unicode="&#xca;" d="M14 78q0 12 6 24q6 17 25 32.5t45 15.5q8 0 43 -5q30 -6 60 -6q45 0 71 35q13 19 19 54.5t7 65.5t1 94v20q4 160 4 241q0 44 -2 131t-2 131q-1 24 -2 73t-2 73q-1 19 -3 56t-3 56q0 69 -25 103q-9 13 -24 20t-24.5 7.5t-29.5 0.5q-10 0 -33 -2t-42 -2t-33 4q-24 6 -39 25 t-15 43q0 73 76 78q30 0 80 -8l80 -6q125 -11 205 -11q27 0 83 2t83 2q22 1 65 2.5t64 2.5q22 1 65.5 3t65.5 3q23 1 68 2t67 2q8 0 25.5 1t25.5 1q41 0 59 2q6 0 19 1t20 1q45 0 72 -27q25 -22 25 -78q0 -18 -3 -51t-4 -41q-8 -86 -8 -129q0 -41 8 -123q7 -44 7 -71 q0 -53 -27 -74q-18 -16 -51 -16q-29 0 -49 20q-8 7 -14 16.5t-9 16.5t-4.5 19t-2 17t0 19t0.5 17v106q0 145 -53 188q-11 10 -26 16.5t-35 9.5t-32.5 4.5t-35.5 2t-27 0.5q-78 4 -123 4q-80 0 -160 -6q-72 -3 -102 -16t-41 -60q-6 -29 -6 -157v-115q0 -49 4 -59 q7 -17 29 -25.5t38 -9t58 -0.5q107 0 139 14q18 10 32.5 30.5t14.5 49.5q0 17 -4 49q-1 7 -2 19.5t-2 22.5t-2 18q0 5 -1 16t-1 16q0 17 4 27q5 16 22 34.5t44 18.5q82 -2 82 -92q0 -24 -6 -71t-7 -56q-10 -95 -10 -174q0 -90 19 -242q4 -36 4 -57q0 -48 -29 -70 q-22 -14 -47 -14q-20 0 -35 10q-41 23 -41 76q0 11 4 39q8 70 8 108q0 49 -34 70q-26 16 -93 16h-104h-3q-3 0 -6 0.5t-8 0l-10 -1t-11 -2t-11 -3.5t-10 -5.5t-9 -8t-7.5 -11t-4.5 -14.5q-3 -9 -3.5 -27t0.5 -52.5t1 -51.5q0 -38 1 -114.5t1 -114.5q1 -42 2.5 -58t7.5 -36.5 t19 -32.5q14 -13 32.5 -18.5t31 -6t54.5 -0.5q39 -2 119 -2q147 0 219 4q114 6 150 50q33 40 33 151v39q-1 16 -2 45t-2 45q0 7 -1 20.5t-1 20.5q0 19 4 27q4 23 22 43t53 20q31 0 48 -12q14 -12 21 -28t8 -25.5t1 -30.5q0 -15 -1 -32.5t-2.5 -39t-2.5 -34.5q-4 -82 -4 -123 q0 -28 4 -90l6 -87q0 -57 -30 -83q-28 -21 -80 -21q-3 0 -285 6q-168 4 -254 4q-106 0 -328 -4q-75 0 -151 -6q-9 0 -26.5 -1t-26.5 -1q-34 0 -54 10q-27 13 -39 43q-2 12 -2 25zM350 1563q0 9 9.5 21t20.5 20.5t26.5 19.5t19.5 14q11 7 29 21.5t20 15.5q8 6 21.5 14.5 t25 16.5t21.5 16q9 6 26.5 18.5t26.5 18.5q22 17 59 43q8 5 18 12t14.5 10t11 6.5t11 4.5t9.5 0q11 0 32.5 -14t26.5 -19q5 -4 16.5 -12t16.5 -12q98 -66 127 -88q97 -69 104 -74q45 -32 45 -49q0 -10 -10.5 -18.5t-21.5 -8.5q-7 0 -15 1t-19.5 4t-19.5 5.5t-24.5 8.5 t-25 9.5t-30.5 12t-32 12.5q-63 21 -174 70q-46 -23 -58 -27q-31 -13 -67 -26q-8 -3 -35 -13.5t-41 -15.5q-83 -29 -84 -29q-36 -12 -49 -12q-10 0 -21 6t-10 17z" />
<glyph unicode="&#xcb;" d="M14 78q0 12 6 24q6 17 25 32.5t45 15.5q8 0 43 -5q30 -6 60 -6q45 0 71 35q13 19 19 54.5t7 65.5t1 94v20q4 160 4 241q0 44 -2 131t-2 131q-1 24 -2 73t-2 73q-1 19 -3 56t-3 56q0 69 -25 103q-9 13 -24 20t-24.5 7.5t-29.5 0.5q-10 0 -33 -2t-42 -2t-33 4q-24 6 -39 25 t-15 43q0 73 76 78q30 0 80 -8l80 -6q125 -11 205 -11q27 0 83 2t83 2q22 1 65 2.5t64 2.5q22 1 65.5 3t65.5 3q23 1 68 2t67 2q8 0 25.5 1t25.5 1q41 0 59 2q6 0 19 1t20 1q45 0 72 -27q25 -22 25 -78q0 -18 -3 -51t-4 -41q-8 -86 -8 -129q0 -41 8 -123q7 -44 7 -71 q0 -53 -27 -74q-18 -16 -51 -16q-29 0 -49 20q-8 7 -14 16.5t-9 16.5t-4.5 19t-2 17t0 19t0.5 17v106q0 145 -53 188q-11 10 -26 16.5t-35 9.5t-32.5 4.5t-35.5 2t-27 0.5q-78 4 -123 4q-80 0 -160 -6q-72 -3 -102 -16t-41 -60q-6 -29 -6 -157v-115q0 -49 4 -59 q7 -17 29 -25.5t38 -9t58 -0.5q107 0 139 14q18 10 32.5 30.5t14.5 49.5q0 17 -4 49q-1 7 -2 19.5t-2 22.5t-2 18q0 5 -1 16t-1 16q0 17 4 27q5 16 22 34.5t44 18.5q82 -2 82 -92q0 -24 -6 -71t-7 -56q-10 -95 -10 -174q0 -90 19 -242q4 -36 4 -57q0 -48 -29 -70 q-22 -14 -47 -14q-20 0 -35 10q-41 23 -41 76q0 11 4 39q8 70 8 108q0 49 -34 70q-26 16 -93 16h-104h-3q-3 0 -6 0.5t-8 0l-10 -1t-11 -2t-11 -3.5t-10 -5.5t-9 -8t-7.5 -11t-4.5 -14.5q-3 -9 -3.5 -27t0.5 -52.5t1 -51.5q0 -38 1 -114.5t1 -114.5q1 -42 2.5 -58t7.5 -36.5 t19 -32.5q14 -13 32.5 -18.5t31 -6t54.5 -0.5q39 -2 119 -2q147 0 219 4q114 6 150 50q33 40 33 151v39q-1 16 -2 45t-2 45q0 7 -1 20.5t-1 20.5q0 19 4 27q4 23 22 43t53 20q31 0 48 -12q14 -12 21 -28t8 -25.5t1 -30.5q0 -15 -1 -32.5t-2.5 -39t-2.5 -34.5q-4 -82 -4 -123 q0 -28 4 -90l6 -87q0 -57 -30 -83q-28 -21 -80 -21q-3 0 -285 6q-168 4 -254 4q-106 0 -328 -4q-75 0 -151 -6q-9 0 -26.5 -1t-26.5 -1q-34 0 -54 10q-27 13 -39 43q-2 12 -2 25zM373 1708q0 63 43 102q41 35 90 35q74 0 112 -57q27 -34 27 -76q0 -7 -4 -31q-9 -39 -39 -69 q-41 -39 -92 -39q-33 0 -57 12q-28 12 -54 44.5t-26 78.5zM756 1710q0 57 38 97.5t95 41.5q28 0 53 -10q31 -13 59 -44.5t27 -80.5q0 -51 -27 -86q-42 -53 -108 -53q-25 0 -55 10q-30 14 -56 46.5t-26 78.5z" />
<glyph unicode="&#xcc;" horiz-adv-x="724" d="M16 68q0 35 20 56t56 21q15 0 43 -4q32 -4 53 -4q25 0 39 4q15 6 31 23t23 43q3 11 4 27t1 47t1 49q4 90 4 137q2 84 2 256v287q0 96 -6 188l-1 8q-1 8 -2 14.5t-4 17.5t-7 20t-11.5 19t-17 16.5t-23.5 11t-31 4.5q-15 0 -46 -4.5t-48 -4.5q-66 0 -78 50q-2 6 -2 24 q0 30 20 49.5t50 22.5q23 2 127 -12q89 -13 170 -13q69 0 180 15q88 10 107 10q25 0 41 -8q41 -18 41 -70q0 -17 -13 -35q-22 -33 -67 -33q-15 0 -47.5 4.5t-49.5 4.5q-38 0 -59 -21t-27 -47q-3 -15 -5.5 -32t-4 -44t-2.5 -44t-2 -60.5t-2 -63.5q-2 -82 -2 -249 q0 -208 2 -312q0 -123 6 -182q6 -62 29 -88q25 -29 72 -29q19 0 51 4q28 4 45 4q39 0 57.5 -24.5t18.5 -46.5q0 -30 -19 -51q-19 -19 -28 -19q-10 -4 -41 -4q-27 0 -77.5 6.5t-62.5 7.5q-70 9 -141 9q-67 0 -113 -5q-10 -1 -62.5 -8.5t-80.5 -9.5q-6 0 -18.5 -1t-18.5 -1 q-17 0 -33 6q-41 23 -41 64zM156 1745q0 19 4 31q9 20 30 40t52 23q16 1 29.5 -2.5t29.5 -13.5t24 -16t29.5 -25t28.5 -25q20 -18 55 -45q23 -23 58 -51q53 -46 67 -57l5 -5q6 -5 9 -8.5t7.5 -9.5t7 -13t2.5 -14q0 -9 -8.5 -16.5t-18.5 -7.5q-11 0 -30 8q-141 50 -285 102 q-1 1 -13 5t-20.5 8t-21 12.5t-21 18.5t-14.5 26t-6 35z" />
<glyph unicode="&#xcd;" horiz-adv-x="724" d="M16 68q0 35 20 56t56 21q15 0 43 -4q32 -4 53 -4q25 0 39 4q15 6 31 23t23 43q3 11 4 27t1 47t1 49q4 90 4 137q2 84 2 256v287q0 96 -6 188l-1 8q-1 8 -2 14.5t-4 17.5t-7 20t-11.5 19t-17 16.5t-23.5 11t-31 4.5q-15 0 -46 -4.5t-48 -4.5q-66 0 -78 50q-2 6 -2 24 q0 30 20 49.5t50 22.5q23 2 127 -12q89 -13 170 -13q69 0 180 15q88 10 107 10q25 0 41 -8q41 -18 41 -70q0 -17 -13 -35q-22 -33 -67 -33q-15 0 -47.5 4.5t-49.5 4.5q-38 0 -59 -21t-27 -47q-3 -15 -5.5 -32t-4 -44t-2.5 -44t-2 -60.5t-2 -63.5q-2 -82 -2 -249 q0 -208 2 -312q0 -123 6 -182q6 -62 29 -88q25 -29 72 -29q19 0 51 4q28 4 45 4q39 0 57.5 -24.5t18.5 -46.5q0 -30 -19 -51q-19 -19 -28 -19q-10 -4 -41 -4q-27 0 -77.5 6.5t-62.5 7.5q-70 9 -141 9q-67 0 -113 -5q-10 -1 -62.5 -8.5t-80.5 -9.5q-6 0 -18.5 -1t-18.5 -1 q-17 0 -33 6q-41 23 -41 64zM250 1559q0 9 8 20q24 31 86 80q8 7 22 18t19 15q14 12 39 37q14 11 53 45q26 23 39 34t33 21t39 12q43 4 72.5 -25t29.5 -73q0 -26 -18 -49q-7 -10 -16 -17.5t-22 -14.5t-22.5 -10.5t-30.5 -11.5t-32 -12q-10 -4 -32 -12t-32 -12 q-9 -3 -26.5 -9.5t-26.5 -9.5q-27 -11 -65 -24q-5 -2 -16.5 -6.5t-16.5 -6.5q-4 -2 -12 -5t-13 -5t-12.5 -4t-13.5 -2t-12.5 1.5t-13.5 8.5t-7 17z" />
<glyph unicode="&#xce;" horiz-adv-x="724" d="M16 68q0 35 20 56t56 21q15 0 43 -4q32 -4 53 -4q25 0 39 4q15 6 31 23t23 43q3 11 4 27t1 47t1 49q4 90 4 137q2 84 2 256v287q0 96 -6 188l-1 8q-1 8 -2 14.5t-4 17.5t-7 20t-11.5 19t-17 16.5t-23.5 11t-31 4.5q-15 0 -46 -4.5t-48 -4.5q-66 0 -78 50q-2 6 -2 24 q0 30 20 49.5t50 22.5q23 2 127 -12q89 -13 170 -13q69 0 180 15q88 10 107 10q25 0 41 -8q41 -18 41 -70q0 -17 -13 -35q-22 -33 -67 -33q-15 0 -47.5 4.5t-49.5 4.5q-38 0 -59 -21t-27 -47q-3 -15 -5.5 -32t-4 -44t-2.5 -44t-2 -60.5t-2 -63.5q-2 -82 -2 -249 q0 -208 2 -312q0 -123 6 -182q6 -62 29 -88q25 -29 72 -29q19 0 51 4q28 4 45 4q39 0 57.5 -24.5t18.5 -46.5q0 -30 -19 -51q-19 -19 -28 -19q-10 -4 -41 -4q-27 0 -77.5 6.5t-62.5 7.5q-70 9 -141 9q-67 0 -113 -5q-10 -1 -62.5 -8.5t-80.5 -9.5q-6 0 -18.5 -1t-18.5 -1 q-17 0 -33 6q-41 23 -41 64zM29 1563q1 9 11 21t20.5 20.5t26 19.5t19.5 14l50 37q51 35 67 47q9 6 26.5 18.5t26.5 18.5q13 10 60 43q7 5 17 12t14 10t10 6.5t10.5 4.5t9.5 0q9 0 24 -8t25.5 -16t10.5 -9q6 -4 17.5 -12t17.5 -12q89 -60 126 -88q79 -57 105 -74 q45 -32 45 -49q-1 -10 -11.5 -18.5t-21.5 -8.5q-7 0 -15.5 1t-19.5 4t-20 6t-24 8.5t-25.5 9.5t-30.5 11.5t-33 12.5q-51 18 -174 70q-39 -22 -55 -27q-32 -13 -70 -26q-70 -28 -73 -29q-14 -5 -43 -14.5t-43 -14.5q-24 -12 -50 -12q-10 0 -20 6t-10 17z" />
<glyph unicode="&#xcf;" horiz-adv-x="724" d="M16 68q0 35 20 56t56 21q15 0 43 -4q32 -4 53 -4q25 0 39 4q15 6 31 23t23 43q3 11 4 27t1 47t1 49q4 90 4 137q2 84 2 256v287q0 96 -6 188l-1 8q-1 8 -2 14.5t-4 17.5t-7 20t-11.5 19t-17 16.5t-23.5 11t-31 4.5q-15 0 -46 -4.5t-48 -4.5q-66 0 -78 50q-2 6 -2 24 q0 30 20 49.5t50 22.5q23 2 127 -12q89 -13 170 -13q69 0 180 15q88 10 107 10q25 0 41 -8q41 -18 41 -70q0 -17 -13 -35q-22 -33 -67 -33q-15 0 -47.5 4.5t-49.5 4.5q-38 0 -59 -21t-27 -47q-3 -15 -5.5 -32t-4 -44t-2.5 -44t-2 -60.5t-2 -63.5q-2 -82 -2 -249 q0 -208 2 -312q0 -123 6 -182q6 -62 29 -88q25 -29 72 -29q19 0 51 4q28 4 45 4q39 0 57.5 -24.5t18.5 -46.5q0 -30 -19 -51q-19 -19 -28 -19q-10 -4 -41 -4q-27 0 -77.5 6.5t-62.5 7.5q-70 9 -141 9q-67 0 -113 -5q-10 -1 -62.5 -8.5t-80.5 -9.5q-6 0 -18.5 -1t-18.5 -1 q-17 0 -33 6q-41 23 -41 64zM51 1708q0 63 43 102q47 35 92 35q71 0 113 -57q25 -36 25 -76q0 -19 -2 -31q-8 -33 -39 -69q-41 -39 -93 -39q-31 0 -59 12t-54 44.5t-26 78.5zM436 1710q0 57 37 97.5t94 41.5q31 0 56 -10q31 -13 59 -44.5t27 -80.5q0 -48 -29 -86 q-42 -53 -107 -53q-25 0 -55 10q-30 14 -56 46.5t-26 78.5z" />
<glyph unicode="&#xd1;" horiz-adv-x="1492" d="M12 1368q0 11 4 27q7 21 27.5 35t52.5 14q17 0 46.5 -3.5t39.5 -4.5q70 -4 107 -4q71 0 141 6q5 0 30.5 3t39.5 3q26 0 53 -17q13 -9 23.5 -22t14.5 -21.5t12 -27.5t11 -25q12 -24 32 -73t32 -74q17 -40 86.5 -204t109.5 -251q19 -45 60 -134t61 -134q82 -186 140 -309 q-5 210 -5 247q-1 33 -1 69t0.5 80t0.5 68v428q0 87 -4 132q3 65 -24 100q-24 33 -68 33l-69 -6q-35 -5 -45 -5q-42 0 -60 23.5t-18 50.5q0 11 4 27q24 47 76 47q26 -1 74 -7.5t67 -8.5q90 -11 145 -11q35 0 101 8q122 15 147 15q32 0 51 -17q25 -20 25 -55 q0 -25 -18.5 -49.5t-59.5 -24.5q-12 0 -34 3.5t-34 3.5q-42 0 -59 -27q-5 -6 -8.5 -13.5t-6 -13t-4.5 -14t-3 -13t-2 -14t-1.5 -12.5t-1 -13.5t-0.5 -11.5q-4 -54 -4 -79q-1 -36 -2 -106.5t-2 -106.5q-2 -100 -2 -306v-190q0 -25 -1 -74t-1 -73q0 -9 -0.5 -41t-1.5 -52 t-5.5 -46.5t-12.5 -43.5q-26 -44 -54 -59q-12 -6 -26 -10q-24 -9 -43 -9q-35 0 -67.5 18.5t-52 40.5t-38 54t-23.5 44t-10 26q-5 12 -16 33.5t-16 33.5l-43 99q-23 56 -146 333q-44 100 -125.5 283t-105.5 238q-1 3 -13.5 30t-19.5 45q-2 3 -5.5 13t-6.5 15t-6 5t-6 -7.5 t-3 -14.5q0 -15 4 -39q5 -71 5 -72q1 -25 2 -74t2 -75q2 -77 3 -165.5t1.5 -195t1.5 -164.5q0 -113 4 -170q3 -96 18 -127q24 -45 80 -45q17 0 51 5t50 5q15 -2 29.5 -6.5t30.5 -23t15 -47.5q0 -26 -10 -39q-20 -29 -74 -29q-29 0 -139 14q-62 9 -123 9q-47 0 -170 -13 q-25 -2 -80 -10q-32 -4 -45 -4q-46 0 -69 29q-15 20 -15 43q0 30 16.5 48.5t32 22.5t29.5 4q13 0 41 -4q45 -5 55 -4q39 0 60 17q19 16 26 30q11 26 11 43q6 37 6 148q2 27 2 78q2 61 2 184q0 40 -1 120t-1 120q0 203 -8 303q-6 66 -29 96q-23 29 -72 29q-15 0 -46 -4.5 t-48 -4.5q-39 0 -58.5 23.5t-19.5 48.5zM492 1614q0 11 5 34t28 64t61 66q36 22 90 26q6 3 22 1t21.5 -1.5t21.5 -3t22 -4t22 -5.5t22 -6.5t22 -7.5t22 -8t22 -8t22 -8q91 -31 125 -31q39 0 72 27q3 3 12.5 13.5t15.5 15.5q11 8 19 8q11 0 18.5 -9.5t7.5 -19.5 q0 -37 -24 -86q-52 -106 -172 -106q-41 0 -74 9t-127 42q-5 2 -25.5 9.5t-54.5 15.5t-57 8q-43 0 -72 -33q-3 -4 -5.5 -7.5t-5 -7.5t-3.5 -6q-11 -16 -27 -16q-10 0 -18 9t-8 26z" />
<glyph unicode="&#xd2;" d="M82 735q0 236 92 426q25 49 59 96q84 106 177 158q99 53 268 66q40 2 119 -6q139 -18 235 -82q25 -14 76 -62q51 -51 84 -102q59 -91 98 -228q27 -109 27 -274q0 -174 -47 -324q-21 -66 -43 -108q-31 -70 -97 -143q-24 -28 -57.5 -59t-56.5 -44q-21 -17 -80 -39 q-110 -47 -234 -47q-161 0 -288 64q-82 41 -144 114q-54 59 -90 129q-42 84 -66.5 196.5t-28 168.5t-3.5 100zM276 733q0 -97 17 -194t33 -140q51 -136 145 -206q43 -34 104 -53.5t90.5 -22t53.5 -2.5q102 0 184 47q38 22 70 55q58 58 100 166q53 144 53 371q0 170 -45 301 q-54 154 -174 229q-32 19 -57 29q-29 12 -90 22q-50 4 -78 2q-114 -3 -209 -69t-147 -205q-50 -147 -50 -330zM475 1745q0 13 6 31q6 19 27.5 39.5t52.5 23.5q16 1 29.5 -2.5t29.5 -13.5t24 -16t29.5 -25t28.5 -25q13 -12 56 -45q27 -27 57 -51q12 -10 34 -29t34 -28l5 -4 l9 -9t8.5 -10t7 -13t2.5 -14q0 -9 -8.5 -16.5t-19.5 -7.5q-10 0 -31 8q-159 56 -283 102q-2 1 -13.5 5t-20.5 8t-21.5 12.5t-21 18.5t-15 26t-6.5 35z" />
<glyph unicode="&#xd3;" d="M82 735q0 236 92 426q25 49 59 96q84 106 177 158q99 53 268 66q40 2 119 -6q139 -18 235 -82q25 -14 76 -62q51 -51 84 -102q59 -91 98 -228q27 -109 27 -274q0 -174 -47 -324q-21 -66 -43 -108q-31 -70 -97 -143q-24 -28 -57.5 -59t-56.5 -44q-21 -17 -80 -39 q-110 -47 -234 -47q-161 0 -288 64q-82 41 -144 114q-54 59 -90 129q-42 84 -66.5 196.5t-28 168.5t-3.5 100zM276 733q0 -97 17 -194t33 -140q51 -136 145 -206q43 -34 104 -53.5t90.5 -22t53.5 -2.5q102 0 184 47q38 22 70 55q58 58 100 166q53 144 53 371q0 170 -45 301 q-54 154 -174 229q-32 19 -57 29q-29 12 -90 22q-50 4 -78 2q-114 -3 -209 -69t-147 -205q-50 -147 -50 -330zM571 1559q0 6 7 20q10 14 86 80q8 7 22 18t19 15q7 6 38 37q9 7 28 22.5t28 22.5q24 23 37 34t33 21t40 12q43 4 72 -25t29 -73q0 -25 -17 -49 q-8 -10 -16.5 -17.5t-22.5 -14.5t-22 -10.5t-31 -11.5t-33 -12t-31.5 -12t-31.5 -12q-3 -1 -51 -19l-68 -24l-31 -13q-5 -2 -16.5 -6.5t-20 -7t-16.5 -2.5q-5 0 -11 1.5t-13 8.5t-7 17z" />
<glyph unicode="&#xd4;" d="M82 735q0 236 92 426q25 49 59 96q84 106 177 158q99 53 268 66q40 2 119 -6q139 -18 235 -82q25 -14 76 -62q51 -51 84 -102q59 -91 98 -228q27 -109 27 -274q0 -174 -47 -324q-21 -66 -43 -108q-31 -70 -97 -143q-24 -28 -57.5 -59t-56.5 -44q-21 -17 -80 -39 q-110 -47 -234 -47q-161 0 -288 64q-82 41 -144 114q-54 59 -90 129q-42 84 -66.5 196.5t-28 168.5t-3.5 100zM276 733q0 -97 17 -194t33 -140q51 -136 145 -206q43 -34 104 -53.5t90.5 -22t53.5 -2.5q102 0 184 47q38 22 70 55q58 58 100 166q53 144 53 371q0 170 -45 301 q-54 154 -174 229q-32 19 -57 29q-29 12 -90 22q-50 4 -78 2q-114 -3 -209 -69t-147 -205q-50 -147 -50 -330zM350 1563q0 9 9.5 21t20.5 20.5t26.5 19.5t19.5 14q11 7 29 21.5t20 15.5q8 6 21.5 14.5t25 16.5t21.5 16q9 6 26.5 18.5t26.5 18.5q22 17 59 43q8 5 18 12 t14.5 10t11 6.5t11 4.5t9.5 0q11 0 32.5 -14t26.5 -19q5 -4 16.5 -12t16.5 -12q98 -66 127 -88q97 -69 104 -74q45 -32 45 -49q0 -10 -10.5 -18.5t-21.5 -8.5q-7 0 -15 1t-19.5 4t-19.5 5.5t-24.5 8.5t-25 9.5t-30.5 12t-32 12.5q-63 21 -174 70q-46 -23 -58 -27 q-31 -13 -67 -26q-8 -3 -35 -13.5t-41 -15.5q-83 -29 -84 -29q-36 -12 -49 -12q-10 0 -21 6t-10 17z" />
<glyph unicode="&#xd5;" d="M82 735q0 236 92 426q25 49 59 96q84 106 177 158q99 53 268 66q40 2 119 -6q139 -18 235 -82q25 -14 76 -62q51 -51 84 -102q59 -91 98 -228q27 -109 27 -274q0 -174 -47 -324q-21 -66 -43 -108q-31 -70 -97 -143q-24 -28 -57.5 -59t-56.5 -44q-21 -17 -80 -39 q-110 -47 -234 -47q-161 0 -288 64q-82 41 -144 114q-54 59 -90 129q-42 84 -66.5 196.5t-28 168.5t-3.5 100zM276 733q0 -97 17 -194t33 -140q51 -136 145 -206q43 -34 104 -53.5t90.5 -22t53.5 -2.5q102 0 184 47q38 22 70 55q58 58 100 166q53 144 53 371q0 170 -45 301 q-54 154 -174 229q-32 19 -57 29q-29 12 -90 22q-50 4 -78 2q-114 -3 -209 -69t-147 -205q-50 -147 -50 -330zM362 1614q0 11 5 34t28.5 64t61.5 66q36 22 90 26q6 3 22.5 1t22 -1t22 -3t22 -4.5t22 -5.5t22 -6.5t22 -7.5l22 -8l22 -8t22.5 -8q88 -31 123 -31q41 0 72 27 l28 29q11 8 19 8q11 0 18.5 -9.5t7.5 -19.5q0 -41 -22 -86q-54 -106 -172 -106q-41 0 -75.5 9.5t-125.5 41.5q-99 33 -137 33q-45 0 -74 -33q-2 -3 -6.5 -10.5t-7.5 -10.5q-11 -16 -27 -16q-9 0 -18 9t-9 26z" />
<glyph unicode="&#xd6;" d="M84 730v2v1q0 238 84 416q35 69 61 100q20 34 70.5 84.5t122.5 87.5q53 26 126.5 42t133.5 18q162 7 287 -51q58 -27 121 -80q107 -94 168 -254t61 -371q0 -178 -50 -322.5t-120 -230.5q-65 -84 -162 -139q-53 -27 -141 -51q-86 -19 -141 -19q-150 0 -254.5 46.5 t-184.5 135.5q-52 58 -90 137.5t-55 145t-26.5 141t-10 104.5t-0.5 57zM276 739q0 -26 2.5 -71.5t15 -128.5t32.5 -140q19 -53 46.5 -97t58.5 -73t56.5 -47t51.5 -30q18 -8 40 -14.5t36 -9.5t18 -3q52 -10 94 -10q91 0 174 45q2 1 47 35q56 48 94 120t55 152t23 143t6 127 q0 31 -1.5 73t-17 136t-42.5 152q-38 84 -93.5 136t-99.5 71q-80 34 -180 34q-1 0 -11.5 -0.5t-14 -1t-14 -1.5t-17 -2t-17.5 -3t-20.5 -5t-21 -6.5t-23.5 -8.5t-25 -11q-33 -14 -51 -28q-33 -22 -61 -58q-78 -89 -111 -221q-29 -136 -29 -254zM369 1710q0 30 14 62 q38 68 115 73q52 5 92 -30q51 -37 51 -107q0 -21 -6 -39q-18 -55 -64 -78q-29 -16 -71 -16q-30 0 -47 10q-30 12 -57 44.5t-27 80.5zM754 1714q0 26 10 51q13 30 43 54.5t74 27.5q58 3 101.5 -35.5t43.5 -97.5q0 -32 -14 -63q-13 -29 -45.5 -53t-75.5 -23q-51 0 -86 29 q-51 40 -51 110z" />
<glyph unicode="&#xd7;" d="M172 170l424 426l-424 422l86 86l424 -424l426 424l84 -86l-424 -422l424 -426l-84 -84l-426 424l-424 -424z" />
<glyph unicode="&#xd8;" d="M84 694q0 368 162 574q40 51 82 84q102 88 245 114q67 15 138 15q120 0 215 -39q20 -7 51 -27l63 129q13 26 23.5 32.5t36.5 8.5h74q10 0 15 -0.5t10 -5.5t5 -14q0 -4 -2.5 -11t-5.5 -12l-2 -4l-100 -197q56 -60 69 -79q24 -32 59 -99.5t54 -134.5q39 -131 39 -321v-3 v-37t-4.5 -64.5t-12 -88t-24 -99.5t-39.5 -108.5t-60.5 -104.5t-84.5 -96q-56 -53 -110.5 -80t-121.5 -42q-86 -19 -164 -19q-125 0 -207 31q-20 6 -71 33l-66 -127q-10 -22 -21 -28.5t-34 -6.5h-78q-29 0 -29 20q0 5 7 19l104 203q-55 51 -92 104q-52 79 -87.5 202 t-35.5 279zM274 719q0 -149 27 -264q19 -84 43 -138q2 -6 33 -61l534 1030q-31 20 -51 27q-58 24 -151 24q-121 0 -197 -43q-37 -20 -72 -55q-51 -48 -78 -100q-36 -65 -62 -175t-26 -245zM481 158q36 -20 56.5 -29.5t62.5 -19t94 -9.5q77 0 154 31q30 10 67 33 q87 56 142 174q27 58 48 155t21 212q0 61 -6 122l-2 17q-2 18 -3 29t-5 34.5t-7.5 42t-10.5 45.5t-15 50t-19 50.5t-24 51.5q-6 14 -22 37z" />
<glyph unicode="&#xd9;" horiz-adv-x="1449" d="M-2 1376q0 14 6 29q22 36 68 39q31 1 123 -12q90 -11 145 -11q77 0 170 13q82 10 98 10q90 0 90 -76q0 -29 -22 -49q-21 -21 -55 -21q-8 0 -48 5q-27 6 -57 6q-52 0 -76 -47q-19 -36 -22 -184v-19q-1 -17 -2 -51t-2 -52q-4 -218 -4 -329q0 -170 4 -219q4 -71 22.5 -124.5 t71.5 -93.5q92 -73 248 -73q71 0 148.5 26.5t121.5 89.5q18 25 29.5 62.5t13.5 57.5t2 30q2 23 2 68q2 61 2 184q0 337 -2 403q-1 66 -2.5 100t-8 73t-18.5 57q-23 41 -79 41q-16 0 -49.5 -5.5t-51.5 -5.5q-41 0 -58.5 23t-17.5 49q0 28 17 49q16 16 31 21q18 6 38 6 q33 -2 99 -10q119 -13 166 -13q43 0 153 13q55 10 101 10q22 0 34 -6q16 -6 31 -22.5t15 -41.5q0 -17 -7 -33q-24 -43 -71 -43q-9 0 -27.5 2.5t-30 3t-27.5 -6t-28 -21.5q-15 -20 -22 -47q-11 -62 -11 -332q2 -139 2 -416q0 -49 -2.5 -86t-10.5 -87t-25.5 -90t-44.5 -80.5 t-71 -73.5t-102 -56q-111 -47 -245 -47q-223 0 -365 96q-89 64 -127 164q-29 74 -29 228q0 92 3.5 274.5t3.5 273.5q0 29 -5 166q0 2 -0.5 14.5t-1 16.5t-1.5 16t-2.5 17.5t-4.5 16t-6.5 17t-9 14t-12.5 13.5q-16 13 -50 13q-8 0 -32 -2.5t-42 -1.5t-32 8q-39 19 -39 69z M498 1745q0 19 4 31q6 19 27.5 39.5t52.5 23.5q13 0 26.5 -3t22.5 -7t23.5 -14t21.5 -15.5t24.5 -21t24.5 -21.5q10 -9 28 -24t25 -21q30 -27 60 -51q59 -51 67 -57q0 -1 9 -9.5t15.5 -19t6.5 -21.5q0 -9 -8.5 -16.5t-18.5 -7.5q-11 0 -30 8q-144 50 -285 102q-1 1 -13 5 t-20.5 8t-21 12.5t-21 18.5t-14.5 26t-6 35z" />
<glyph unicode="&#xda;" horiz-adv-x="1449" d="M-2 1376q0 14 6 29q22 36 68 39q31 1 123 -12q90 -11 145 -11q77 0 170 13q82 10 98 10q90 0 90 -76q0 -29 -22 -49q-21 -21 -55 -21q-8 0 -48 5q-27 6 -57 6q-52 0 -76 -47q-19 -36 -22 -184v-19q-1 -17 -2 -51t-2 -52q-4 -218 -4 -329q0 -170 4 -219q4 -71 22.5 -124.5 t71.5 -93.5q92 -73 248 -73q71 0 148.5 26.5t121.5 89.5q18 25 29.5 62.5t13.5 57.5t2 30q2 23 2 68q2 61 2 184q0 337 -2 403q-1 66 -2.5 100t-8 73t-18.5 57q-23 41 -79 41q-16 0 -49.5 -5.5t-51.5 -5.5q-41 0 -58.5 23t-17.5 49q0 28 17 49q16 16 31 21q18 6 38 6 q33 -2 99 -10q119 -13 166 -13q43 0 153 13q55 10 101 10q22 0 34 -6q16 -6 31 -22.5t15 -41.5q0 -17 -7 -33q-24 -43 -71 -43q-9 0 -27.5 2.5t-30 3t-27.5 -6t-28 -21.5q-15 -20 -22 -47q-11 -62 -11 -332q2 -139 2 -416q0 -49 -2.5 -86t-10.5 -87t-25.5 -90t-44.5 -80.5 t-71 -73.5t-102 -56q-111 -47 -245 -47q-223 0 -365 96q-89 64 -127 164q-29 74 -29 228q0 92 3.5 274.5t3.5 273.5q0 29 -5 166q0 2 -0.5 14.5t-1 16.5t-1.5 16t-2.5 17.5t-4.5 16t-6.5 17t-9 14t-12.5 13.5q-16 13 -50 13q-8 0 -32 -2.5t-42 -1.5t-32 8q-39 19 -39 69z M592 1559q0 9 8 20q14 19 84 80q8 6 23 17.5t20 15.5q7 6 19 18t20 19t26.5 22.5t26.5 22.5q66 63 111 67q43 4 71.5 -25t28.5 -73q0 -26 -16 -49q-7 -10 -16 -17.5t-22 -14.5t-22.5 -10.5t-30.5 -11.5t-32 -12q-12 -4 -33.5 -12t-32.5 -12q-8 -3 -25.5 -9.5t-25.5 -9.5 q-11 -4 -32.5 -12t-32.5 -12q-5 -2 -16.5 -6.5t-16.5 -6.5q-43 -16 -53 -16q-5 0 -11 1.5t-13 8.5t-7 17z" />
<glyph unicode="&#xdb;" horiz-adv-x="1449" d="M-2 1376q0 14 6 29q22 36 68 39q31 1 123 -12q90 -11 145 -11q77 0 170 13q82 10 98 10q90 0 90 -76q0 -29 -22 -49q-21 -21 -55 -21q-8 0 -48 5q-27 6 -57 6q-52 0 -76 -47q-19 -36 -22 -184v-19q-1 -17 -2 -51t-2 -52q-4 -218 -4 -329q0 -170 4 -219q4 -71 22.5 -124.5 t71.5 -93.5q92 -73 248 -73q71 0 148.5 26.5t121.5 89.5q18 25 29.5 62.5t13.5 57.5t2 30q2 23 2 68q2 61 2 184q0 337 -2 403q-1 66 -2.5 100t-8 73t-18.5 57q-23 41 -79 41q-16 0 -49.5 -5.5t-51.5 -5.5q-41 0 -58.5 23t-17.5 49q0 28 17 49q16 16 31 21q18 6 38 6 q33 -2 99 -10q119 -13 166 -13q43 0 153 13q55 10 101 10q22 0 34 -6q16 -6 31 -22.5t15 -41.5q0 -17 -7 -33q-24 -43 -71 -43q-9 0 -27.5 2.5t-30 3t-27.5 -6t-28 -21.5q-15 -20 -22 -47q-11 -62 -11 -332q2 -139 2 -416q0 -49 -2.5 -86t-10.5 -87t-25.5 -90t-44.5 -80.5 t-71 -73.5t-102 -56q-111 -47 -245 -47q-223 0 -365 96q-89 64 -127 164q-29 74 -29 228q0 92 3.5 274.5t3.5 273.5q0 29 -5 166q0 2 -0.5 14.5t-1 16.5t-1.5 16t-2.5 17.5t-4.5 16t-6.5 17t-9 14t-12.5 13.5q-16 13 -50 13q-8 0 -32 -2.5t-42 -1.5t-32 8q-39 19 -39 69z M391 1563q1 12 14 25.5t39 31.5l25 18l49 37q6 4 29.5 20.5t38.5 26.5q9 6 26.5 18.5t26.5 18.5q22 17 59 43q5 4 13 9.5t11 7.5t9.5 6t8.5 5t7.5 3.5t7 1.5t7.5 0q8 0 22 -8t24.5 -16t10.5 -9q30 -20 35 -24q98 -66 127 -88q97 -69 104 -74q45 -32 45 -49q-1 -10 -11 -18.5 t-21 -8.5q-7 0 -15 1t-19.5 4t-19.5 5.5t-24.5 8.5t-25 9.5t-30.5 12t-32 12.5q-54 18 -176 70q-38 -21 -56 -27q-31 -13 -67 -26q-8 -3 -35 -13.5t-41 -15.5q-83 -29 -84 -29q-36 -12 -51 -12q-10 0 -20.5 6t-10.5 17z" />
<glyph unicode="&#xdc;" horiz-adv-x="1449" d="M-2 1372q0 23 17 46t55 26q16 1 35 -0.5t32.5 -3.5t36 -5.5t33.5 -4.5q90 -11 145 -11q40 0 146 13q11 1 33 4.5t40.5 5.5t34.5 2q49 0 74 -25q18 -20 18 -47q0 -37 -22 -57q-23 -19 -55 -19q-17 0 -51 6.5t-52 6.5q-32 0 -55 -19q-18 -16 -23 -30q-17 -32 -20 -152 q-1 -22 -2 -65t-2 -64q-6 -170 -6 -338q0 -158 4 -238q4 -62 16 -104t49 -82q33 -33 53 -45q34 -21 93.5 -38t128.5 -17q85 0 151.5 26.5t102.5 65.5q6 6 18 22q15 22 21 39q18 39 23 89.5t5 148.5v110q0 28 1 85t1 85t-1 87t-1 88q-1 25 -2 76t-2 77l-1 18q-1 19 -1.5 27 t-2.5 27t-5 31t-7.5 27t-11.5 26t-16 18q-21 19 -63 19q-16 0 -49.5 -5.5t-51.5 -5.5q-39 0 -56.5 24.5t-17.5 45.5q0 30 21 53t68 23q32 0 98 -8q9 -1 46.5 -6.5t57.5 -6.5q9 0 28.5 -1t29.5 -1q55 0 151 15q88 10 105 10q34 0 57 -20t23 -54q0 -22 -15 -41 q-22 -31 -69 -31q-4 0 -13 1.5t-14 1.5q-20 5 -41.5 0.5t-38.5 -25.5q-5 -7 -9.5 -16t-7.5 -17l-3 -8q-11 -43 -11 -281v-340v-188q-4 -244 -149 -358q-31 -27 -86 -52q-117 -55 -273 -55q-109 0 -200 25q-32 8 -68 24q-31 11 -49 23q-120 66 -160 174q-37 84 -37 237 q0 107 2 160q5 333 5 400q0 94 -5 163q0 2 -0.5 14t-1 18t-2 17.5t-4 19.5t-6 17.5t-8.5 17t-12 13.5q-14 12 -29 14.5t-45 -0.5q-32 -4 -51 -4q-17 0 -29 7q-45 19 -45 69zM416 1710q0 55 36.5 92.5t90.5 42.5q59 4 102 -37t43 -98q-4 -57 -37 -92q-40 -45 -102 -45 q-7 0 -20.5 2t-37.5 13t-40 28q-35 41 -35 94zM799 1712q0 51 35.5 90t87.5 45q60 6 104.5 -35.5t44.5 -101.5q0 -58 -40.5 -97.5t-98.5 -39.5q-30 0 -64 18q-69 39 -69 121z" />
<glyph unicode="&#xdf;" horiz-adv-x="1280" d="M12 80q0 23 14 39t29 22q14 4 33 4q11 0 32.5 -4.5t29.5 -5.5q28 -4 40 -4q35 0 48 37q8 24 8 80q3 43 3 91t-1.5 107.5t-1.5 92.5q0 37 -1 111.5t-1 111.5q0 28 -4 82q-5 36 -11 49q-17 25 -43 25q-10 0 -29 -2.5t-28 -2.5q-36 0 -59 18t-23 54q0 22 17 45t53 23 q15 0 47 -7.5t49 -7.5q20 0 35 15q7 7 11.5 15t6 13t4 20t4.5 23q13 54 33 101q29 69 73.5 119.5t85.5 75t91 38.5t76.5 16.5t54.5 2.5q161 0 266 -80q56 -42 85.5 -99t29.5 -116q0 -121 -111 -213q-17 -14 -47 -34t-41 -28q-45 -32 -45 -65q0 -13 11 -27q13 -17 104 -74 q132 -78 190 -131q74 -69 103 -153q16 -61 16 -109q0 -78 -35 -155q-37 -83 -123 -147t-210 -64q-99 0 -181 43q-28 13 -53 36q0 -41 -10 -59q-22 -33 -55 -33q-10 0 -21 2.5t-28.5 16t-22.5 37.5q-4 14 -4 36q0 25 6 77t6 79q0 51 -2 78q-1 12 -4.5 44.5t-3.5 51.5 q0 59 37 82q16 12 37 12q5 0 13.5 -1.5t22.5 -8.5t21 -18q12 -20 12 -68q0 -9 -1 -26.5t-1 -26.5q-10 -115 76 -172q61 -39 133 -39q69 0 121 33q14 7 31 24q8 5 26 27q43 62 43 135q0 82 -65 145q-71 66 -185 134q-14 9 -42 26t-49 30.5t-38 27.5q-73 60 -73 124 q0 36 20 68q5 9 21 27q11 15 18 20q13 12 55 45q110 87 136 129q16 27 16 62q0 45 -25 78q-52 65 -170 65q-112 0 -184 -68q-23 -23 -27 -28q-11 -13 -20.5 -28t-16.5 -27t-13.5 -30.5t-10.5 -29t-7.5 -32t-5 -29t-4 -31.5t-3 -28.5t-2 -30.5t-1.5 -27q-4 -110 -4 -164 q0 -65 4 -197q0 -38 5 -243q1 -22 2.5 -61.5t2.5 -72t1 -61.5t-1 -43t-11 -38.5t-31 -37.5q-24 -16 -62 -16q-7 0 -22.5 1t-22.5 1q-36 4 -59 4q-15 0 -46 -3t-48 -3q-79 3 -93 45q-6 12 -6 33z" />
<glyph unicode="&#xe0;" horiz-adv-x="1193" d="M78 289q0 115 70 191.5t190 105.5q35 9 76 14.5t90.5 11t77.5 9.5q92 13 133 36q33 19 48 48.5t15 82.5q0 78 -45 123q-58 54 -186 54q-109 0 -174 -47q-14 -10 -23.5 -23.5t-9.5 -20.5q1 -9 15.5 -22.5t17.5 -17.5q16 -26 16 -58q0 -46 -33 -72t-75 -26q-31 0 -62 14 q-69 35 -69 123q0 85 55 150q53 61 143.5 98t212.5 37q113 0 199 -37q35 -15 74 -47q46 -33 77 -96q21 -39 29 -84t8 -123q0 -50 -3 -152t-3 -153v-152q0 -80 16 -109q18 -34 60 -34q47 0 65 43q10 22 13 100q0 103 4 119q15 45 61 45q25 0 41.5 -10t22.5 -26t8 -26t2 -20 v-53v-32t-4 -70.5t-14 -69.5q-14 -44 -46 -76q-55 -51 -159 -51q-88 0 -146 39l-11 9q-11 8 -17 15q-28 30 -37 90q-36 -69 -109 -110q-98 -54 -235 -54q-106 0 -185 33q-29 10 -73 39q-48 35 -84.5 98t-36.5 144zM250 297q0 -39 8.5 -66.5t38.5 -52.5q27 -27 63 -41 q48 -16 105 -16q17 0 36.5 2t65 11.5t89 37.5t73.5 70q25 37 36 85.5t13 92t2 141.5q-36 -33 -71 -47q-13 -6 -25.5 -10.5t-28 -8t-25.5 -6t-29 -5.5t-25.5 -4t-28 -4t-25.5 -3q-41 -4 -123 -16q-149 -36 -149 -160zM344 1409q0 33 25 63t63 33q13 1 27 -2.5t24 -8t25 -15.5 t22 -17t24.5 -21.5t23.5 -21.5q14 -11 63 -55q22 -18 62.5 -53t48.5 -41q32 -28 32 -47q0 -25 -32 -25q-11 0 -52 14l-26 13q-24 9 -75 25.5t-75 25.5q-11 4 -39.5 15.5t-44.5 17.5q-3 1 -15.5 5.5t-16.5 6t-13.5 6t-14 9t-11 11.5t-11.5 15q-14 23 -14 47z" />
<glyph unicode="&#xe1;" horiz-adv-x="1193" d="M78 289q0 115 70 191.5t190 105.5q35 9 76 14.5t90.5 11t77.5 9.5q92 13 133 36q33 19 48 48.5t15 82.5q0 78 -45 123q-58 54 -186 54q-109 0 -174 -47q-14 -10 -23.5 -23.5t-9.5 -20.5q1 -9 15.5 -22.5t17.5 -17.5q16 -26 16 -58q0 -46 -33 -72t-75 -26q-31 0 -62 14 q-69 35 -69 123q0 85 55 150q53 61 143.5 98t212.5 37q113 0 199 -37q35 -15 74 -47q46 -33 77 -96q21 -39 29 -84t8 -123q0 -50 -3 -152t-3 -153v-152q0 -80 16 -109q18 -34 60 -34q47 0 65 43q10 22 13 100q0 103 4 119q15 45 61 45q25 0 41.5 -10t22.5 -26t8 -26t2 -20 v-53v-32t-4 -70.5t-14 -69.5q-14 -44 -46 -76q-55 -51 -159 -51q-88 0 -146 39l-11 9q-11 8 -17 15q-28 30 -37 90q-36 -69 -109 -110q-98 -54 -235 -54q-106 0 -185 33q-29 10 -73 39q-48 35 -84.5 98t-36.5 144zM250 297q0 -39 8.5 -66.5t38.5 -52.5q27 -27 63 -41 q48 -16 105 -16q17 0 36.5 2t65 11.5t89 37.5t73.5 70q25 37 36 85.5t13 92t2 141.5q-36 -33 -71 -47q-13 -6 -25.5 -10.5t-28 -8t-25.5 -6t-29 -5.5t-25.5 -4t-28 -4t-25.5 -3q-41 -4 -123 -16q-149 -36 -149 -160zM440 1223q0 6 4 14q9 13 50 49q42 39 94 82q15 12 65 57 q3 3 15.5 13.5t16.5 14t15 12.5t16 12t14.5 9.5t15.5 9t14 5.5t16 4q43 6 74 -25.5t31 -72.5q0 -35 -31 -64q-9 -9 -19.5 -15.5t-16 -9t-26.5 -10t-30 -10.5q-18 -7 -54 -20.5t-55 -20.5q-37 -12 -94 -34q-11 -2 -33 -11q-8 -3 -17.5 -6.5t-12 -5t-10 -3t-11.5 0.5 q-16 0 -23.5 8t-7.5 17z" />
<glyph unicode="&#xe2;" horiz-adv-x="1193" d="M78 289q0 115 70 191.5t190 105.5q35 9 76 14.5t90.5 11t77.5 9.5q92 13 133 36q33 19 48 48.5t15 82.5q0 78 -45 123q-58 54 -186 54q-109 0 -174 -47q-14 -10 -23.5 -23.5t-9.5 -20.5q1 -9 15.5 -22.5t17.5 -17.5q16 -26 16 -58q0 -46 -33 -72t-75 -26q-31 0 -62 14 q-69 35 -69 123q0 85 55 150q53 61 143.5 98t212.5 37q113 0 199 -37q35 -15 74 -47q46 -33 77 -96q21 -39 29 -84t8 -123q0 -50 -3 -152t-3 -153v-152q0 -80 16 -109q18 -34 60 -34q47 0 65 43q10 22 13 100q0 103 4 119q15 45 61 45q25 0 41.5 -10t22.5 -26t8 -26t2 -20 v-53v-32t-4 -70.5t-14 -69.5q-14 -44 -46 -76q-55 -51 -159 -51q-88 0 -146 39l-11 9q-11 8 -17 15q-28 30 -37 90q-36 -69 -109 -110q-98 -54 -235 -54q-106 0 -185 33q-29 10 -73 39q-48 35 -84.5 98t-36.5 144zM223 1229q0 3 1 6t3 6.5t3.5 6t5 5.5t6 5.5t8 6.5t8.5 6.5 t10 8t11 8.5q78 60 178 129q36 27 80 56q3 2 10.5 7.5t12 8.5t11 6.5t11.5 5t10 0.5q7 0 15.5 -3.5t15 -7.5t12 -8.5t6.5 -4.5q13 -10 35 -25q18 -13 53 -37t53 -37q94 -69 140 -98l4 -3q5 -3 10.5 -7.5t11 -10.5t9.5 -13t4 -13q0 -9 -10 -17t-21 -8q-3 0 -9.5 1t-9.5 1 q-16 2 -61 18t-49 17q-139 52 -213 84q-29 -16 -58 -29q-44 -15 -84 -30q-3 -1 -40.5 -15t-55.5 -20q-14 -5 -32 -11t-27.5 -9.5t-20 -6t-18.5 -2.5q-27 3 -29 23zM250 297q0 -39 8.5 -66.5t38.5 -52.5q27 -27 63 -41q48 -16 105 -16q17 0 36.5 2t65 11.5t89 37.5t73.5 70 q25 37 36 85.5t13 92t2 141.5q-36 -33 -71 -47q-13 -6 -25.5 -10.5t-28 -8t-25.5 -6t-29 -5.5t-25.5 -4t-28 -4t-25.5 -3q-41 -4 -123 -16q-149 -36 -149 -160z" />
<glyph unicode="&#xe3;" horiz-adv-x="1193" d="M78 289q0 115 70 191.5t190 105.5q35 9 76 14.5t90.5 11t77.5 9.5q92 13 133 36q33 19 48 48.5t15 82.5q0 78 -45 123q-58 54 -186 54q-109 0 -174 -47q-14 -10 -23.5 -23.5t-9.5 -20.5q1 -9 15.5 -22.5t17.5 -17.5q16 -26 16 -58q0 -46 -33 -72t-75 -26q-31 0 -62 14 q-69 35 -69 123q0 85 55 150q53 61 143.5 98t212.5 37q113 0 199 -37q35 -15 74 -47q46 -33 77 -96q21 -39 29 -84t8 -123q0 -50 -3 -152t-3 -153v-152q0 -80 16 -109q18 -34 60 -34q47 0 65 43q10 22 13 100q0 103 4 119q15 45 61 45q25 0 41.5 -10t22.5 -26t8 -26t2 -20 v-53v-32t-4 -70.5t-14 -69.5q-14 -44 -46 -76q-55 -51 -159 -51q-88 0 -146 39l-11 9q-11 8 -17 15q-28 30 -37 90q-36 -69 -109 -110q-98 -54 -235 -54q-106 0 -185 33q-29 10 -73 39q-48 35 -84.5 98t-36.5 144zM250 297q0 -39 8.5 -66.5t38.5 -52.5q27 -27 63 -41 q48 -16 105 -16q17 0 36.5 2t65 11.5t89 37.5t73.5 70q25 37 36 85.5t13 92t2 141.5q-36 -33 -71 -47q-13 -6 -25.5 -10.5t-28 -8t-25.5 -6t-29 -5.5t-25.5 -4t-28 -4t-25.5 -3q-41 -4 -123 -16q-149 -36 -149 -160zM254 1280q0 29 20 76q18 39 41 64t50 34.5t40 12t35 3.5 q77 5 181 -34q118 -47 161 -47q38 0 66 22l15 15t21.5 19t16.5 7q9 0 18 -8t9 -23q0 -17 -6 -35q-11 -47 -37 -81.5t-54 -49.5q-33 -22 -102 -22q-36 0 -77.5 11t-91 28t-77.5 24q-11 3 -23.5 7t-17.5 5.5t-12.5 3.5t-13.5 2.5t-15 0.5q-55 0 -82 -35l-6 -10 q-6 -10 -14.5 -17.5t-19.5 -7.5t-18 12t-7 23z" />
<glyph unicode="&#xe4;" horiz-adv-x="1193" d="M78 293q0 123 92 211q22 20 78 53q24 12 54 21t67 15t62.5 9.5t67.5 8t54 5.5l27 4q28 3 65 11.5t60 21.5q36 20 54.5 48.5t18.5 82.5q-2 64 -22 99q-55 84 -207 84q-107 0 -176 -49q-35 -24 -35 -41q0 -3 4 -15q4 -6 16 -13.5t15 -10.5q18 -24 18 -58q0 -38 -29.5 -69 t-82.5 -31q-55 0 -92 37t-37 92q0 149 151 231q112 60 256 60q108 0 180 -29q33 -9 80 -43q45 -30 76 -74q16 -27 18 -32q37 -74 37 -209q0 -52 -4 -162q-2 -61 -2 -182q0 -16 -0.5 -46t-0.5 -53.5t1 -44.5q0 -46 14 -73q15 -37 64 -37q55 0 67 61q9 34 9 131q0 59 6 72 q7 20 24 32.5t35 12.5q19 0 39 -10q17 -9 25.5 -28t9 -30t0.5 -34q0 -16 -1 -48t-1 -47q-1 -24 -1.5 -35t-5 -40.5t-12 -47t-24 -42.5t-39 -39t-58.5 -24.5t-81 -10.5q-152 0 -197 98q-14 29 -14 55q-27 -49 -60 -75q-71 -60 -180 -82q-64 -11 -104 -11q-144 0 -244 66 q-26 20 -39 31q-27 24 -47 53q-49 76 -49 170zM229 1350q0 49 37 86q34 30 78 32q50 2 86.5 -33.5t36.5 -84.5q0 -36 -18 -66q-13 -23 -40 -39t-61 -16q-27 0 -47 10q-26 9 -49 39t-23 72zM248 295q0 -34 8 -59q19 -50 70.5 -81.5t132.5 -31.5q193 0 276 131q31 51 38 112 t7 197q-37 -37 -88 -55q-39 -14 -68.5 -19.5t-109.5 -15.5q-14 -1 -29 -3t-33.5 -5t-29.5 -4q-34 -6 -66 -17q-7 -3 -12 -5.5t-9 -5t-7 -3.5q-2 -1 -12 -6.5t-15 -9.5q-53 -41 -53 -119zM657 1352q0 29 13 51q34 65 96 65q17 4 49 -4q80 -29 80 -118q0 -45 -35 -80 q-37 -37 -84 -37q-50 2 -85 37.5t-34 85.5z" />
<glyph unicode="&#xe5;" horiz-adv-x="1193" d="M78 289q0 95 49 166q31 44 82 77q53 32 67 37q23 8 51 15t62.5 12t57 8.5t62.5 8t52 5.5q107 14 148 37q34 22 45 37q24 34 24 94q0 62 -26 103q-52 78 -209 78q-107 -4 -172 -52q-34 -24 -31 -41q0 -5 4 -10.5t12 -12.5t11 -11q6 -6 15 -25.5t9 -38.5q0 -45 -38.5 -71.5 t-71.5 -26.5q-30 0 -54 12q-77 33 -77 127q0 71 45 133q46 64 141.5 107t220.5 43q195 0 299 -103q32 -32 53 -73q39 -73 39 -197q0 -45 -4 -147q0 -89 -2 -134q0 -17 -1 -48t-1 -46q0 -24 1 -68.5t1 -66.5q0 -61 29 -88q17 -14 51 -14q22 0 38 14t21 25q4 8 9 28 q6 49 6 150q0 45 10 57q6 11 20.5 22t32.5 11q31 0 49 -14q27 -24 27 -89q0 -11 -1 -33.5t-1 -35.5q-3 -98 -16 -137q-16 -51 -56 -84q-55 -43 -145 -43q-145 0 -197 92q-13 21 -18 59q-24 -36 -41 -53q-104 -111 -301 -111q-193 0 -299 111q-82 86 -82 205zM248 291 q0 -46 22 -80q3 -13 19 -29q56 -59 174 -59q176 0 262 115q36 50 45.5 117.5t9.5 207.5q-42 -42 -121 -65q-44 -13 -125.5 -23t-101.5 -14q-70 -12 -106 -31q-1 -1 -8 -4.5t-11 -6t-11.5 -10t-14.5 -16.5q-33 -41 -33 -102zM395 1346q0 35 17 75q17 34 55.5 63t89.5 29 q71 1 119.5 -47.5t48.5 -117.5q0 -63 -43 -113q-53 -53 -123 -53q-47 2 -90 28q-1 1 -9.5 6.5t-15 12.5t-14.5 20q-35 46 -35 97zM475 1350q0 -25 10 -43q11 -22 32 -33.5t42 -11.5q33 0 60 24t28 60q-2 39 -29 65t-65 23q-33 -3 -55.5 -27t-22.5 -57z" />
<glyph unicode="&#xe6;" horiz-adv-x="1792" d="M80 299q0 126 82 215q60 63 139 92q98 43 295 43q137 0 207 -2q2 114 -16 171t-74 97q-73 54 -176 54q-55 0 -115 -21q-38 -13 -57 -28q-27 -22 -27 -35q1 -6 12.5 -16t14.5 -15q4 -4 10 -20t6 -33q0 -19 -10 -41q-7 -21 -27 -41.5t-51 -28.5q-16 -4 -35 -4q-28 0 -51 12 q-70 34 -70 115q0 71 47 135q47 65 143.5 109.5t225.5 44.5q62 0 121.5 -15.5t93.5 -31.5q56 -28 100 -80q11 -14 20.5 -31.5t16.5 -33t8 -17.5q5 12 23 39.5t41 50.5q48 50 127 82.5t182 32.5q149 0 258 -74q35 -22 65.5 -52.5t41.5 -45.5q34 -57 41 -74q41 -81 47 -162 q6 -37 6 -72q0 -19 -4 -55q0 -22 -10 -35q-10 -12 -21 -16q-7 -2 -78 -2q-14 0 -39 -1t-39 -1q-29 0 -85 1t-83 1q-72 0 -213.5 -1t-211.5 -1q0 -141 55 -244q30 -55 69 -86q51 -44 113 -57q40 -10 82 -10q86 0 160 39q31 15 66 52.5t50 94.5q1 2 5 17.5t8 23.5q23 51 73 51 q9 -1 37 -8q45 -28 45 -76q0 -9 -6 -33q-4 -14 -11.5 -33.5t-24.5 -52.5t-47.5 -68t-69.5 -63q-47 -34 -125.5 -61t-171.5 -27q-121 0 -226 56q-51 26 -106 83q-12 13 -23 28.5t-19 28.5t-9 15q-33 -56 -68 -88q-44 -43 -99.5 -71t-109 -38t-77.5 -12t-48 -2 q-91 0 -180.5 28.5t-150.5 96.5q-38 48 -52 86q-20 50 -20 121zM250 295q0 -53 26 -96q21 -37 62 -58q6 -3 16 -7t13 -5q63 -25 135 -25q122 0 200 68q11 6 30 25.5t32 42.5q6 11 11.5 24.5t9 30t6 30t4 33.5t2.5 32t1.5 33.5t0.5 30v30v24.5h-217q-75 0 -129 -10 q-100 -14 -156 -74q-17 -17 -29 -41q-7 -15 -12 -41q-6 -21 -6 -47zM977 647l594 2q-3 44 -15 94q-10 37 -28 70.5t-49 67.5t-83 54.5t-118 20.5q-97 0 -174 -57q-10 -7 -19.5 -16.5t-17 -18.5t-8.5 -10q-34 -41 -51 -85t-31 -122z" />
<glyph unicode="&#xe7;" horiz-adv-x="1024" d="M45 528q0 243 125 398q74 92 178 135q86 37 205 37q26 0 58 -3t99 -24t117 -59q31 -23 62 -68q57 -85 57 -168q0 -49 -14 -84q-12 -36 -48.5 -69t-92.5 -33q-68 0 -103 47q-20 24 -20 59q0 67 53 92q20 9 53 9q-1 17 -2.5 24t-10 24t-24.5 36q-65 77 -188 77 q-147 0 -240 -110q-90 -111 -90 -318q0 -252 125 -356q81 -68 197 -68q87 0 145.5 41.5t85.5 100.5q22 42 31 90q3 21 12 45q23 51 74 51q29 0 51 -18q31 -25 31 -66q0 -25 -4 -37q-2 -22 -19.5 -69.5t-48.5 -91.5q-56 -83 -147.5 -135t-221.5 -52q-156 0 -268 78 q-6 5 -17.5 12.5t-17.5 12.5q-65 52 -110 137q-27 52 -49.5 138t-22.5 185zM348 -279q0 16 12 31t37 15q17 -3 35 -25q20 -20 27 -25q36 -26 86 -26q46 0 73 16q14 9 23.5 26t9.5 31q0 24 -22 45t-62 21q-19 0 -69 -10q-2 -1 -20 -8t-27 -7q-27 0 -27 25q0 7 14 39 q16 37 17 41q7 15 20.5 44.5t20.5 45.5h96l-41 -92q24 6 39 6q42 0 78 -12q35 -11 69.5 -46t34.5 -92q0 -66 -58.5 -114t-160.5 -49q-44 0 -88 12q-53 15 -85 45t-32 63z" />
<glyph unicode="&#xe8;" horiz-adv-x="1110" d="M94 526q0 179 74 318q42 76 92 121q137 133 344 133q135 0 242 -64q70 -40 123 -108q38 -51 66 -130.5t28 -177.5v-45q0 -16 -6 -34q-5 -11 -16 -19t-15 -8q-12 -4 -102 -4h-656q0 -95 17.5 -154.5t52.5 -109.5q25 -41 57 -68q7 -6 19 -13t16 -9q72 -45 170 -45 q81 0 160 38l37 25q21 17 46 52t36 75q0 1 4 18t8 25q19 57 76 57q16 0 30 -6q50 -22 50 -78q0 -42 -27 -97.5t-43 -74.5q-12 -20 -37 -45q-86 -83 -217 -116q-86 -15 -139 -15q-97 0 -185 31q-124 45 -206 166q-99 151 -99 362zM287 655h606q0 29 -2 43l-1 6q-1 6 -3 13 t-4.5 17.5t-6.5 21.5t-9 24t-12 26.5t-14.5 26.5t-18 26t-21.5 24q-7 11 -39 32q-71 43 -166 43q-57 0 -104 -16q-39 -14 -89 -53t-81 -103q-24 -55 -35 -131zM344 1409q0 33 25 63t63 33q13 1 27 -2.5t24 -8t25 -15.5t22 -17t24.5 -21.5t23.5 -21.5q14 -11 63 -55 q22 -18 62.5 -53t48.5 -41q32 -28 32 -47q0 -25 -32 -25q-11 0 -52 14l-26 13q-24 9 -75 25.5t-75 25.5q-11 4 -39.5 15.5t-44.5 17.5q-3 1 -15.5 5.5t-16.5 6t-13.5 6t-14 9t-11 11.5t-11.5 15q-14 23 -14 47z" />
<glyph unicode="&#xe9;" horiz-adv-x="1110" d="M94 526q0 179 74 318q42 76 92 121q137 133 344 133q135 0 242 -64q70 -40 123 -108q38 -51 66 -130.5t28 -177.5v-45q0 -16 -6 -34q-5 -11 -16 -19t-15 -8q-12 -4 -102 -4h-656q0 -95 17.5 -154.5t52.5 -109.5q25 -41 57 -68q7 -6 19 -13t16 -9q72 -45 170 -45 q81 0 160 38l37 25q21 17 46 52t36 75q0 1 4 18t8 25q19 57 76 57q16 0 30 -6q50 -22 50 -78q0 -42 -27 -97.5t-43 -74.5q-12 -20 -37 -45q-86 -83 -217 -116q-86 -15 -139 -15q-97 0 -185 31q-124 45 -206 166q-99 151 -99 362zM287 655h606q0 29 -2 43l-1 6q-1 6 -3 13 t-4.5 17.5t-6.5 21.5t-9 24t-12 26.5t-14.5 26.5t-18 26t-21.5 24q-7 11 -39 32q-71 43 -166 43q-57 0 -104 -16q-39 -14 -89 -53t-81 -103q-24 -55 -35 -131zM440 1223q0 6 4 14q9 13 50 49q42 39 94 82q15 12 65 57q3 3 15.5 13.5t16.5 14t15 12.5t16 12t14.5 9.5t15.5 9 t14 5.5t16 4q43 6 74 -25.5t31 -72.5q0 -35 -31 -64q-9 -9 -19.5 -15.5t-16 -9t-26.5 -10t-30 -10.5q-18 -7 -54 -20.5t-55 -20.5q-37 -12 -94 -34q-11 -2 -33 -11q-8 -3 -17.5 -6.5t-12 -5t-10 -3t-11.5 0.5q-16 0 -23.5 8t-7.5 17z" />
<glyph unicode="&#xea;" horiz-adv-x="1110" d="M94 526q0 179 74 318q42 76 92 121q137 133 344 133q135 0 242 -64q70 -40 123 -108q38 -51 66 -130.5t28 -177.5v-45q0 -16 -6 -34q-5 -11 -16 -19t-15 -8q-12 -4 -102 -4h-656q0 -95 17.5 -154.5t52.5 -109.5q25 -41 57 -68q7 -6 19 -13t16 -9q72 -45 170 -45 q81 0 160 38l37 25q21 17 46 52t36 75q0 1 4 18t8 25q19 57 76 57q16 0 30 -6q50 -22 50 -78q0 -42 -27 -97.5t-43 -74.5q-12 -20 -37 -45q-86 -83 -217 -116q-86 -15 -139 -15q-97 0 -185 31q-124 45 -206 166q-99 151 -99 362zM223 1229q0 3 1 6t3 6.5t3.5 6t5 5.5t6 5.5 t8 6.5t8.5 6.5t10 8t11 8.5q78 60 178 129q36 27 80 56q3 2 10.5 7.5t12 8.5t11 6.5t11.5 5t10 0.5q7 0 15.5 -3.5t15 -7.5t12 -8.5t6.5 -4.5q13 -10 35 -25q18 -13 53 -37t53 -37q94 -69 140 -98l4 -3q5 -3 10.5 -7.5t11 -10.5t9.5 -13t4 -13q0 -9 -10 -17t-21 -8 q-3 0 -9.5 1t-9.5 1q-16 2 -61 18t-49 17q-139 52 -213 84q-29 -16 -58 -29q-44 -15 -84 -30q-3 -1 -40.5 -15t-55.5 -20q-14 -5 -32 -11t-27.5 -9.5t-20 -6t-18.5 -2.5q-27 3 -29 23zM287 655h606q0 29 -2 43l-1 6q-1 6 -3 13t-4.5 17.5t-6.5 21.5t-9 24t-12 26.5 t-14.5 26.5t-18 26t-21.5 24q-7 11 -39 32q-71 43 -166 43q-57 0 -104 -16q-39 -14 -89 -53t-81 -103q-24 -55 -35 -131z" />
<glyph unicode="&#xeb;" horiz-adv-x="1110" d="M94 526q0 179 74 318q42 76 92 121q137 133 344 133q135 0 242 -64q70 -40 123 -108q38 -51 66 -130.5t28 -177.5v-45q0 -16 -6 -34q-5 -11 -16 -19t-15 -8q-12 -4 -102 -4h-656q0 -95 17.5 -154.5t52.5 -109.5q25 -41 57 -68q7 -6 19 -13t16 -9q72 -45 170 -45 q81 0 160 38l37 25q21 17 46 52t36 75q0 1 4 18t8 25q19 57 76 57q16 0 30 -6q50 -22 50 -78q0 -42 -27 -97.5t-43 -74.5q-12 -20 -37 -45q-86 -83 -217 -116q-86 -15 -139 -15q-97 0 -185 31q-124 45 -206 166q-99 151 -99 362zM213 1352q0 23 8 43q13 30 38.5 48 t41.5 21.5t27 3.5q36 0 61 -14q62 -32 62 -108q0 -50 -37 -83.5t-86 -33.5q-29 0 -52 14q-63 35 -63 109zM287 655h606q0 29 -2 43l-1 6q-1 6 -3 13t-4.5 17.5t-6.5 21.5t-9 24t-12 26.5t-14.5 26.5t-18 26t-21.5 24q-7 11 -39 32q-71 43 -166 43q-57 0 -104 -16 q-39 -14 -89 -53t-81 -103q-24 -55 -35 -131zM641 1352q0 36 23 67q33 46 86 49q29 5 55 -6q29 -12 52.5 -40.5t23.5 -73.5q0 -20 -13 -50q-16 -33 -46 -50t-62 -17q-28 0 -51 10q-26 14 -47 42t-21 69z" />
<glyph unicode="&#xec;" horiz-adv-x="598" d="M8 72q0 30 20.5 49.5t51.5 19.5q16 0 50 -6t52 -6q31 0 45 27q2 5 4 9.5t3 8t2 8.5t1.5 8t1 10t0.5 10t0.5 13t0.5 15q2 18 2 53q2 55 2 168v170q0 53 -2 80q0 36 -4 102q0 2 -1 17.5t-2 26t-3.5 25t-7 26t-11.5 18.5q-12 12 -39 12q-14 0 -43 -7t-43 -7q-38 0 -57 22 q-21 21 -21 47t21 47q23 25 57 25q29 2 83 -4t75 -6q15 0 45 5t47 5q45 0 59.5 -23t14.5 -69q0 -15 -2 -43t-2 -41q-1 -16 -2.5 -48t-2.5 -48v-297q0 -301 17 -336q16 -31 45 -31q13 0 37 8q18 6 43 6q39 0 56 -21.5t17 -45.5q0 -37 -26 -56q-26 -18 -64 -18q-19 0 -41.5 2 t-50.5 5.5t-43 4.5q-20 2 -63 2q-80 0 -119 -4q-87 -10 -102 -10q-45 0 -70 16q-11 5 -21 20.5t-10 35.5zM57 1409q0 33 25 63t61 33q13 1 27 -2.5t24 -8t25 -15.5t22 -17t24.5 -21.5t23.5 -21.5q12 -9 33 -27.5t32 -27.5q45 -40 109 -94q33 -26 33 -47q0 -25 -31 -25 q-13 0 -51 14q-5 2 -14.5 6.5t-14.5 6.5q-24 9 -73.5 25.5t-73.5 25.5q-15 5 -43.5 16.5t-42.5 16.5q-4 1 -15 5.5t-15.5 6t-13.5 6t-14 9t-11.5 11.5t-12.5 15q-13 22 -13 47z" />
<glyph unicode="&#xed;" horiz-adv-x="598" d="M8 72q0 30 20.5 49.5t51.5 19.5q16 0 50 -6t52 -6q31 0 45 27q2 5 4 9.5t3 8t2 8.5t1.5 8t1 10t0.5 10t0.5 13t0.5 15q2 18 2 53q2 55 2 168v170q0 53 -2 80q0 36 -4 102q0 2 -1 17.5t-2 26t-3.5 25t-7 26t-11.5 18.5q-12 12 -39 12q-14 0 -43 -7t-43 -7q-38 0 -57 22 q-21 21 -21 47t21 47q23 25 57 25q29 2 83 -4t75 -6q15 0 45 5t47 5q45 0 59.5 -23t14.5 -69q0 -15 -2 -43t-2 -41q-1 -16 -2.5 -48t-2.5 -48v-297q0 -301 17 -336q16 -31 45 -31q13 0 37 8q18 6 43 6q39 0 56 -21.5t17 -45.5q0 -37 -26 -56q-26 -18 -64 -18q-19 0 -41.5 2 t-50.5 5.5t-43 4.5q-20 2 -63 2q-80 0 -119 -4q-87 -10 -102 -10q-45 0 -70 16q-11 5 -21 20.5t-10 35.5zM154 1223q0 10 4 14q8 15 49 49q42 39 94 82q61 53 66 57q62 56 88 69q18 9 34 11q41 6 72 -25t33 -73q0 -33 -33 -64q-7 -7 -13 -12t-15 -9.5t-15 -7t-21.5 -7.5 t-25.5 -9q-18 -7 -55 -20.5t-56 -20.5q-25 -8 -92 -34q-4 -1 -35 -11q-8 -3 -16.5 -7t-11 -4.5t-10 -2.5t-11.5 0q-17 0 -24.5 8t-5.5 17z" />
<glyph unicode="&#xee;" horiz-adv-x="598" d="M-53 1229q0 13 9.5 23t35.5 30q5 4 8 6q78 60 178 129q18 13 82 56q40 30 55 28q11 0 26.5 -9.5t20.5 -14.5q23 -15 35 -25q18 -13 54.5 -37.5t54.5 -36.5q104 -76 137 -98l5 -3q5 -3 10.5 -7.5t11 -10.5t9.5 -13t3 -13q0 -9 -9.5 -17t-19.5 -8q-3 0 -9 1t-9 1 q-17 2 -61.5 17.5t-51.5 17.5q-165 64 -211 84q-5 -3 -26 -13.5l-31 -15.5l-86 -30q-70 -27 -96 -35q-14 -5 -32 -11t-27 -9.5t-19.5 -6t-18.5 -2.5q-3 0 -8.5 1.5t-12.5 7t-7 14.5zM8 72q0 30 20.5 49.5t51.5 19.5q16 0 50 -6t52 -6q31 0 45 27q2 5 4 9.5t3 8t2 8.5t1.5 8 t1 10t0.5 10t0.5 13t0.5 15q2 18 2 53q2 55 2 168v170q0 53 -2 80q0 36 -4 102q0 2 -1 17.5t-2 26t-3.5 25t-7 26t-11.5 18.5q-12 12 -39 12q-14 0 -43 -7t-43 -7q-38 0 -57 22q-21 21 -21 47t21 47q23 25 57 25q29 2 83 -4t75 -6q15 0 45 5t47 5q45 0 59.5 -23t14.5 -69 q0 -15 -2 -43t-2 -41q-1 -16 -2.5 -48t-2.5 -48v-297q0 -301 17 -336q16 -31 45 -31q13 0 37 8q18 6 43 6q39 0 56 -21.5t17 -45.5q0 -37 -26 -56q-26 -18 -64 -18q-19 0 -41.5 2t-50.5 5.5t-43 4.5q-20 2 -63 2q-80 0 -119 -4q-87 -10 -102 -10q-45 0 -70 16 q-11 5 -21 20.5t-10 35.5z" />
<glyph unicode="&#xef;" horiz-adv-x="598" d="M-53 1352q0 23 8 43q12 30 37.5 48t41.5 21.5t27 3.5q37 0 62 -14q61 -31 61 -108q0 -50 -37 -83.5t-86 -33.5q-28 0 -53 14q-61 34 -61 109zM8 72q0 30 20.5 49.5t51.5 19.5q16 0 50 -6t52 -6q31 0 45 27q2 5 4 9.5t3 8t2 8.5t1.5 8t1 10t0.5 10t0.5 13t0.5 15 q2 18 2 53q2 55 2 168v170q0 53 -2 80q0 36 -4 102q0 2 -1 17.5t-2 26t-3.5 25t-7 26t-11.5 18.5q-12 12 -39 12q-14 0 -43 -7t-43 -7q-38 0 -57 22q-21 21 -21 47t21 47q23 25 57 25q29 2 83 -4t75 -6q15 0 45 5t47 5q45 0 59.5 -23t14.5 -69q0 -15 -2 -43t-2 -41 q-1 -16 -2.5 -48t-2.5 -48v-297q0 -301 17 -336q16 -31 45 -31q13 0 37 8q18 6 43 6q39 0 56 -21.5t17 -45.5q0 -37 -26 -56q-26 -18 -64 -18q-19 0 -41.5 2t-50.5 5.5t-43 4.5q-20 2 -63 2q-80 0 -119 -4q-87 -10 -102 -10q-45 0 -70 16q-11 5 -21 20.5t-10 35.5zM373 1352 q0 35 24 67q33 46 86 49q28 4 54 -6q30 -12 53.5 -40t23.5 -74q0 -22 -12 -50q-16 -33 -46.5 -50t-63.5 -17q-28 0 -50 10q-27 13 -48 41.5t-21 69.5z" />
<glyph unicode="&#xf1;" horiz-adv-x="1323" d="M16 991q0 21 13 41q22 31 80 31q17 0 52 -3t54 -3q8 0 24.5 1t24.5 1q54 6 60 6q10 0 22 -4q39 -12 39 -66v-57q18 30 49 55q33 30 70 49q105 54 215 54q115 0 207 -45q36 -18 61 -33q36 -26 72 -71t51 -103q6 -24 9 -54.5t3.5 -50.5t1 -77t0.5 -84v-230q0 -92 4 -137 q3 -36 13 -57q4 -9 16 -18t29 -9q23 0 35 6q56 8 57 8q26 0 48 -19t22 -46q0 -23 -11 -43q-20 -33 -88 -33q-18 0 -51 3.5t-45 4.5q-55 6 -115 6q-38 0 -112 -8q-12 -1 -45 -4.5t-50 -3.5q-35 0 -63.5 20.5t-28.5 55.5q1 27 18 43t32 20t28 4q14 0 43.5 -7t46.5 -7 q21 0 35 16q8 8 8 15q11 23 15 200v277q0 90 -9 145q-20 92 -90 138q-66 43 -161 43h-14t-29.5 -3t-42 -8t-47.5 -16.5t-50.5 -27t-45.5 -41t-38 -56.5q-11 -22 -17.5 -45.5t-9.5 -51.5t-3.5 -46t-1 -51.5t-0.5 -45.5q0 -34 -1.5 -101.5t-1.5 -102.5q3 -55 3 -111 q0 -68 14 -100q15 -27 47 -27q11 0 31 4q52 10 61 10q30 0 50 -19t20 -48q0 -27 -19 -49q-28 -25 -78 -25q-16 0 -104 10q-66 4 -100 4q-68 0 -146 -10q-9 -1 -23.5 -2.5t-26.5 -2.5t-23 -1q-21 0 -33 4q-9 3 -20 9.5t-23.5 22t-12.5 34.5q0 20 9 36q6 13 21.5 24t39.5 11 q14 0 43 -6t45 -6q30 0 41 14q23 27 23 123q2 47 2 142q0 30 1 90t1 90q0 33 -1 98.5t-1 99.5q0 92 -13 119q-19 37 -49 37q-2 0 -32 -6q-40 -8 -64 -8q-22 0 -31 4q-39 22 -39 61zM393 1280q0 26 21 76q18 39 41 64t49.5 34.5t39 12t34.5 3.5q78 5 182 -34q118 -47 162 -47 q37 0 65 22l15 15t21.5 19t16.5 7q9 0 18 -8t9 -23q0 -4 -1 -10t-2.5 -13.5t-2.5 -11.5q-13 -48 -38.5 -82t-53.5 -49q-33 -22 -101 -22q-36 0 -77.5 11t-90 28t-77.5 24q-10 3 -23.5 7t-18.5 5.5t-13 3.5t-14 2.5t-15 0.5q-55 0 -82 -35q-17 -35 -39 -35q-11 0 -18 12 t-7 23z" />
<glyph unicode="&#xf2;" horiz-adv-x="1150" d="M94 530q0 151 51 271q37 73 64 110q57 75 151 130t222 59q24 2 56.5 0t91 -15t106.5 -38q113 -59 185.5 -188.5t72.5 -321.5q0 -253 -127 -402q-18 -24 -39 -45q-28 -26 -86 -61q-117 -62 -254 -62q-181 0 -303 101q-7 7 -27 22q-2 2 -5.5 6.5t-6.5 7.5q-22 22 -25 27 q-127 150 -127 399zM272 539q0 -162 56 -269q42 -75 90 -106q23 -19 61 -35q60 -18 119 -18q118 0 197 69q123 111 123 377q0 190 -89 301q-5 14 -34 39q-35 31 -84 46.5t-77.5 14.5t-43.5 0q-18 0 -45 -4t-79 -28t-89 -64q-46 -48 -75.5 -131t-29.5 -192zM367 1409 q0 33 25 63t61 33q16 1 30.5 -2.5t31.5 -15t25 -17.5t30.5 -26.5t27.5 -24.5q12 -9 33.5 -27.5t32.5 -27.5q66 -59 108 -94q35 -27 33 -47q0 -25 -31 -25q-13 0 -51 14q-5 2 -14.5 6.5t-14.5 6.5q-24 9 -73 25.5t-74 25.5q-14 5 -42.5 16.5t-43.5 16.5q-4 1 -15 5.5t-15.5 6 t-13.5 6t-14 9t-11.5 11.5t-12.5 15q-12 20 -12 47z" />
<glyph unicode="&#xf3;" horiz-adv-x="1150" d="M94 530q0 151 51 271q37 73 64 110q57 75 151 130t222 59q24 2 56.5 0t91 -15t106.5 -38q113 -59 185.5 -188.5t72.5 -321.5q0 -253 -127 -402q-18 -24 -39 -45q-28 -26 -86 -61q-117 -62 -254 -62q-181 0 -303 101q-7 7 -27 22q-2 2 -5.5 6.5t-6.5 7.5q-22 22 -25 27 q-127 150 -127 399zM272 539q0 -162 56 -269q42 -75 90 -106q23 -19 61 -35q60 -18 119 -18q118 0 197 69q123 111 123 377q0 190 -89 301q-5 14 -34 39q-35 31 -84 46.5t-77.5 14.5t-43.5 0q-18 0 -45 -4t-79 -28t-89 -64q-46 -48 -75.5 -131t-29.5 -192zM463 1223 q0 6 4 14q8 15 49 49q42 39 94 82q61 53 66 57q30 27 42.5 38t36.5 25t44 17q41 6 72.5 -25.5t31.5 -72.5q0 -33 -31 -64q-9 -9 -19.5 -15.5t-16 -9t-26.5 -10t-30 -10.5q-18 -7 -54.5 -20.5t-55.5 -20.5q-25 -8 -92 -34q-4 -1 -35 -11q-8 -3 -16.5 -7t-11 -4.5t-10 -2.5 t-11.5 0q-31 0 -31 25z" />
<glyph unicode="&#xf4;" horiz-adv-x="1150" d="M94 530q0 151 51 271q37 73 64 110q57 75 151 130t222 59q24 2 56.5 0t91 -15t106.5 -38q113 -59 185.5 -188.5t72.5 -321.5q0 -253 -127 -402q-18 -24 -39 -45q-28 -26 -86 -61q-117 -62 -254 -62q-181 0 -303 101q-7 7 -27 22q-2 2 -5.5 6.5t-6.5 7.5q-22 22 -25 27 q-127 150 -127 399zM246 1229q0 13 9.5 23t35.5 30q5 4 8 6q78 60 178 129q43 31 82 56q40 30 55 28q8 0 18.5 -5.5t19.5 -11.5l10 -7q6 -4 17 -12.5t17 -12.5q63 -42 107 -74q7 -5 59 -42.5t80 -55.5l4 -3q5 -3 10.5 -7.5t11 -10.5t9.5 -13t4 -13q0 -9 -9.5 -17t-19.5 -8 q-3 0 -9.5 1t-10.5 1q-16 2 -59 17.5t-52 17.5q-172 66 -213 84q-40 -22 -57 -29q-41 -15 -84 -30q-11 -4 -30.5 -11.5t-35 -13.5t-30.5 -10q-14 -5 -32 -11t-27 -9.5t-19.5 -6t-18.5 -2.5q-3 0 -8.5 1.5t-12.5 7t-7 14.5zM272 539q0 -162 56 -269q42 -75 90 -106 q23 -19 61 -35q60 -18 119 -18q118 0 197 69q123 111 123 377q0 190 -89 301q-5 14 -34 39q-35 31 -84 46.5t-77.5 14.5t-43.5 0q-18 0 -45 -4t-79 -28t-89 -64q-46 -48 -75.5 -131t-29.5 -192z" />
<glyph unicode="&#xf5;" horiz-adv-x="1150" d="M94 530q0 151 51 271q37 73 64 110q57 75 151 130t222 59q24 2 56.5 0t91 -15t106.5 -38q113 -59 185.5 -188.5t72.5 -321.5q0 -253 -127 -402q-18 -24 -39 -45q-28 -26 -86 -61q-117 -62 -254 -62q-181 0 -303 101q-7 7 -27 22q-2 2 -5.5 6.5t-6.5 7.5q-22 22 -25 27 q-127 150 -127 399zM272 539q0 -162 56 -269q42 -75 90 -106q23 -19 61 -35q60 -18 119 -18q118 0 197 69q123 111 123 377q0 190 -89 301q-5 14 -34 39q-35 31 -84 46.5t-77.5 14.5t-43.5 0q-18 0 -45 -4t-79 -28t-89 -64q-46 -48 -75.5 -131t-29.5 -192zM297 1280 q0 29 20 76q18 39 41 64t49.5 34.5t39 12t34.5 3.5q79 5 183 -34q117 -47 161 -47q38 0 66 22l15 15t21.5 19t16.5 7q9 0 18 -8t9 -23q0 -17 -6 -35q-13 -48 -38.5 -82t-54.5 -49q-33 -22 -100 -22q-36 0 -77.5 11t-91 28t-77.5 24q-10 3 -23.5 7t-18.5 5.5t-12.5 3.5 t-13.5 2.5t-14 0.5q-55 0 -82 -35l-6 -10q-6 -10 -14.5 -17.5t-19.5 -7.5t-18 12t-7 23z" />
<glyph unicode="&#xf6;" horiz-adv-x="1150" d="M94 528q0 208 94 353q27 41 62 76.5t84 68.5t115.5 53t142.5 21q200 0 326 -113q57 -50 86 -98q90 -154 90 -350q0 -189 -72 -324q-54 -99 -135 -160q-48 -36 -126 -62t-173 -26q-160 0 -281 82q-45 32 -84 80q-129 148 -129 399zM266 1346q0 46 32 81t81 39q47 0 78 -24 q47 -35 47 -101q0 -48 -35 -79q-32 -35 -84 -35q-26 0 -74 24q-16 13 -30.5 39.5t-14.5 55.5zM270 539q0 -119 29 -203q10 -34 35 -76q23 -39 39 -58.5t47 -41.5q77 -51 178 -51q95 0 162 45q55 35 96 104q59 105 59 289v37q-3 121 -51 219q-29 54 -57 82q-53 53 -141 67 q-34 6 -68 6q-1 0 -10 -1t-18.5 -2t-25.5 -4t-31 -7.5t-33.5 -12t-35.5 -17t-35.5 -23.5t-33.5 -31q-39 -43 -60 -94q-45 -100 -45 -227zM694 1348q0 48 33 80.5t80 37.5q45 0 76 -22q51 -33 51 -103q0 -47 -39 -81q-36 -33 -82 -33q-25 0 -45 8q-25 10 -49.5 40.5 t-24.5 72.5z" />
<glyph unicode="&#xf7;" d="M0 535v120h1366v-120h-1366zM592 330q0 10 6 28q4 13 12 26t29 25.5t49 12.5q39 0 66 -27.5t26 -66.5q0 -38 -27 -65t-67 -27t-67 26.5t-27 67.5zM592 862q2 40 28.5 66.5t67.5 27.5q39 -2 66 -29.5t26 -66.5q0 -39 -28 -65.5t-68 -26.5q-38 0 -65 27t-27 67z" />
<glyph unicode="&#xf8;" horiz-adv-x="1150" d="M94 504q0 317 195 483q16 16 39 29q116 82 272 82q114 0 199 -35l37 -19q22 37 55 91q19 37 29 43q12 10 45 10h32q2 0 8 -0.5t8.5 -1t7 -2t6.5 -3.5t3.5 -6t1.5 -10q0 -11 -16 -35q-11 -15 -19 -28q-25 -39 -71 -117q32 -32 53 -59q115 -144 115 -375q0 -80 -14 -157 t-60 -169.5t-121 -154.5q-123 -103 -313 -103q-101 0 -183 31q-25 10 -63 29q-58 -95 -61 -101q-3 -5 -9.5 -16t-9.5 -16t-9 -12.5t-11.5 -11t-14 -6.5t-18.5 -3q-7 0 -22 1t-23 1q-33 0 -31 20q0 6 2.5 11.5t8.5 13t8 10.5q2 4 7 12.5t7 12.5q9 17 22 34q27 43 68 113 q-43 43 -70 82q-90 132 -90 332zM262 502q0 -124 39 -215q11 -22 35 -62l430 705q-72 35 -152 35q-123 0 -198 -60q-43 -32 -76 -84q-35 -62 -45 -90q-33 -96 -33 -229zM414 147q9 -6 37 -20q62 -29 141 -29q123 0 205 80q39 39 65 90q62 121 62 314q0 123 -35 204 q-12 28 -45 72z" />
<glyph unicode="&#xf9;" horiz-adv-x="1280" d="M-4 991q0 17 8 33q18 41 82 41q20 0 62 -4t63 -4q17 0 63 4q28 4 48 4q5 0 12 -1.5t12 -3t6 -1.5q31 -16 31 -68q0 -3 -6 -207q-4 -148 -4 -223q0 -25 1 -54t2.5 -64.5t2.5 -55.5q3 -82 15.5 -124t45.5 -81q27 -28 56 -44.5t82 -24.5q36 -4 55 -4q82 0 149 32 q30 15 63 48.5t52 86.5q21 60 23 162q2 49 2 150v86q0 96 -2 145q-3 65 -15 88q-14 23 -47 23q-9 0 -27 -4t-28 -4q-40 1 -57 24t-17 47q0 19 10 35q9 15 23 23t23.5 9t27.5 1q19 0 57 -3t58 -3q21 0 61 4q32 4 47 4q23 0 37 -10q25 -15 25 -70q0 -19 -4 -65 q-1 -18 -3.5 -49.5t-3.5 -45.5q-2 -39 -2 -233q0 -30 -1 -93.5t-1 -97.5q0 -158 13 -225q8 -49 51 -47q8 0 18 1.5t17 3.5l8 1q18 6 49 6t51.5 -16.5t20.5 -48.5q0 -33 -21 -51q-28 -25 -86 -25q-19 0 -54 5t-52 5t-45 -4q-42 -6 -45 -6q-28 0 -48 18t-20 47q2 20 2 62 q-2 -4 -19 -23.5t-30 -31.5q-99 -103 -275 -103q-170 0 -276 78q-5 5 -16.5 14.5t-16.5 14.5q-43 43 -63 90q-31 79 -31 223v250l-6 129q0 12 -0.5 34.5t-1 30.5t-1.5 21t-3 22t-6 19q0 2 -6 15t-11 18q-10 10 -30 10q-5 0 -12 -1t-15.5 -2.5t-13.5 -2.5q-24 -4 -37 -4 q-48 0 -66 32q-10 17 -10 33zM420 1409q0 33 25 63t61 33q16 1 30.5 -2.5t31.5 -15t25 -17.5t30.5 -26.5t27.5 -24.5q11 -9 32.5 -27.5t33.5 -27.5q66 -59 108 -94q35 -27 33 -47q0 -25 -31 -25q-13 0 -51 14q-5 2 -14 6.5t-14 6.5q-24 9 -74 25.5t-74 25.5q-14 5 -43 16.5 t-43 16.5q-4 1 -15 5.5t-15.5 6t-13.5 6t-14 9t-11.5 11.5t-12.5 15q-12 20 -12 47z" />
<glyph unicode="&#xfa;" horiz-adv-x="1280" d="M-4 991q0 17 8 33q18 41 82 41q20 0 62 -4t63 -4q17 0 63 4q28 4 48 4q5 0 12 -1.5t12 -3t6 -1.5q31 -16 31 -68q0 -3 -6 -207q-4 -148 -4 -223q0 -25 1 -54t2.5 -64.5t2.5 -55.5q3 -82 15.5 -124t45.5 -81q27 -28 56 -44.5t82 -24.5q36 -4 55 -4q82 0 149 32 q30 15 63 48.5t52 86.5q21 60 23 162q2 49 2 150v86q0 96 -2 145q-3 65 -15 88q-14 23 -47 23q-9 0 -27 -4t-28 -4q-40 1 -57 24t-17 47q0 19 10 35q9 15 23 23t23.5 9t27.5 1q19 0 57 -3t58 -3q21 0 61 4q32 4 47 4q23 0 37 -10q25 -15 25 -70q0 -19 -4 -65 q-1 -18 -3.5 -49.5t-3.5 -45.5q-2 -39 -2 -233q0 -30 -1 -93.5t-1 -97.5q0 -158 13 -225q8 -49 51 -47q8 0 18 1.5t17 3.5l8 1q18 6 49 6t51.5 -16.5t20.5 -48.5q0 -33 -21 -51q-28 -25 -86 -25q-19 0 -54 5t-52 5t-45 -4q-42 -6 -45 -6q-28 0 -48 18t-20 47q2 20 2 62 q-2 -4 -19 -23.5t-30 -31.5q-99 -103 -275 -103q-170 0 -276 78q-5 5 -16.5 14.5t-16.5 14.5q-43 43 -63 90q-31 79 -31 223v250l-6 129q0 12 -0.5 34.5t-1 30.5t-1.5 21t-3 22t-6 19q0 2 -6 15t-11 18q-10 10 -30 10q-5 0 -12 -1t-15.5 -2.5t-13.5 -2.5q-24 -4 -37 -4 q-48 0 -66 32q-10 17 -10 33zM516 1223q0 6 4 14q8 15 49 49q35 33 95 82q4 4 27.5 25t37.5 32q30 27 42.5 38t36.5 25t44 17q41 6 72.5 -25.5t31.5 -72.5q0 -34 -30 -64q-9 -9 -19.5 -15.5t-16 -9t-26.5 -10t-30 -10.5q-18 -7 -55 -20.5t-56 -20.5q-25 -8 -92 -34 q-4 -1 -35 -11q-8 -3 -16.5 -7t-11 -4.5t-10 -2.5t-11.5 0q-31 0 -31 25z" />
<glyph unicode="&#xfb;" horiz-adv-x="1280" d="M-4 991q0 17 8 33q18 41 82 41q20 0 62 -4t63 -4q17 0 63 4q28 4 48 4q5 0 12 -1.5t12 -3t6 -1.5q31 -16 31 -68q0 -3 -6 -207q-4 -148 -4 -223q0 -25 1 -54t2.5 -64.5t2.5 -55.5q3 -82 15.5 -124t45.5 -81q27 -28 56 -44.5t82 -24.5q36 -4 55 -4q82 0 149 32 q30 15 63 48.5t52 86.5q21 60 23 162q2 49 2 150v86q0 96 -2 145q-3 65 -15 88q-14 23 -47 23q-9 0 -27 -4t-28 -4q-40 1 -57 24t-17 47q0 19 10 35q9 15 23 23t23.5 9t27.5 1q19 0 57 -3t58 -3q21 0 61 4q32 4 47 4q23 0 37 -10q25 -15 25 -70q0 -19 -4 -65 q-1 -18 -3.5 -49.5t-3.5 -45.5q-2 -39 -2 -233q0 -30 -1 -93.5t-1 -97.5q0 -158 13 -225q8 -49 51 -47q8 0 18 1.5t17 3.5l8 1q18 6 49 6t51.5 -16.5t20.5 -48.5q0 -33 -21 -51q-28 -25 -86 -25q-19 0 -54 5t-52 5t-45 -4q-42 -6 -45 -6q-28 0 -48 18t-20 47q2 20 2 62 q-2 -4 -19 -23.5t-30 -31.5q-99 -103 -275 -103q-170 0 -276 78q-5 5 -16.5 14.5t-16.5 14.5q-43 43 -63 90q-31 79 -31 223v250l-6 129q0 12 -0.5 34.5t-1 30.5t-1.5 21t-3 22t-6 19q0 2 -6 15t-11 18q-10 10 -30 10q-5 0 -12 -1t-15.5 -2.5t-13.5 -2.5q-24 -4 -37 -4 q-48 0 -66 32q-10 17 -10 33zM319 1229q0 4 1 8t4 8t6 7t8.5 8t10 8t13 9.5t13.5 10.5q103 79 178 129q36 27 80 56q3 2 10.5 7.5t12 8.5t11 6.5t11.5 5t10 0.5q6 0 14.5 -3.5t15 -7.5t12.5 -8.5t7 -4.5q12 -10 35 -25q18 -13 54 -37t53 -37q100 -73 139 -98l10 -7 q10 -7 19.5 -18.5t9.5 -21.5q-2 -9 -11.5 -17t-19.5 -8q-3 0 -9 1t-9 1q-17 2 -63 18t-48 17q-139 52 -213 84q-5 -3 -26 -13.5l-31 -15.5l-86 -30q-67 -26 -95 -35q-14 -5 -32 -11t-27.5 -9.5t-20 -6t-18.5 -2.5q-3 0 -8.5 1.5t-13 7t-7.5 14.5z" />
<glyph unicode="&#xfc;" horiz-adv-x="1280" d="M-2 995q0 19 10 37q24 33 84 33q13 0 19 -2q17 0 53 -3t55 -3q33 0 49 2q21 6 47 6q68 0 68 -76q0 -1 -6 -172v-104q0 -25 -2 -74t-2 -72q0 -49 4 -139q5 -90 6 -94q11 -138 109 -193q54 -32 139 -32q17 0 40.5 2t72 17.5t79.5 41.5q65 55 81 124t18 220v94q0 133 -2 201 q-4 87 -19 104q-11 15 -43 15q-9 0 -27 -3t-28 -3q-19 0 -35 8q-13 4 -26 19t-13 38q0 31 20 53.5t66 22.5q9 0 26.5 -2t26.5 -2q36 -4 62 -4q35 0 53 4q32 4 49 4q66 0 66 -74q0 -27 -2 -41q-1 -21 -4.5 -64t-4.5 -65q-2 -33 -2 -194q0 -34 -1 -119.5t-0.5 -147.5t3.5 -120 l1 -10q0 -11 0.5 -15.5t2 -15.5t3.5 -17.5t5 -16t7 -15.5t9.5 -12t13 -8.5t16.5 -2.5q2 0 26.5 4t26.5 4q34 6 39 6q74 0 74 -69q0 -47 -45 -64q-20 -8 -62 -8q-17 0 -53 5t-55 5q-24 0 -45 -6q-28 -4 -43 -4q-13 0 -25 4q-41 15 -41 57q0 52 2 62v6q-52 -68 -100 -98 q-90 -62 -223 -62q-24 0 -64 4q-171 14 -264 119q-8 8 -23 30.5t-18 31.5q-3 4 -6 12t-6 17l-4 12q-15 52 -18 100.5t-3 160.5v12v10.5v12.5q0 111 -2 168q0 7 -6 160q-2 59 -14 89t-43 30q-14 0 -39 -6t-39 -6q-25 0 -45 14q-29 22 -29 57zM313 1346q0 27 11 50t24 34 q34 36 76 36q36 0 59 -10q14 -5 29 -20q39 -39 39 -93q0 -25 -8 -43q-11 -27 -39.5 -50t-69.5 -23q-44 0 -72 22q-18 14 -33.5 40t-15.5 57zM741 1350q0 59 54 98q27 18 59 20q54 1 90.5 -34t36.5 -86q0 -45 -31 -80q-39 -41 -90 -41q-9 0 -41 8q-28 10 -53 39.5t-25 75.5z " />
<glyph unicode="&#xff;" horiz-adv-x="1280" d="M-35 -195q0 33 8 54q10 30 28.5 50.5t40 28.5t35 10.5t25.5 2.5q39 0 72 -23q41 -29 41 -80q0 -47 -37 -73q-12 -9 -24 -13q12 -16 20 -22q34 -27 105 -27q73 0 145 45q31 17 49 39q25 25 45 60q29 46 37 71t8 54q0 61 -49 178l-43 110q-27 72 -85 214.5t-85 213.5 q-42 111 -65 160q-20 45 -35 61.5t-41 16.5q-14 0 -44 -7t-46 -7q-19 2 -27 4q-45 20 -45 65q0 33 20 49q28 25 84 25q28 0 78 -8q62 -6 123 -6q55 0 111 6q87 10 104 10q37 0 64.5 -16.5t27.5 -55.5q0 -26 -18 -47.5t-60 -21.5q-19 0 -65 8q-4 0 -11.5 1t-11.5 1 q-10 0 -18 -7t-8 -16t12 -45q14 -43 53 -155q10 -27 30 -81.5t30 -82.5q45 -123 78 -221q24 -74 57 -185q29 101 53 166q9 27 32 87.5t34 92.5q45 119 114 314q5 13 11.5 31.5t10 28t6.5 21t3 19.5q0 14 -10 22.5t-18 10.5t-15 2q-3 0 -33 -6q-40 -8 -61 -8q-13 0 -25 4 q-43 19 -43 67q0 17 8 33q19 37 86 37q20 0 55.5 -3.5t47.5 -4.5q43 -6 84 -6t115 8q47 6 90 6q47 0 70.5 -21t23.5 -49q0 -22 -17 -45.5t-55 -23.5q-7 0 -39 4q-24 6 -32 6q-13 0 -19 -4q-12 -7 -22.5 -22.5t-16.5 -28t-18 -41.5q-48 -118 -137.5 -351.5t-137.5 -351.5 q-65 -158 -101 -231.5t-83 -134.5q-44 -63 -111 -113q-114 -84 -249 -84q-90 0 -164 31q-36 15 -60 33q-90 72 -90 167zM362 1352q0 20 9 43q13 30 38 48t41 21.5t27 3.5q37 0 62 -14q61 -31 61 -108q0 -50 -37 -83.5t-86 -33.5q-28 0 -53 14q-62 34 -62 109zM791 1352 q0 37 22 67q33 46 86 49q25 4 55 -6q29 -12 52.5 -40.5t23.5 -73.5q0 -22 -12 -50q-16 -33 -46.5 -50t-62.5 -17q-29 0 -51 10q-26 13 -46.5 41.5t-20.5 69.5z" />
<glyph unicode="&#x152;" horiz-adv-x="2174" d="M84 727q0 344 172 549q48 55 88 86q15 10 72 43q76 42 180 57q47 6 92 6q55 0 117 -10q1 0 14 -3t27.5 -6.5t37 -11t44.5 -17t49 -25.5t51 -35q35 -28 94 -94q-28 70 -28 112q0 19 10 35q8 13 22 19.5t22 7t28 0.5q64 0 193 -3t194 -3q77 0 241 4q22 1 65 2t64 2 q12 2 37 2q75 0 94 -55q7 -14 7 -48q0 -18 -3 -49.5t-4 -40.5q-8 -90 -8 -135q0 -26 10 -133q5 -58 5 -68q0 -29 -17 -53q-12 -12 -18 -16q-15 -12 -47 -12q-22 0 -41 15.5t-23 27.5q-5 12 -7 34.5t-2 42t0.5 60t0.5 63.5q0 88 -9.5 131.5t-45.5 67.5q-20 13 -69.5 19 t-91.5 7t-124 1q-212 0 -254 -19q-45 -22 -45 -78q-2 -33 -2 -100q-4 -106 -4 -158q0 -30 0.5 -41.5t5.5 -26t16 -22.5q22 -16 82 -16q32 0 94 4q47 0 72 12q47 24 47 84q0 28 -8 86q-4 32 -4 47q0 21 8 39q20 43 64 43q7 0 17 -2t17 -4l7 -2q23 -14 34 -41q5 -15 5 -41 q0 -23 -15 -141q-10 -88 -10 -164q0 -84 20 -256q5 -35 5 -41q0 -45 -25 -63.5t-53 -18.5q-25 0 -41 12q-21 15 -26 32.5t-5 45.5q0 23 5 70t5 71q0 53 -43 74q-27 14 -106 14q-57 0 -86 -2h-9h-9.5t-8.5 -0.5t-9 -1t-8 -2.5t-8.5 -4t-7.5 -5.5t-8 -8.5q-5 -5 -7.5 -9.5 t-3.5 -11.5t-1.5 -11t0 -16t0.5 -18q0 -36 1 -106t1 -105q0 -139 6 -186l2 -11q2 -12 7.5 -25t15.5 -21q6 -5 14 -9t14.5 -7t18.5 -4.5t19 -2.5t22.5 -1.5t23.5 -0.5h27.5h28.5h149q35 0 109 4q118 0 165 33q21 16 31 41q15 39 15 92q0 6 1 19.5t1 19.5t-1 18.5t-1 18.5 q0 20 -2.5 61.5t-2.5 63.5q0 44 11 63q24 39 65 39q37 0 58 -18q24 -24 24 -84q0 -35 -8 -105q-4 -78 -4 -118q0 -39 4 -109q1 -8 2.5 -21.5t2.5 -25t1 -21.5q0 -38 -14 -63q-24 -41 -99 -41q-23 0 -48 1t-55.5 2.5t-47.5 2.5q-74 2 -219 2q-1 0 -340 -6q-19 0 -58.5 -1 t-60.5 -1q-39 0 -53 20q-10 16 -10 35q0 5 1 14.5t1 14.5q4 30 16 98q-13 -26 -47 -65q-137 -144 -381 -144q-308 0 -471 256q-46 74 -76 160q-49 150 -49 338zM272 739q0 -131 29 -252q3 -20 13 -54.5t46 -102t86 -111.5q34 -32 89 -57q77 -35 161 -35q135 0 226 70 q54 39 104 131q82 160 82 401q0 32 -3 78.5t-18.5 134.5t-42.5 152q-25 66 -77 125q-44 47 -86 69q-34 17 -90.5 30t-120.5 9q-22 -1 -43 -4t-61.5 -16t-75.5 -35t-75 -65t-69 -101q-31 -63 -49.5 -154t-21.5 -136.5t-3 -76.5z" />
<glyph unicode="&#x153;" horiz-adv-x="1921" d="M96 522q0 206 88 348q88 143 238 201q96 29 186 29q53 0 115.5 -14t107.5 -39q58 -38 74 -52q39 -39 51 -55q13 -19 41 -74q7 17 21 41q42 63 100 105q117 86 287 86q219 0 348 -148q32 -34 47 -65q72 -119 72 -289q0 -38 -10 -61q-10 -17 -31 -25q-14 -2 -70 -2h-686 v-14v-19t0.5 -21.5t2 -26t4 -27.5t6.5 -31.5t9.5 -32t13 -35t17.5 -35.5q87 -157 273 -157q19 0 37 2t61 11t83.5 35.5t68.5 67.5q8 11 16 35q7 11 16 41q16 54 19 59q21 41 63 41q38 0 62 -24.5t24 -61.5q0 -14 -4 -30.5t-9 -31.5l-5 -15q-34 -79 -84 -134q-27 -27 -47 -43 q-23 -15 -53 -32q-113 -62 -260 -62q-117 0 -209 41q-51 22 -86 51q-50 42 -113 136q-48 -117 -147 -172q-104 -58 -240 -58t-240 55q-41 25 -53 35q-61 51 -82 76q-123 153 -123 391zM276 532q0 -128 33 -219q41 -117 140 -170q77 -37 153 -37q97 0 172 54q34 24 57 53 q87 113 87 319q0 48 -5.5 94.5t-22 103t-43 100t-74 78.5t-109.5 46q-53 9 -89 7q-34 -3 -65 -11q-92 -24 -148 -102q-86 -112 -86 -316zM1094 653l602 2q0 15 -4 39q-1 16 -8 41t-23 65t-52 78t-85 58q-46 20 -127 20q-21 0 -44 -3.5t-66.5 -17.5t-84.5 -51.5t-69 -95.5 q-15 -29 -22.5 -55t-16.5 -80z" />
<glyph unicode="&#x178;" horiz-adv-x="1579" d="M-2 1372q0 28 18 49q22 25 70 25q27 0 127 -14q97 -9 127 -9q48 0 176 13q100 14 127 14q21 0 39 -6q45 -20 45 -72q0 -21 -12 -37q-22 -35 -86 -35q-19 0 -51.5 4t-45.5 5q-5 0 -14 1t-14 1q-25 0 -25 -19q0 -6 2 -10q32 -64 47 -84q2 -4 23.5 -40t32.5 -56 q17 -28 102.5 -176t132.5 -226q143 236 193 326q7 8 20 35q89 143 119 199q12 24 12 30q0 23 -28 23q-8 0 -22.5 -2t-22.5 -2q-74 -9 -99 -9q-2 0 -16.5 1.5t-16.5 1.5q-27 5 -42.5 21.5t-19 29t-3.5 24.5q1 26 16.5 42.5t30.5 23.5q16 4 43 4q18 0 38.5 -2t45.5 -5.5 t39 -4.5q86 -13 162 -13q51 0 137 11q96 14 125 14q60 0 78 -39q10 -10 10 -37q0 -18 -12 -35q-20 -34 -68 -34q-16 0 -49 4t-49 4q-34 0 -62 -21q-8 -6 -19 -20t-19.5 -27.5t-24 -39t-25.5 -40.5q-11 -19 -24.5 -40t-30 -46.5t-25.5 -40.5q-23 -35 -63.5 -101t-48.5 -79 q-33 -51 -97.5 -153.5t-97.5 -153.5q0 -160 2 -240q0 -93 21 -131q20 -41 75 -41q16 0 50.5 4t52.5 4q14 0 24 -2q19 -6 35.5 -23.5t16.5 -47.5q0 -29 -25 -54q-9 -9 -22 -14q-15 -6 -37 -6q-25 0 -121 14q-101 11 -168 11q-85 0 -229 -19q-28 -4 -46 -4q-45 0 -66.5 22 t-21.5 50q0 34 22.5 54.5t55.5 20.5q16 0 49 -4t50 -4q40 0 67 29q14 17 21 37q12 39 12 176q2 51 2 156q-26 43 -56.5 90.5t-67.5 105t-58 90.5q-24 39 -71.5 116t-72.5 116q-13 21 -36.5 58.5t-38 60.5t-32 50t-30 42.5t-20.5 21.5q-21 21 -60 21q-17 0 -52 -4.5t-54 -4.5 q-32 0 -54 19t-22 53zM500 1708q0 63 43 102q41 35 92 35q71 0 113 -57q24 -35 24 -76q0 -7 -4 -31q-6 -36 -39 -69q-39 -39 -92 -39q-29 0 -57 12t-54 44.5t-26 78.5zM885 1710q0 57 37 97.5t94 41.5q30 0 55 -10q31 -13 58.5 -44.5t27.5 -80.5q0 -48 -29 -86 q-42 -53 -106 -53q-25 0 -55 10q-30 14 -56 46.5t-26 78.5z" />
<glyph unicode="&#x2c6;" horiz-adv-x="724" d="M-160 1229q0 3 0.5 6t2.5 6.5t3.5 5.5t5 6t5.5 6t7.5 6.5t8.5 6.5t10 7.5t11 8.5q78 60 178 129q18 13 82 56q40 30 55 28q11 0 26.5 -9.5t20.5 -14.5q22 -15 35 -25q18 -13 54 -37.5t54 -36.5q95 -69 138 -98l5 -3q4 -3 9.5 -7.5t11.5 -10.5t9.5 -13t2.5 -13 q0 -9 -9 -17t-19 -8q-3 0 -9.5 1t-9.5 1q-17 2 -60.5 17.5t-51.5 17.5q-172 66 -213 84q-37 -21 -56 -29l-86 -30q-11 -4 -30.5 -11.5t-35 -13.5t-30.5 -10q-16 -5 -39 -14t-35 -12t-22 -3q-3 0 -8.5 1.5t-13 7t-7.5 14.5z" />
<glyph unicode="&#x2dc;" horiz-adv-x="724" d="M-131 1280q0 31 22 76q18 39 41 64t49.5 34.5t39 12t34.5 3.5q80 5 181 -34q123 -47 163 -47q38 0 64 22q2 2 15.5 15t23 19.5t16.5 6.5q8 0 17.5 -8t9.5 -23q0 -4 -1 -10t-2.5 -13.5t-2.5 -11.5q-13 -48 -38.5 -82t-54.5 -49q-33 -22 -100 -22q-36 0 -77.5 11t-91 28 t-77.5 24q-10 3 -23.5 7t-18.5 5.5t-13 3.5t-14 2.5t-15 0.5q-55 0 -82 -35q-18 -35 -38 -35q-11 0 -19 12t-8 23z" />
<glyph unicode="&#x2000;" horiz-adv-x="924" />
<glyph unicode="&#x2001;" horiz-adv-x="1849" />
<glyph unicode="&#x2002;" horiz-adv-x="924" />
<glyph unicode="&#x2003;" horiz-adv-x="1849" />
<glyph unicode="&#x2004;" horiz-adv-x="616" />
<glyph unicode="&#x2005;" horiz-adv-x="462" />
<glyph unicode="&#x2006;" horiz-adv-x="308" />
<glyph unicode="&#x2007;" horiz-adv-x="308" />
<glyph unicode="&#x2008;" horiz-adv-x="231" />
<glyph unicode="&#x2009;" horiz-adv-x="369" />
<glyph unicode="&#x200a;" horiz-adv-x="102" />
<glyph unicode="&#x2010;" horiz-adv-x="641" d="M59 563q0 20 11 35q27 35 77 35q24 2 50 2t57.5 -1t48.5 -1q126 0 189 2q50 4 77 -8q17 -6 32 -24t15 -46q0 -49 -47 -68q-10 -4 -34 -6t-47.5 -1.5t-66 1t-67.5 0.5q-28 0 -83 -1t-83 -1q-66 0 -84 8q-45 21 -45 74z" />
<glyph unicode="&#x2011;" horiz-adv-x="641" d="M59 563q0 20 11 35q27 35 77 35q24 2 50 2t57.5 -1t48.5 -1q126 0 189 2q50 4 77 -8q17 -6 32 -24t15 -46q0 -49 -47 -68q-10 -4 -34 -6t-47.5 -1.5t-66 1t-67.5 0.5q-28 0 -83 -1t-83 -1q-66 0 -84 8q-45 21 -45 74z" />
<glyph unicode="&#x2012;" horiz-adv-x="641" d="M59 563q0 20 11 35q27 35 77 35q24 2 50 2t57.5 -1t48.5 -1q126 0 189 2q50 4 77 -8q17 -6 32 -24t15 -46q0 -49 -47 -68q-10 -4 -34 -6t-47.5 -1.5t-66 1t-67.5 0.5q-28 0 -83 -1t-83 -1q-66 0 -84 8q-45 21 -45 74z" />
<glyph unicode="&#x2013;" horiz-adv-x="1323" d="M59 553q0 46 37 70q16 10 45 12q25 2 72 2q52 -3 106 0q40 0 120 -1t120 -1q87 0 260 1t260 1q98 0 123 -6q24 -7 38.5 -28t14.5 -46q0 -29 -19 -49.5t-38 -26.5q-14 -4 -98 -4h-96h-809q-36 0 -48.5 0.5t-29.5 4.5t-29 14q-29 23 -29 57z" />
<glyph unicode="&#x2014;" d="M0 537v120h1366v-120h-1366z" />
<glyph unicode="&#x2018;" horiz-adv-x="512" d="M100 1077q0 37 6 64q14 87 62 178q7 13 53 82q30 41 51 60t41 20q16 3 31.5 -10t15.5 -31q0 -12 -6.5 -24t-24.5 -36.5t-28 -40.5q-4 -4 -21 -32t-36 -72.5t-19 -73.5q0 -15 13 -24q9 -6 17 -8t21 -0.5t17 1.5q29 0 53 -12q29 -12 49.5 -43t20.5 -78q0 -49 -29 -86 q-43 -53 -121 -53q-28 0 -71 19q-15 9 -27 18q-68 58 -68 182z" />
<glyph unicode="&#x2019;" horiz-adv-x="512" d="M133 1339q0 31 8 50q10 30 42 59t83 33q42 0 74 -13q39 -17 64.5 -49t34 -69t10.5 -53t2 -31q0 -120 -80 -262q-7 -13 -45 -68q-52 -80 -90 -78q-18 0 -32 13t-14 28q0 13 11 31q7 14 25 37.5t20 25.5q78 117 78 185q0 11 -11 22q-9 6 -17.5 8t-23.5 1t-16 -1 q-40 0 -74 23q-22 18 -22 24q-27 34 -27 84z" />
<glyph unicode="&#x201a;" horiz-adv-x="512" d="M135 82q0 56 31 94q42 51 100 51q63 7 109 -28q21 -16 29 -27t18 -31q29 -56 29 -133q0 -75 -35 -165.5t-92 -164.5q-42 -53 -62 -65q-14 -8 -26 -8q-17 0 -31.5 14t-14.5 29q0 5 1.5 10t2.5 8.5t5.5 10.5t7.5 10.5t11 14.5t13 17q3 3 15 21q78 117 78 186q0 19 -13.5 26 t-25.5 7q-3 0 -16 -1t-22.5 -1t-25.5 4.5t-31 13.5q-55 35 -55 107z" />
<glyph unicode="&#x201c;" horiz-adv-x="937" d="M100 1073q0 96 56 213q7 16 32 64q19 30 35 49q30 41 50 60t40 20q8 3 19 -2q28 -9 28 -39q0 -12 -6 -23.5t-18.5 -28t-16.5 -22.5q-53 -73 -83 -156q-11 -37 -11 -47q0 -17 13 -26q7 -5 15.5 -7t25.5 -1t18 1q18 0 39 -8q27 -10 45.5 -28.5t25.5 -38.5t9 -32.5t2 -21.5 q0 -74 -64 -118q-32 -23 -88 -23q-39 0 -57 12q-50 20 -79.5 71t-29.5 132zM528 1075q0 115 80 262q28 45 62 88q15 19 21.5 26.5t21 17.5t28.5 12q17 0 31 -13t14 -30q0 -10 -4.5 -21t-10 -19t-19.5 -26.5t-23 -30.5q-26 -38 -51 -94.5t-25 -87.5q0 -33 43 -33q1 0 14.5 1 t23.5 0.5t27 -5.5t32 -16q53 -42 53 -109q0 -47 -35 -90q-39 -49 -115 -49q-70 0 -119 54.5t-49 162.5z" />
<glyph unicode="&#x201d;" horiz-adv-x="937" d="M133 1337q0 61 38.5 100t100.5 44q70 3 124.5 -51t54.5 -164q0 -69 -27 -150q-1 -3 -25 -57q-21 -49 -53 -96q-51 -73 -76 -93q-8 -5 -22 -10q-10 -5 -15 -2q-15 0 -29 14t-14 29q0 10 5.5 21t19 28t16.5 21q23 31 49 79.5t35 77.5q11 22 11 52q0 4 -2 10q-3 9 -12.5 14 t-17.5 6h-9q-6 0 -17.5 -1t-17.5 -1q-44 3 -72.5 29t-38.5 55q-6 18 -6 45zM561 1341q0 39 23 74q36 60 114 64q68 7 124.5 -47t56.5 -164q-6 -175 -123 -330q-33 -44 -53.5 -62t-40.5 -18q-23 0 -33.5 15t-10.5 28q0 12 5.5 22t20.5 29t26 35l6 11q7 10 16 24.5t19.5 35 t19.5 40t15 41t6 37.5q0 19 -11 26.5t-22 7.5q-4 0 -19.5 -0.5t-20.5 0t-17.5 2t-20 4.5t-18 9t-19.5 14q-35 30 -41 74q0 5 -1 14t-1 14z" />
<glyph unicode="&#x201e;" horiz-adv-x="937" d="M131 84q0 24 10 55q13 35 44.5 61t84.5 29q31 0 58 -8q55 -18 88 -71.5t33 -137.5q0 -92 -40.5 -181.5t-80.5 -141.5q-33 -45 -54.5 -64t-40.5 -18q-17 0 -31 13t-14 30q1 13 7 23.5t21.5 30t27.5 36.5l8 14q8 13 19.5 34t23 44.5t19.5 49.5t8 44q0 14 -9 22.5 t-16.5 10.5t-13.5 2q-2 0 -13 -2t-23.5 -2t-25.5 4q-40 12 -65 47t-25 76zM559 82q0 59 33 96q34 43 102 49q60 5 111 -32q72 -58 72 -183q0 -53 -26.5 -142t-94.5 -181q-63 -82 -97 -82q-17 0 -30 13.5t-13 29.5q0 11 5.5 21.5t17 25.5t16.5 22q40 58 58 91q37 75 37 116 q0 16 -11 25q-7 5 -16 6.5t-23.5 0.5t-17.5 -1q-68 0 -104 61q-19 32 -19 64z" />
<glyph unicode="&#x2022;" horiz-adv-x="681" d="M96 721q1 104 74 175t176 71q101 0 170.5 -70.5t69.5 -173.5q0 -55 -23 -107q-29 -65 -87.5 -101t-131.5 -36q-52 0 -104 23q-66 29 -105 88t-39 131z" />
<glyph unicode="&#x2026;" horiz-adv-x="2048" d="M246 84q0 40 28.5 67t67.5 27q41 0 67.5 -26.5t26.5 -67.5q0 -40 -27 -68.5t-67 -27.5q-40 0 -68 28t-28 68zM930 84q0 40 28 67t68 27t66 -26.5t28 -67.5q0 -39 -28 -68t-68 -28q-41 0 -67.5 28t-26.5 68zM1612 84q0 40 28.5 67t67.5 27q40 0 67 -26.5t27 -67.5 q0 -38 -28 -67t-66 -29q-41 0 -68.5 28t-27.5 68z" />
<glyph unicode="&#x202f;" horiz-adv-x="369" />
<glyph unicode="&#x205f;" horiz-adv-x="462" />
<glyph unicode="&#x2122;" horiz-adv-x="1579" d="M45 1272q4 54 8 174q36 0 107 -1t106 -1q121 -2 363 2q4 -116 8 -176l-59 2l-19 49q-10 21 -21 33.5t-26 17t-23 5.5t-24 1h-59v-452q0 -6 1 -17t1 -16q0 -33 10 -44.5t43 -14.5l39 -5l-2 -63q-140 4 -211 2q-17 0 -52 -1t-53 -1v63l37 2q27 6 37 11q4 2 7 4.5t5 6 t3.5 6.5t2.5 9t1.5 9.5t0.5 10.5v11v13v14v452h-59q-35 0 -49 -6q-36 -15 -62 -102zM698 766v63l17 2q37 6 47 24.5t10 76.5v426l-6 8q-16 10 -24 12.5t-33 3.5v64q41 -2 122 -2q11 0 33.5 1t34.5 1l205 -506l215 506h190v-64h-16q-18 -2 -27 -4.5t-18.5 -10t-13.5 -22.5 t-4 -40v-375v-13.5v-13v-11.5t0.5 -11t1 -9.5t1.5 -9t2 -7.5t3 -6.5t4 -4.5q15 -13 41 -13l14 -2v-63q-102 4 -156 4q-18 -1 -51.5 -2t-50.5 -2v63l14 2q19 1 30.5 5.5t16.5 13.5t6 16.5t1 20.5v360l-201 -481h-47l-203 485v-321q0 -72 21 -86q15 -13 45 -13l16 -2v-63 q-120 3 -240 0z" />
<glyph unicode="&#x25fc;" horiz-adv-x="1064" d="M0 0v1065h1065v-1065h-1065z" />
<glyph unicode="&#xfb01;" horiz-adv-x="1323" d="M14 70q0 32 20 51.5t52 19.5q28 0 53 -4q36 -8 47 -8q19 0 31 12q10 15 12 17q15 39 15 227q2 39 2 117q0 27 -0.5 77.5t-0.5 92t1 78.5v71v43v10v8.5v6.5t-0.5 5.5t-1.5 4t-3 4t-4.5 3t-5.5 3.5q-8 4 -19 5t-28 0t-18 -1h-39h-35q-24 4 -43.5 23t-19.5 57q0 23 12 39 q11 15 26 23t25.5 9t28.5 1h57q5 0 15.5 -1t15.5 -1q36 3 41 16q0 2 3 50.5t3 50.5q9 81 30.5 129t63.5 88q94 86 252 86q162 0 242 -80q51 -51 51 -119q0 -40 -21 -70q-9 -14 -30.5 -28t-50.5 -15q-22 0 -48 13q-29 15 -42 40.5t-13 45.5q0 11 3.5 20.5t9.5 19.5l6 9 q-24 35 -91 35q-40 0 -77 -11q-20 -5 -39 -15.5t-43 -38t-35 -66.5q-4 -14 -7.5 -46.5t-5 -55t-1.5 -27.5q0 -18 12 -25q5 -4 67 -4q15 0 44 0.5t42.5 0.5t30 -1.5t25.5 -5.5q17 -5 31 -24.5t14 -47.5q0 -23 -19 -51q-12 -12 -26 -17.5t-21.5 -6.5t-38 0t-45.5 1 q-32 -3 -61 0h-21q-24 0 -30 -14q-3 -4 -3.5 -46t0.5 -117.5t1 -96.5v-315q0 -135 14 -166q12 -29 41 -29q3 0 45 6q48 6 49 6q40 0 60 -21t20 -44q0 -78 -106 -78q-12 0 -84 10q-82 8 -127 8q-24 0 -127 -10q-1 0 -35 -3t-51 -3q-42 0 -66 16q-31 22 -31 54zM733 72 q0 22 15 43q16 26 59 26q15 0 72 -10q20 -4 30 -4q7 0 13 1.5t10.5 3.5t8 6t6 7t4.5 7.5t3 7t2.5 7t1.5 5.5q4 15 5.5 33t2 31.5t0.5 45.5t1 54q2 39 2 119v133q-6 216 -6 219q-3 56 -13 86q0 3 -5 15.5t-11 17.5q-12 10 -35 10q-17 0 -46 -7t-46 -7q-35 0 -53.5 22 t-18.5 43q0 66 80 76q27 2 79 -3t71 -5q33 0 47 4q6 1 16.5 2.5t19.5 2.5t17 1q4 0 8 -2q25 -2 43.5 -19t18.5 -53v-43q-5 -82 -5 -100q-2 -74 -2 -217q0 -207 2 -309q0 -138 19 -170q14 -25 45 -25q7 0 14 1.5t16 4.5t15 4q0 4 31 4q39 0 57.5 -22t18.5 -45q0 -20 -13 -39 q-23 -35 -90 -35q-19 0 -53 3.5t-45 4.5q-53 6 -105 6q-54 0 -106 -6q-12 -1 -48 -4.5t-55 -3.5q-98 0 -98 72zM907 1284q2 18 11 41q9 25 36 48t64 26q46 7 86 -27q45 -32 45 -90q0 -26 -14 -57q-12 -25 -40.5 -44.5t-66.5 -19.5q-52 0 -86.5 36.5t-34.5 86.5z" />
<glyph unicode="&#xfb02;" horiz-adv-x="1323" d="M14 70q0 32 20 51.5t52 19.5q28 0 53 -4q36 -8 47 -8q19 0 31 12q10 15 12 17q15 39 15 227q2 39 2 117q0 27 -0.5 77.5t-0.5 92t1 78.5v71v43v10v8.5v6.5t-0.5 5.5t-1.5 4t-3 4t-4.5 3t-5.5 3.5q-8 4 -19 5t-28 0t-18 -1h-39h-35q-24 4 -43.5 23t-19.5 57q0 23 12 39 q11 15 26 23t25.5 9t28.5 1h57q5 0 15.5 -1t15.5 -1q36 3 41 16q0 2 3 50.5t3 50.5q9 81 30.5 129t63.5 88q94 86 252 86q162 0 242 -80q51 -51 51 -119q0 -40 -21 -70q-9 -14 -30.5 -28t-50.5 -15q-22 0 -48 13q-29 15 -42 40.5t-13 45.5q0 11 3.5 20.5t9.5 19.5l6 9 q-24 35 -91 35q-40 0 -77 -11q-20 -5 -39 -15.5t-43 -38t-35 -66.5q-4 -14 -7.5 -46.5t-5 -55t-1.5 -27.5q0 -18 12 -25q5 -4 67 -4q15 0 44 0.5t42.5 0.5t30 -1.5t25.5 -5.5q17 -5 31 -24.5t14 -47.5q0 -23 -19 -51q-12 -12 -26 -17.5t-21.5 -6.5t-38 0t-45.5 1 q-32 -3 -61 0h-21q-24 0 -30 -14q-3 -4 -3.5 -46t0.5 -117.5t1 -96.5v-315q0 -135 14 -166q12 -29 41 -29q3 0 45 6q48 6 49 6q40 0 60 -21t20 -44q0 -78 -106 -78q-12 0 -84 10q-82 8 -127 8q-24 0 -127 -10q-1 0 -35 -3t-51 -3q-42 0 -66 16q-31 22 -31 54zM735 74 q0 25 17.5 47t56.5 22q15 0 46 -7t46 -7q34 0 49 39q5 13 7.5 41.5t4 73t2.5 86t1.5 103t1.5 101.5q2 70 2 207v213q-1 22 -1.5 91.5t-2.5 105.5q-6 79 -14 97q-13 29 -48 30q-12 -1 -43.5 -7.5t-48.5 -6.5q-31 0 -52.5 18.5t-21.5 50.5q0 31 21 50t53 22q29 2 82.5 -4 t75.5 -6q19 0 59 4q5 1 26 4.5t31 3.5q36 0 50 -19q10 -13 10 -36q0 -31 -3.5 -89.5t-4.5 -76.5q-1 -40 -2 -121t-2 -121q-5 -175 -5 -211v-166q0 -159 2 -241q0 -157 13 -201q14 -35 47 -35q14 0 43 6t45 6q39 0 55.5 -24t16.5 -45q0 -15 -7 -29q-18 -43 -83 -43 q-19 0 -41.5 2t-50 5.5t-42.5 4.5q-23 2 -69 2q-61 0 -123 -6q-5 0 -42.5 -3t-57.5 -3q-64 0 -86 31q-13 26 -13 41z" />
</font>
</defs>
</svg>
