<svg xmlns="http://www.w3.org/2000/svg" width="155" height="100"><path fill="#010101" d="M18.663 3.625c.848.365 1.567.901 2.156 1.609.487.583.873 1.229 1.158 1.938.285.708.427 1.516.427 2.422 0 1.094-.276 2.169-.828 3.227-.552 1.058-1.463 1.805-2.734 2.242 1.062.427 1.815 1.034 2.258 1.82.443.787.664 1.987.664 3.602v1.547c0 1.052.042 1.766.127 2.141.127.594.423 1.031.889 1.312v.578h-5.312c-.146-.51-.25-.922-.312-1.234-.125-.646-.193-1.307-.203-1.984l-.031-2.141c-.02-1.469-.273-2.448-.761-2.938-.488-.489-1.402-.734-2.742-.734h-4.7v9.031h-4.706v-23.031h11.016c1.575.031 2.786.229 3.634.593zm-9.947 3.407v6.188h5.179c1.029 0 1.8-.125 2.315-.375.91-.438 1.365-1.302 1.365-2.594 0-1.396-.44-2.333-1.321-2.812-.495-.271-1.236-.406-2.226-.406h-5.312z"/><path fill="#010101" d="M40.057 23.979c-1.438 1.774-3.62 2.662-6.547 2.662-2.927 0-5.109-.887-6.547-2.662s-2.156-3.911-2.156-6.409c0-2.456.719-4.584 2.156-6.385 1.438-1.801 3.62-2.701 6.547-2.701 2.927 0 5.109.9 6.547 2.701 1.438 1.8 2.156 3.929 2.156 6.385 0 2.499-.719 4.635-2.156 6.409zm-3.563-2.461c.698-.926 1.047-2.241 1.047-3.947s-.349-3.019-1.047-3.939c-.698-.92-1.698-1.381-3-1.381s-2.305.46-3.008 1.381-1.055 2.233-1.055 3.939.352 3.021 1.055 3.947 1.706 1.389 3.008 1.389 2.302-.463 3-1.389z"/><path fill="#010101" d="M54.062 8.633l.383.023v4.562c-.281-.031-.531-.052-.75-.062l-.531-.016c-1.792 0-2.995.583-3.609 1.75-.344.656-.516 1.667-.516 3.031v8.141h-4.484v-17.03h4.25v2.968c.688-1.135 1.286-1.911 1.797-2.328.833-.698 1.917-1.047 3.25-1.047l.21.008z"/><path fill="#010101" d="M60.832 7h-4.516v-4.109h4.516v4.109zm-4.516 2.032h4.516v17.031h-4.516v-17.031z"/><path fill="#010101" d="M6.104 35.438c1.855-1.896 4.215-2.844 7.08-2.844 3.833 0 6.637 1.271 8.409 3.812.979 1.427 1.504 2.859 1.577 4.297h-4.812c-.306-1.104-.699-1.938-1.179-2.5-.857-1-2.127-1.5-3.811-1.5-1.715 0-3.067.706-4.057 2.117-.99 1.412-1.485 3.409-1.485 5.992s.522 4.519 1.567 5.805c1.044 1.287 2.371 1.929 3.981 1.929 1.65 0 2.909-.551 3.775-1.656.479-.594.876-1.484 1.192-2.672h4.781c-.413 2.511-1.466 4.552-3.161 6.125-1.695 1.574-3.867 2.359-6.515 2.359-3.277 0-5.854-1.062-7.729-3.188-1.875-2.135-2.813-5.062-2.813-8.781 0-4.019 1.067-7.118 3.2-9.295z"/><path fill="#010101" d="M40.057 53.979c-1.438 1.774-3.62 2.661-6.547 2.661-2.927 0-5.109-.887-6.547-2.661s-2.156-3.911-2.156-6.409c0-2.456.719-4.584 2.156-6.385 1.438-1.801 3.62-2.701 6.547-2.701 2.927 0 5.109.9 6.547 2.701 1.438 1.8 2.156 3.929 2.156 6.385 0 2.499-.719 4.635-2.156 6.409zm-3.563-2.461c.698-.925 1.047-2.241 1.047-3.947s-.349-3.019-1.047-3.939c-.698-.92-1.698-1.381-3-1.381s-2.305.46-3.008 1.381-1.055 2.233-1.055 3.939.352 3.021 1.055 3.947c.703.926 1.706 1.389 3.008 1.389 1.302-.001 2.302-.464 3-1.389z"/><path fill="#010101" d="M49.147 56.062h-4.453v-23.03h4.453v23.03z"/><path fill="#010101" d="M63.79 39.376c1.188.532 2.169 1.372 2.943 2.52.698 1.012 1.15 2.186 1.357 3.521.12.782.168 1.909.146 3.38h-12.404c.069 1.708.663 2.906 1.781 3.593.68.428 1.498.641 2.455.641 1.015 0 1.839-.26 2.473-.781.346-.281.651-.672.917-1.172h4.546c-.12 1.012-.67 2.037-1.651 3.078-1.526 1.656-3.662 2.484-6.408 2.484-2.267 0-4.266-.697-5.999-2.096-1.732-1.396-2.599-3.669-2.599-6.818 0-2.95.782-5.213 2.346-6.787s3.594-2.361 6.09-2.361c1.484.001 2.819.267 4.007.798zm-6.662 3.848c-.63.649-1.025 1.527-1.187 2.636h7.672c-.081-1.182-.477-2.079-1.187-2.691-.71-.612-1.59-.918-2.641-.918-1.142-.001-2.028.324-2.657.973z"/><path fill="#010101" d="M90.938 39.094c.729.292 1.391.802 1.984 1.531.479.594.802 1.323.969 2.188.104.573.156 1.412.156 2.516l-.031 10.734h-4.562v-10.844c0-.646-.104-1.177-.312-1.594-.396-.792-1.125-1.188-2.188-1.188-1.229 0-2.078.511-2.547 1.531-.24.542-.359 1.193-.359 1.953v10.14h-4.484v-10.14c0-1.01-.104-1.745-.312-2.203-.375-.823-1.109-1.234-2.203-1.234-1.271 0-2.125.412-2.562 1.234-.24.469-.359 1.167-.359 2.094v10.25h-4.518v-17h4.328v2.484c.552-.885 1.072-1.516 1.562-1.891.864-.667 1.984-1 3.359-1 1.302 0 2.354.287 3.156.859.646.531 1.135 1.214 1.469 2.047.583-1 1.307-1.734 2.172-2.203.916-.469 1.938-.703 3.062-.703.752.002 1.491.148 2.22.439z"/><path fill="#010101" d="M104.087 45.704c.829-.104 1.422-.234 1.778-.391.641-.271.961-.692.961-1.266 0-.698-.246-1.18-.737-1.445s-1.212-.398-2.161-.398c-1.066 0-1.822.261-2.266.781-.316.386-.527.906-.633 1.562h-4.297c.094-1.489.512-2.713 1.255-3.672 1.183-1.5 3.212-2.25 6.089-2.25 1.873 0 3.536.37 4.99 1.109 1.454.74 2.182 2.136 2.182 4.188v7.812c0 .543.01 1.199.031 1.969.031.584.119.98.266 1.188.146.209.364.381.656.516v.656h-4.844c-.136-.344-.229-.666-.281-.969-.053-.301-.094-.645-.125-1.031-.619.668-1.331 1.234-2.138 1.703-.964.553-2.054.828-3.27.828-1.551 0-2.831-.439-3.843-1.32-1.011-.879-1.516-2.127-1.516-3.742 0-2.093.812-3.609 2.439-4.546.892-.51 2.203-.875 3.936-1.094l1.528-.188zm2.723 2.078c-.285.177-.573.32-.863.43s-.688.211-1.195.305l-1.014.188c-.95.167-1.633.37-2.047.609-.702.406-1.052 1.037-1.052 1.89 0 .762.214 1.311.643 1.648.428.34.949.508 1.562.508.973 0 1.869-.281 2.689-.844.819-.562 1.245-1.588 1.276-3.078v-1.656z"/><path fill="#010101" d="M128.072 40.008c1.114.922 1.672 2.451 1.672 4.586v11.468h-4.562v-10.358c0-.896-.119-1.583-.356-2.062-.435-.875-1.262-1.312-2.481-1.312-1.5 0-2.528.641-3.087 1.922-.29.677-.435 1.542-.435 2.594v9.218h-4.453v-17h4.312v2.484c.57-.875 1.11-1.505 1.618-1.891.913-.688 2.069-1.031 3.47-1.031 1.752-.001 3.187.46 4.302 1.382z"/><path fill="#B82025" d="M6.104 65.438c1.855-1.895 4.215-2.844 7.08-2.844 3.833 0 6.637 1.271 8.409 3.812.979 1.428 1.504 2.859 1.577 4.297h-4.812c-.306-1.104-.699-1.938-1.179-2.5-.857-1-2.127-1.5-3.811-1.5-1.715 0-3.067.707-4.057 2.117-.99 1.412-1.485 3.41-1.485 5.992 0 2.584.522 4.52 1.567 5.805 1.044 1.287 2.371 1.93 3.981 1.93 1.65 0 2.909-.551 3.775-1.656.479-.594.876-1.484 1.192-2.672h4.781c-.413 2.512-1.466 4.553-3.161 6.125-1.695 1.574-3.867 2.359-6.515 2.359-3.277 0-5.854-1.062-7.729-3.188-1.875-2.135-2.813-5.062-2.813-8.781 0-4.019 1.067-7.119 3.2-9.296z"/><path fill="#B82025" d="M40.057 83.979c-1.438 1.774-3.62 2.661-6.547 2.661-2.927 0-5.109-.887-6.547-2.661s-2.156-3.911-2.156-6.409c0-2.455.719-4.584 2.156-6.385s3.62-2.701 6.547-2.701c2.927 0 5.109.9 6.547 2.701s2.156 3.93 2.156 6.385c0 2.498-.719 4.635-2.156 6.409zm-3.563-2.461c.698-.926 1.047-2.24 1.047-3.947 0-1.705-.349-3.019-1.047-3.939-.698-.92-1.698-1.381-3-1.381s-2.305.461-3.008 1.381c-.703.921-1.055 2.234-1.055 3.939 0 1.707.352 3.021 1.055 3.947s1.706 1.389 3.008 1.389c1.302-.001 2.302-.464 3-1.389z"/><path fill="#B82025" d="M65.851 69.094c.729.293 1.391.803 1.984 1.531.479.594.802 1.324.969 2.188.104.574.156 1.412.156 2.516l-.031 10.734h-4.562v-10.844c0-.645-.104-1.176-.312-1.594-.396-.791-1.125-1.188-2.188-1.188-1.229 0-2.078.512-2.547 1.531-.24.543-.359 1.193-.359 1.953v10.141h-4.484v-10.14c0-1.01-.104-1.744-.312-2.203-.375-.822-1.109-1.234-2.203-1.234-1.271 0-2.125.412-2.562 1.234-.24.469-.359 1.168-.359 2.094v10.25h-4.516v-17h4.328v2.484c.552-.885 1.073-1.516 1.562-1.891.864-.666 1.984-1 3.359-1 1.302 0 2.354.287 3.156.859.646.531 1.135 1.215 1.469 2.047.583-1 1.307-1.734 2.172-2.203.917-.469 1.938-.703 3.062-.703.749 0 1.488.147 2.218.438z"/><path fill="#B82025" d="M86.576 70.859c1.39 1.469 2.084 3.625 2.084 6.469 0 3-.679 5.287-2.037 6.859-1.357 1.574-3.105 2.359-5.244 2.359-1.363 0-2.495-.338-3.397-1.016-.493-.375-.975-.922-1.447-1.641v8.875h-4.406v-23.733h4.266v2.516c.482-.738.996-1.322 1.541-1.75.996-.76 2.181-1.141 3.554-1.141 2.002 0 3.698.735 5.086 2.203zm-3.418 3.203c-.604-1.01-1.586-1.516-2.943-1.516-1.631 0-2.752.766-3.362 2.297-.316.812-.474 1.844-.474 3.094 0 1.98.531 3.371 1.593 4.172.632.469 1.379.703 2.242.703 1.253 0 2.208-.479 2.866-1.438.657-.957.986-2.234.986-3.828 0-1.312-.302-2.472-.908-3.484z"/><path fill="#B82025" d="M105.204 83.979c-1.438 1.774-3.62 2.661-6.547 2.661-2.928 0-5.109-.887-6.547-2.661s-2.156-3.911-2.156-6.409c0-2.455.719-4.584 2.156-6.385s3.619-2.701 6.547-2.701c2.927 0 5.109.9 6.547 2.701s2.156 3.93 2.156 6.385c0 2.498-.718 4.635-2.156 6.409zm-3.562-2.461c.697-.926 1.047-2.24 1.047-3.947 0-1.705-.35-3.019-1.047-3.939-.698-.92-1.698-1.381-3-1.381-1.303 0-2.305.461-3.008 1.381-.703.921-1.055 2.234-1.055 3.939 0 1.707.352 3.021 1.055 3.947s1.705 1.389 3.008 1.389c1.301-.001 2.301-.464 3-1.389z"/><path fill="#B82025" d="M113.201 80.625c.094.793.298 1.355.611 1.688.555.594 1.581.891 3.078.891.879 0 1.577-.129 2.096-.391.518-.26.777-.65.777-1.172 0-.5-.209-.879-.627-1.141-.417-.26-1.97-.707-4.658-1.344-1.936-.479-3.299-1.078-4.09-1.797-.792-.707-1.188-1.729-1.188-3.062 0-1.572.618-2.924 1.855-4.055 1.236-1.129 2.978-1.695 5.222-1.695 2.13 0 3.865.426 5.206 1.273 1.342.85 2.111 2.316 2.311 4.398h-4.453c-.063-.572-.225-1.025-.486-1.359-.491-.604-1.326-.906-2.507-.906-.972 0-1.663.152-2.076.453-.412.303-.618.656-.618 1.062 0 .512.219.881.658 1.109.438.24 1.988.652 4.648 1.234 1.774.418 3.104 1.047 3.99 1.891.875.855 1.312 1.922 1.312 3.203 0 1.688-.629 3.066-1.887 4.133-1.258 1.068-3.202 1.602-5.832 1.602-2.683 0-4.663-.564-5.941-1.695-1.279-1.129-1.918-2.57-1.918-4.32h4.517z"/><path fill="#B82025" d="M137.843 69.377c1.188.531 2.169 1.371 2.942 2.52.698 1.012 1.15 2.186 1.357 3.521.12.781.169 1.908.146 3.379h-12.404c.069 1.709.663 2.906 1.781 3.594.68.428 1.498.641 2.455.641 1.015 0 1.839-.26 2.473-.781.346-.281.651-.672.917-1.172h4.546c-.119 1.012-.67 2.037-1.65 3.078-1.525 1.656-3.662 2.484-6.408 2.484-2.266 0-4.266-.697-5.998-2.096-1.733-1.396-2.6-3.67-2.6-6.818 0-2.949.782-5.213 2.347-6.787 1.563-1.574 3.594-2.361 6.09-2.361 1.482-.001 2.817.266 4.006.798zm-6.662 3.847c-.63.649-1.024 1.527-1.187 2.636h7.672c-.081-1.182-.477-2.078-1.186-2.691-.711-.611-1.591-.918-2.642-.918-1.143-.001-2.028.323-2.657.973z"/><path fill="#B82025" d="M153.202 68.633l.383.023v4.562c-.281-.031-.531-.051-.75-.062l-.531-.016c-1.792 0-2.995.584-3.609 1.75-.344.656-.516 1.668-.516 3.031v8.141h-4.484v-17.031h4.25v2.969c.688-1.135 1.286-1.91 1.797-2.328.833-.697 1.917-1.047 3.25-1.047l.21.008z"/></svg>