<?xml version="1.0" encoding="utf-8"?>
<!-- Generator: Adobe Illustrator 16.0.0, SVG Export Plug-In . SVG Version: 6.00 Build 0)  -->
<!DOCTYPE svg PUBLIC "-//W3C//DTD SVG 1.1//EN" "http://www.w3.org/Graphics/SVG/1.1/DTD/svg11.dtd">
<svg version="1.1" id="Layer_1" xmlns="http://www.w3.org/2000/svg" xmlns:xlink="http://www.w3.org/1999/xlink" x="0px" y="0px"
	 width="155px" height="100px" viewBox="0 0 155 100" enable-background="new 0 0 155 100" xml:space="preserve">
<g>
	<path fill="#010101" d="M18.663,3.625c0.848,0.365,1.567,0.901,2.156,1.609c0.487,0.583,0.873,1.229,1.158,1.938
		c0.285,0.708,0.427,1.516,0.427,2.422c0,1.094-0.276,2.169-0.828,3.227c-0.552,1.058-1.463,1.805-2.734,2.242
		c1.062,0.427,1.815,1.034,2.258,1.82c0.443,0.787,0.664,1.987,0.664,3.602v1.547c0,1.052,0.042,1.766,0.127,2.141
		c0.127,0.594,0.423,1.031,0.889,1.312v0.578h-5.312c-0.146-0.51-0.25-0.922-0.312-1.234c-0.125-0.646-0.193-1.307-0.203-1.984
		l-0.031-2.141c-0.02-1.469-0.273-2.448-0.761-2.938c-0.488-0.489-1.402-0.734-2.742-0.734h-4.7v9.031H4.013V3.032h11.016
		C16.604,3.063,17.815,3.261,18.663,3.625z M8.716,7.032v6.188h5.179c1.029,0,1.8-0.125,2.315-0.375
		c0.91-0.438,1.365-1.302,1.365-2.594c0-1.396-0.44-2.333-1.321-2.812c-0.495-0.271-1.236-0.406-2.226-0.406H8.716z"/>
	<path fill="#010101" d="M40.057,23.979c-1.438,1.774-3.62,2.662-6.547,2.662c-2.927,0-5.109-0.887-6.547-2.662
		s-2.156-3.911-2.156-6.409c0-2.456,0.719-4.584,2.156-6.385c1.438-1.801,3.62-2.701,6.547-2.701c2.927,0,5.109,0.9,6.547,2.701
		c1.438,1.8,2.156,3.929,2.156,6.385C42.213,20.069,41.494,22.205,40.057,23.979z M36.494,21.518
		c0.698-0.926,1.047-2.241,1.047-3.947s-0.349-3.019-1.047-3.939c-0.698-0.92-1.698-1.381-3-1.381c-1.302,0-2.305,0.46-3.008,1.381
		s-1.055,2.233-1.055,3.939s0.352,3.021,1.055,3.947s1.706,1.389,3.008,1.389C34.796,22.907,35.796,22.444,36.494,21.518z"/>
	<path fill="#010101" d="M54.062,8.633c0.057,0.005,0.185,0.013,0.383,0.023v4.562c-0.281-0.031-0.531-0.052-0.75-0.062
		c-0.219-0.01-0.396-0.016-0.531-0.016c-1.792,0-2.995,0.583-3.609,1.75c-0.344,0.656-0.516,1.667-0.516,3.031v8.141h-4.484V9.032
		h4.25V12c0.688-1.135,1.286-1.911,1.797-2.328c0.833-0.698,1.917-1.047,3.25-1.047C53.934,8.625,54.004,8.628,54.062,8.633z"/>
	<path fill="#010101" d="M60.832,7h-4.516V2.891h4.516V7z M56.316,9.032h4.516v17.031h-4.516V9.032z"/>
	<path fill="#010101" d="M6.104,35.438c1.855-1.896,4.215-2.844,7.08-2.844c3.833,0,6.637,1.271,8.409,3.812
		c0.979,1.427,1.504,2.859,1.577,4.297h-4.812c-0.306-1.104-0.699-1.938-1.179-2.5c-0.857-1-2.127-1.5-3.811-1.5
		c-1.715,0-3.067,0.706-4.057,2.117c-0.99,1.412-1.485,3.409-1.485,5.992c0,2.583,0.522,4.519,1.567,5.805
		c1.044,1.287,2.371,1.929,3.981,1.929c1.65,0,2.909-0.551,3.775-1.656c0.479-0.594,0.876-1.484,1.192-2.672h4.781
		c-0.413,2.511-1.466,4.552-3.161,6.125c-1.695,1.574-3.867,2.359-6.515,2.359c-3.277,0-5.854-1.062-7.729-3.188
		c-1.875-2.135-2.813-5.062-2.813-8.781C2.904,40.714,3.971,37.615,6.104,35.438z"/>
	<path fill="#010101" d="M40.057,53.979c-1.438,1.774-3.62,2.661-6.547,2.661c-2.927,0-5.109-0.887-6.547-2.661
		s-2.156-3.911-2.156-6.409c0-2.456,0.719-4.584,2.156-6.385c1.438-1.801,3.62-2.701,6.547-2.701c2.927,0,5.109,0.9,6.547,2.701
		c1.438,1.8,2.156,3.929,2.156,6.385C42.213,50.069,41.494,52.205,40.057,53.979z M36.494,51.518
		c0.698-0.925,1.047-2.241,1.047-3.947s-0.349-3.019-1.047-3.939c-0.698-0.92-1.698-1.381-3-1.381c-1.302,0-2.305,0.46-3.008,1.381
		s-1.055,2.233-1.055,3.939s0.352,3.021,1.055,3.947c0.703,0.926,1.706,1.389,3.008,1.389
		C34.796,52.906,35.796,52.443,36.494,51.518z"/>
	<path fill="#010101" d="M49.147,56.062h-4.453V33.032h4.453V56.062z"/>
	<path fill="#010101" d="M63.79,39.376c1.188,0.532,2.169,1.372,2.943,2.52c0.698,1.012,1.15,2.186,1.357,3.521
		c0.12,0.782,0.168,1.909,0.146,3.38H55.832c0.069,1.708,0.663,2.906,1.781,3.593c0.68,0.428,1.498,0.641,2.455,0.641
		c1.015,0,1.839-0.26,2.473-0.781c0.346-0.281,0.651-0.672,0.917-1.172h4.546c-0.12,1.012-0.67,2.037-1.651,3.078
		c-1.526,1.656-3.662,2.484-6.408,2.484c-2.267,0-4.266-0.697-5.999-2.096c-1.732-1.396-2.599-3.669-2.599-6.818
		c0-2.95,0.782-5.213,2.346-6.787s3.594-2.361,6.09-2.361C61.267,38.579,62.602,38.845,63.79,39.376z M57.128,43.224
		c-0.63,0.649-1.025,1.527-1.187,2.636h7.672c-0.081-1.182-0.477-2.079-1.187-2.691c-0.71-0.612-1.59-0.918-2.641-0.918
		C58.643,42.25,57.757,42.575,57.128,43.224z"/>
	<path fill="#010101" d="M90.938,39.094c0.729,0.292,1.391,0.802,1.984,1.531c0.479,0.594,0.802,1.323,0.969,2.188
		c0.104,0.573,0.156,1.412,0.156,2.516l-0.031,10.734h-4.562V45.219c0-0.646-0.104-1.177-0.312-1.594
		c-0.396-0.792-1.125-1.188-2.188-1.188c-1.229,0-2.078,0.511-2.547,1.531c-0.24,0.542-0.359,1.193-0.359,1.953v10.14h-4.484v-10.14
		c0-1.01-0.104-1.745-0.312-2.203c-0.375-0.823-1.109-1.234-2.203-1.234c-1.271,0-2.125,0.412-2.562,1.234
		c-0.24,0.469-0.359,1.167-0.359,2.094v10.25H69.61v-17h4.328v2.484c0.552-0.885,1.072-1.516,1.562-1.891
		c0.864-0.667,1.984-1,3.359-1c1.302,0,2.354,0.287,3.156,0.859c0.646,0.531,1.135,1.214,1.469,2.047
		c0.583-1,1.307-1.734,2.172-2.203c0.916-0.469,1.938-0.703,3.062-0.703C89.47,38.657,90.209,38.803,90.938,39.094z"/>
	<path fill="#010101" d="M104.087,45.704c0.829-0.104,1.422-0.234,1.778-0.391c0.641-0.271,0.961-0.692,0.961-1.266
		c0-0.698-0.246-1.18-0.737-1.445s-1.212-0.398-2.161-0.398c-1.066,0-1.822,0.261-2.266,0.781c-0.316,0.386-0.527,0.906-0.633,1.562
		h-4.297c0.094-1.489,0.512-2.713,1.255-3.672c1.183-1.5,3.212-2.25,6.089-2.25c1.873,0,3.536,0.37,4.99,1.109
		c1.454,0.74,2.182,2.136,2.182,4.188v7.812c0,0.543,0.01,1.199,0.031,1.969c0.031,0.584,0.119,0.98,0.266,1.188
		c0.146,0.209,0.364,0.381,0.656,0.516v0.656h-4.844c-0.136-0.344-0.229-0.666-0.281-0.969c-0.053-0.301-0.094-0.645-0.125-1.031
		c-0.619,0.668-1.331,1.234-2.138,1.703c-0.964,0.553-2.054,0.828-3.27,0.828c-1.551,0-2.831-0.439-3.843-1.32
		c-1.011-0.879-1.516-2.127-1.516-3.742c0-2.093,0.812-3.609,2.439-4.546c0.892-0.51,2.203-0.875,3.936-1.094L104.087,45.704z
		 M106.81,47.782c-0.285,0.177-0.573,0.32-0.863,0.43s-0.688,0.211-1.195,0.305l-1.014,0.188c-0.95,0.167-1.633,0.37-2.047,0.609
		c-0.702,0.406-1.052,1.037-1.052,1.89c0,0.762,0.214,1.311,0.643,1.648c0.428,0.34,0.949,0.508,1.562,0.508
		c0.973,0,1.869-0.281,2.689-0.844c0.819-0.562,1.245-1.588,1.276-3.078V47.782z"/>
	<path fill="#010101" d="M128.072,40.008c1.114,0.922,1.672,2.451,1.672,4.586v11.468h-4.562V45.704
		c0-0.896-0.119-1.583-0.356-2.062c-0.435-0.875-1.262-1.312-2.481-1.312c-1.5,0-2.528,0.641-3.087,1.922
		c-0.29,0.677-0.435,1.542-0.435,2.594v9.218h-4.453v-17h4.312v2.484c0.57-0.875,1.11-1.505,1.618-1.891
		c0.913-0.688,2.069-1.031,3.47-1.031C125.522,38.625,126.957,39.086,128.072,40.008z"/>
	<path fill="#B82025" d="M6.104,65.438c1.855-1.895,4.215-2.844,7.08-2.844c3.833,0,6.637,1.271,8.409,3.812
		c0.979,1.428,1.504,2.859,1.577,4.297h-4.812c-0.306-1.104-0.699-1.938-1.179-2.5c-0.857-1-2.127-1.5-3.811-1.5
		c-1.715,0-3.067,0.707-4.057,2.117c-0.99,1.412-1.485,3.41-1.485,5.992c0,2.584,0.522,4.52,1.567,5.805
		c1.044,1.287,2.371,1.93,3.981,1.93c1.65,0,2.909-0.551,3.775-1.656c0.479-0.594,0.876-1.484,1.192-2.672h4.781
		c-0.413,2.512-1.466,4.553-3.161,6.125c-1.695,1.574-3.867,2.359-6.515,2.359c-3.277,0-5.854-1.062-7.729-3.188
		c-1.875-2.135-2.813-5.062-2.813-8.781C2.904,70.715,3.971,67.615,6.104,65.438z"/>
	<path fill="#B82025" d="M40.057,83.979c-1.438,1.774-3.62,2.661-6.547,2.661c-2.927,0-5.109-0.887-6.547-2.661
		s-2.156-3.911-2.156-6.409c0-2.455,0.719-4.584,2.156-6.385s3.62-2.701,6.547-2.701c2.927,0,5.109,0.9,6.547,2.701
		s2.156,3.93,2.156,6.385C42.213,80.068,41.494,82.205,40.057,83.979z M36.494,81.518c0.698-0.926,1.047-2.24,1.047-3.947
		c0-1.705-0.349-3.019-1.047-3.939c-0.698-0.92-1.698-1.381-3-1.381c-1.302,0-2.305,0.461-3.008,1.381
		c-0.703,0.921-1.055,2.234-1.055,3.939c0,1.707,0.352,3.021,1.055,3.947s1.706,1.389,3.008,1.389
		C34.796,82.906,35.796,82.443,36.494,81.518z"/>
	<path fill="#B82025" d="M65.851,69.094c0.729,0.293,1.391,0.803,1.984,1.531c0.479,0.594,0.802,1.324,0.969,2.188
		c0.104,0.574,0.156,1.412,0.156,2.516l-0.031,10.734h-4.562V75.219c0-0.645-0.104-1.176-0.312-1.594
		c-0.396-0.791-1.125-1.188-2.188-1.188c-1.229,0-2.078,0.512-2.547,1.531c-0.24,0.543-0.359,1.193-0.359,1.953v10.141h-4.484
		V75.922c0-1.01-0.104-1.744-0.312-2.203c-0.375-0.822-1.109-1.234-2.203-1.234c-1.271,0-2.125,0.412-2.562,1.234
		c-0.24,0.469-0.359,1.168-0.359,2.094v10.25h-4.516v-17h4.328v2.484c0.552-0.885,1.073-1.516,1.562-1.891
		c0.864-0.666,1.984-1,3.359-1c1.302,0,2.354,0.287,3.156,0.859c0.646,0.531,1.135,1.215,1.469,2.047
		c0.583-1,1.307-1.734,2.172-2.203c0.917-0.469,1.938-0.703,3.062-0.703C64.382,68.656,65.121,68.803,65.851,69.094z"/>
	<path fill="#B82025" d="M86.576,70.859c1.39,1.469,2.084,3.625,2.084,6.469c0,3-0.679,5.287-2.037,6.859
		c-1.357,1.574-3.105,2.359-5.244,2.359c-1.363,0-2.495-0.338-3.397-1.016c-0.493-0.375-0.975-0.922-1.447-1.641v8.875h-4.406
		V69.031h4.266v2.516c0.482-0.738,0.996-1.322,1.541-1.75c0.996-0.76,2.181-1.141,3.554-1.141
		C83.492,68.656,85.188,69.391,86.576,70.859z M83.158,74.062c-0.604-1.01-1.586-1.516-2.943-1.516
		c-1.631,0-2.752,0.766-3.362,2.297c-0.316,0.812-0.474,1.844-0.474,3.094c0,1.98,0.531,3.371,1.593,4.172
		c0.632,0.469,1.379,0.703,2.242,0.703c1.253,0,2.208-0.479,2.866-1.438c0.657-0.957,0.986-2.234,0.986-3.828
		C84.066,76.234,83.764,75.074,83.158,74.062z"/>
	<path fill="#B82025" d="M105.204,83.979c-1.438,1.774-3.62,2.661-6.547,2.661c-2.928,0-5.109-0.887-6.547-2.661
		s-2.156-3.911-2.156-6.409c0-2.455,0.719-4.584,2.156-6.385s3.619-2.701,6.547-2.701c2.927,0,5.109,0.9,6.547,2.701
		s2.156,3.93,2.156,6.385C107.36,80.068,106.642,82.205,105.204,83.979z M101.642,81.518c0.697-0.926,1.047-2.24,1.047-3.947
		c0-1.705-0.35-3.019-1.047-3.939c-0.698-0.92-1.698-1.381-3-1.381c-1.303,0-2.305,0.461-3.008,1.381
		c-0.703,0.921-1.055,2.234-1.055,3.939c0,1.707,0.352,3.021,1.055,3.947s1.705,1.389,3.008,1.389
		C99.943,82.906,100.943,82.443,101.642,81.518z"/>
	<path fill="#B82025" d="M113.201,80.625c0.094,0.793,0.298,1.355,0.611,1.688c0.555,0.594,1.581,0.891,3.078,0.891
		c0.879,0,1.577-0.129,2.096-0.391c0.518-0.26,0.777-0.65,0.777-1.172c0-0.5-0.209-0.879-0.627-1.141
		c-0.417-0.26-1.97-0.707-4.658-1.344c-1.936-0.479-3.299-1.078-4.09-1.797c-0.792-0.707-1.188-1.729-1.188-3.062
		c0-1.572,0.618-2.924,1.855-4.055c1.236-1.129,2.978-1.695,5.222-1.695c2.13,0,3.865,0.426,5.206,1.273
		c1.342,0.85,2.111,2.316,2.311,4.398h-4.453c-0.063-0.572-0.225-1.025-0.486-1.359c-0.491-0.604-1.326-0.906-2.507-0.906
		c-0.972,0-1.663,0.152-2.076,0.453c-0.412,0.303-0.618,0.656-0.618,1.062c0,0.512,0.219,0.881,0.658,1.109
		c0.438,0.24,1.988,0.652,4.648,1.234c1.774,0.418,3.104,1.047,3.99,1.891c0.875,0.855,1.312,1.922,1.312,3.203
		c0,1.688-0.629,3.066-1.887,4.133c-1.258,1.068-3.202,1.602-5.832,1.602c-2.683,0-4.663-0.564-5.941-1.695
		c-1.279-1.129-1.918-2.57-1.918-4.32H113.201z"/>
	<path fill="#B82025" d="M137.843,69.377c1.188,0.531,2.169,1.371,2.942,2.52c0.698,1.012,1.15,2.186,1.357,3.521
		c0.12,0.781,0.169,1.908,0.146,3.379h-12.404c0.069,1.709,0.663,2.906,1.781,3.594c0.68,0.428,1.498,0.641,2.455,0.641
		c1.015,0,1.839-0.26,2.473-0.781c0.346-0.281,0.651-0.672,0.917-1.172h4.546c-0.119,1.012-0.67,2.037-1.65,3.078
		c-1.525,1.656-3.662,2.484-6.408,2.484c-2.266,0-4.266-0.697-5.998-2.096c-1.733-1.396-2.6-3.67-2.6-6.818
		c0-2.949,0.782-5.213,2.347-6.787c1.563-1.574,3.594-2.361,6.09-2.361C135.319,68.578,136.654,68.845,137.843,69.377z
		 M131.181,73.224c-0.63,0.649-1.024,1.527-1.187,2.636h7.672c-0.081-1.182-0.477-2.078-1.186-2.691
		c-0.711-0.611-1.591-0.918-2.642-0.918C132.695,72.25,131.81,72.574,131.181,73.224z"/>
	<path fill="#B82025" d="M153.202,68.633c0.058,0.006,0.185,0.014,0.383,0.023v4.562c-0.281-0.031-0.531-0.051-0.75-0.062
		c-0.219-0.01-0.396-0.016-0.531-0.016c-1.792,0-2.995,0.584-3.609,1.75c-0.344,0.656-0.516,1.668-0.516,3.031v8.141h-4.484V69.031
		h4.25V72c0.688-1.135,1.286-1.91,1.797-2.328c0.833-0.697,1.917-1.047,3.25-1.047C153.074,68.625,153.145,68.629,153.202,68.633z"
		/>
</g>
</svg>
